<?xml version="1.0" encoding="utf-8"?>
<!-- Generator: Adobe Illustrator 27.5.0, SVG Export Plug-In . SVG Version: 6.00 Build 0)  -->
<svg version="1.1" xmlns="http://www.w3.org/2000/svg" xmlns:xlink="http://www.w3.org/1999/xlink" x="0px" y="0px"
	 viewBox="0 0 500 500" style="enable-background:new 0 0 500 500;" xml:space="preserve">
<g id="Background_Complete">
	<g>
		<rect y="382.398" style="fill:#EBEBEB;" width="500" height="0.25"/>
		<rect x="416.779" y="398.494" style="fill:#EBEBEB;" width="33.122" height="0.25"/>
		<rect x="322.527" y="401.208" style="fill:#EBEBEB;" width="8.693" height="0.25"/>
		<rect x="396.586" y="389.208" style="fill:#EBEBEB;" width="19.192" height="0.25"/>
		<rect x="52.459" y="390.889" style="fill:#EBEBEB;" width="43.193" height="0.25"/>
		<rect x="104.556" y="390.889" style="fill:#EBEBEB;" width="6.333" height="0.25"/>
		<rect x="131.471" y="395.111" style="fill:#EBEBEB;" width="93.676" height="0.25"/>
		<path style="fill:#EBEBEB;" d="M237.014,337.8H43.915c-3.147,0-5.708-2.561-5.708-5.708V60.66c0-3.147,2.561-5.708,5.708-5.708
			h193.099c3.146,0,5.707,2.561,5.707,5.708v271.432C242.721,335.239,240.16,337.8,237.014,337.8z M43.915,55.203
			c-3.01,0-5.458,2.448-5.458,5.458v271.432c0,3.01,2.448,5.458,5.458,5.458h193.099c3.009,0,5.457-2.448,5.457-5.458V60.66
			c0-3.009-2.448-5.458-5.457-5.458H43.915z"/>
		<path style="fill:#EBEBEB;" d="M453.31,337.8H260.212c-3.147,0-5.707-2.561-5.707-5.708V60.66c0-3.147,2.561-5.708,5.707-5.708
			H453.31c3.148,0,5.708,2.561,5.708,5.708v271.432C459.019,335.239,456.458,337.8,453.31,337.8z M260.212,55.203
			c-3.009,0-5.457,2.448-5.457,5.458v271.432c0,3.01,2.448,5.458,5.457,5.458H453.31c3.01,0,5.458-2.448,5.458-5.458V60.66
			c0-3.009-2.448-5.458-5.458-5.458H260.212z"/>
	</g>
	<g>
		<g>
			<g>
				<g>
					
						<rect x="66.797" y="95.611" transform="matrix(-1 -1.224647e-16 1.224647e-16 -1 269.2926 478.009)" style="fill:#E6E6E6;" width="135.699" height="286.788"/>
					
						<rect x="63.781" y="95.611" transform="matrix(-1 -1.224647e-16 1.224647e-16 -1 263.2614 478.009)" style="fill:#F5F5F5;" width="135.699" height="286.788"/>
					
						<rect x="-5.683" y="176.568" transform="matrix(-1.836970e-16 1 -1 -1.836970e-16 370.6353 107.3739)" style="fill:#FAFAFA;" width="274.627" height="124.873"/>
					<polygon style="fill:#FFFFFF;" points="165.308,376.318 133.674,101.691 97.954,101.691 129.587,376.318 					"/>
					
						<rect x="-66.98" y="237.865" transform="matrix(-1.836970e-16 1 -1 -1.836970e-16 309.3386 168.6706)" style="fill:#E6E6E6;" width="274.627" height="2.28"/>
					
						<rect x="66.02" y="125.478" transform="matrix(-1 -1.224647e-16 1.224647e-16 -1 263.2614 259.1186)" style="fill:#F5F5F5;" width="131.221" height="8.163"/>
				</g>
			</g>
		</g>
		<g>
			
				<rect x="163.632" y="271.803" transform="matrix(-1.836970e-16 1 -1 -1.836970e-16 546.0296 52.3663)" style="fill:#F0F0F0;" width="166.4" height="54.789"/>
			
				<rect x="222.444" y="220.862" transform="matrix(-1.836970e-16 1 -1 -1.836970e-16 492.0809 -1.5824)" style="fill:#F5F5F5;" width="48.774" height="48.774"/>
			
				<rect x="222.445" y="274.014" transform="matrix(-1.836970e-16 1 -1 -1.836970e-16 545.2331 51.5698)" style="fill:#F5F5F5;" width="48.774" height="48.774"/>
			
				<rect x="222.445" y="327.167" transform="matrix(-1.836970e-16 1 -1 -1.836970e-16 598.3853 104.722)" style="fill:#F5F5F5;" width="48.774" height="48.774"/>
			<path style="fill:#E6E6E6;" d="M257.627,220.216L257.627,220.216h-21.591l0,0c0,2.793,2.264,5.057,5.057,5.057h11.476
				C255.363,225.274,257.627,223.009,257.627,220.216z"/>
			<path style="fill:#E6E6E6;" d="M257.627,273.369L257.627,273.369h-21.591l0,0c0,2.793,2.264,5.057,5.057,5.057h11.476
				C255.363,278.426,257.627,276.162,257.627,273.369z"/>
			<path style="fill:#E6E6E6;" d="M257.627,326.521L257.627,326.521h-21.591l0,0c0,2.793,2.264,5.057,5.057,5.057h11.476
				C255.363,331.578,257.627,329.314,257.627,326.521z"/>
			
				<rect x="204.709" y="285.515" transform="matrix(-1.836970e-16 1 -1 -1.836970e-16 587.1068 11.2891)" style="fill:#F5F5F5;" width="166.4" height="27.365"/>
		</g>
		<g>
			<g>
				
					<rect x="420.488" y="253.035" transform="matrix(-1 -1.224647e-16 1.224647e-16 -1 856.1675 631.3444)" style="fill:#F0F0F0;" width="15.191" height="125.275"/>
				
					<rect x="287.715" y="378.31" transform="matrix(-1 -1.224647e-16 1.224647e-16 -1 721.2893 760.7083)" style="fill:#F0F0F0;" width="145.859" height="4.089"/>
				<rect x="285.61" y="253.035" style="fill:#FAFAFA;" width="134.878" height="125.275"/>
				<path style="fill:#F0F0F0;" d="M312.017,326.239h82.064c8.056,0,14.609-6.554,14.609-14.61c0-8.056-6.554-14.61-14.609-14.61
					h-82.064c-8.056,0-14.609,6.554-14.609,14.61C297.408,319.685,303.962,326.239,312.017,326.239z M394.082,298.001
					c7.515,0,13.629,6.114,13.629,13.628c0,7.515-6.114,13.628-13.629,13.628h-82.064c-7.515,0-13.629-6.114-13.629-13.628
					c0-7.515,6.114-13.628,13.629-13.628H394.082z"/>
				<path style="fill:#F0F0F0;" d="M312.017,362.585h82.064c8.056,0,14.609-6.554,14.609-14.61s-6.554-14.61-14.609-14.61h-82.064
					c-8.056,0-14.609,6.554-14.609,14.61S303.962,362.585,312.017,362.585z M394.082,334.347c7.515,0,13.629,6.114,13.629,13.628
					c0,7.515-6.114,13.628-13.629,13.628h-82.064c-7.515,0-13.629-6.114-13.629-13.628c0-7.515,6.114-13.628,13.629-13.628H394.082z
					"/>
				<path style="fill:#EBEBEB;" d="M340.666,308.478h24.766c1.676,0,3.048-1.372,3.048-3.048l0,0c0-1.677-1.372-3.048-3.048-3.048
					h-24.766c-1.676,0-3.048,1.372-3.048,3.048l0,0C337.618,307.106,338.99,308.478,340.666,308.478z"/>
				<path style="fill:#F0F0F0;" d="M312.017,289.893h82.064c8.056,0,14.609-6.554,14.609-14.61c0-8.056-6.554-14.61-14.609-14.61
					h-82.064c-8.056,0-14.609,6.554-14.609,14.61C297.408,283.338,303.962,289.893,312.017,289.893z M394.082,261.654
					c7.515,0,13.629,6.114,13.629,13.628c0,7.515-6.114,13.628-13.629,13.628h-82.064c-7.515,0-13.629-6.114-13.629-13.628
					c0-7.515,6.114-13.628,13.629-13.628H394.082z"/>
				<path style="fill:#EBEBEB;" d="M340.666,272.132h24.766c1.676,0,3.048-1.372,3.048-3.048l0,0c0-1.676-1.372-3.048-3.048-3.048
					h-24.766c-1.676,0-3.048,1.372-3.048,3.048l0,0C337.618,270.76,338.99,272.132,340.666,272.132z"/>
				<path style="fill:#EBEBEB;" d="M340.666,344.824h24.766c1.676,0,3.048-1.372,3.048-3.048l0,0c0-1.676-1.372-3.048-3.048-3.048
					h-24.766c-1.676,0-3.048,1.372-3.048,3.048l0,0C337.618,343.453,338.99,344.824,340.666,344.824z"/>
			</g>
			
				<rect x="282.836" y="246.667" transform="matrix(-1 -1.224647e-16 1.224647e-16 -1 703.3249 499.7014)" style="fill:#F0F0F0;" width="137.652" height="6.368"/>
			<rect x="420.488" y="246.667" style="fill:#E6E6E6;" width="18.167" height="6.368"/>
		</g>
		<g>
			<path style="fill:#E0E0E0;" d="M322.025,146.388c3.067,1.539,11.387-0.114,8.614,5.516c-1.304,2.646-3.426,5.472-5.686,8.26
				c-3.098,3.821-2.513,7.966,1.145,9.471c0.888,0.365,1.613,0.819,2.023,1.406c1.685,2.415-2.295,5.655-4.249,8.074
				c-1.888,2.337-2.742,4.8-1.298,6.601c1.594,1.987,4.917,1.257,7.554,1.857c6.347,1.443-0.18,10.194,0.494,14.691
				c0.461,3.078,2.957,3.936,6.349,4.371c2.766,0.355,6.459,0.603,6.613,3.439c0.133,2.454-3.063,5.236-3.901,7.816
				c-0.815,2.507-0.537,4.943,0.615,6.798c1.029,1.658,2.729,2.78,4.979,3.258c3.143,0.668,7.897-0.025,8.123,3.521
				c0.101,1.584-1.002,2.985-0.235,4.443c0.647,1.231,2.118,1.853,3.688,2.168c2.524,0.506,6.165,0.369,9.059-0.161
				c3.689-0.676,9.136-3.927,7.135-7.062c-0.561-0.879-1.642-1.391-2.853-1.638c-0.885-0.181-3.462,0.099-3.794-0.499
				c-0.332-0.6,0.557-2.904,0.595-3.743c0.109-2.41-0.323-4.675-1.075-6.765c-1.021-2.839-2.635-5.389-4.762-7.544
				c-0.872-0.884-2.271-1.534-2.449-2.823c-0.17-1.23,0.633-2.714,1.53-3.973c1.413-1.986,3.599-3.884,4.391-6.011
				c1.244-3.341-1.77-4.401-4.559-5.16c-2.523-0.686-5.842-1.569-4.986-4.631c0.619-2.212,3.406-4.022,4.241-6.178
				c1.12-2.894-1.611-3.007-3.57-4.041c-2.541-1.341-3.184-3.735-2.261-6.77c1.521-5.004,10.693-12.065,5.997-15.318
				c-1.192-0.826-2.297-1.104-3.015-2.345c-0.767-1.327-0.879-2.98-1.875-4.185c-1.581-1.911-4.848-2.232-6.556-4.007
				c-3.502-3.639,4.064-10.094-2.842-11.63c-1.578-0.351-2.977-0.683-4.034-1.669c-0.632-0.589-1.144-3.443-1.858-3.642
				c-3.167-0.883-8.883,5.266-10.678,7.164C326.449,137.754,318.362,144.55,322.025,146.388z"/>
			<path style="fill:#F5F5F5;" d="M376.388,231.206c-1.883-3.482-10.108-6.958-4.648-11c2.567-1.9,5.952-3.475,9.439-4.926
				c4.779-1.989,6.481-6.596,4.059-10.41c-0.588-0.926-0.985-1.84-1.032-2.697c-0.194-3.52,5.052-4.365,8.07-5.629
				c2.917-1.221,4.989-3.212,4.678-5.953c-0.343-3.025-3.666-4.342-5.672-6.594c-4.827-5.421,5.615-10.328,7.427-15.351
				c1.24-3.438-0.502-5.867-3.262-8.419c-2.251-2.082-5.376-4.63-3.994-7.63c1.196-2.595,5.505-3.459,7.626-5.58
				c2.061-2.061,3.12-4.728,3.096-7.344c-0.021-2.337-0.92-4.542-2.65-6.43c-2.415-2.637-6.981-4.88-5.282-8.651
				c0.759-1.684,2.482-2.435,2.586-4.404c0.088-1.662-0.877-3.214-2.094-4.511c-1.957-2.086-5.242-4.207-8.079-5.463
				c-3.617-1.6-10.163-1.654-10.075,2.799c0.025,1.248,0.705,2.444,1.641,3.45c0.684,0.735,3.108,2.049,3.08,2.868
				c-0.028,0.82-2.046,2.627-2.529,3.463c-1.386,2.401-2.217,4.987-2.673,7.596c-0.618,3.541-0.56,7.155,0.164,10.683
				c0.297,1.447,1.182,2.981,0.649,4.412c-0.509,1.366-2.011,2.385-3.476,3.119c-2.309,1.156-5.255,1.742-7.092,3.428
				c-2.886,2.648-0.794,5.606,1.261,8.116c1.859,2.27,4.315,5.236,1.92,7.84c-1.73,1.881-5.158,2.003-7.049,3.692
				c-2.538,2.268-0.189,4.08,0.987,6.356c1.525,2.952,0.81,5.802-1.629,8.337c-4.02,4.179-15.892,5.712-13.491,11.96
				c0.61,1.586,1.436,2.558,1.405,4.275c-0.034,1.836-0.82,3.598-0.585,5.451c0.372,2.94,3.083,5.298,3.64,8.176
				c1.142,5.902-8.989,7.812-3.717,13.676c1.204,1.339,2.261,2.549,2.666,4.215c0.243,0.996-0.833,4.236-0.31,4.884
				c2.321,2.872,10.656,0.126,13.256-0.703C367.863,237.299,378.636,235.364,376.388,231.206z"/>
			<g>
				<path style="fill:#F0F0F0;" d="M397.469,223.345c0,0-0.996,23.322-39.178,23.322c-38.182,0-39.178-23.322-39.178-23.322H397.469
					z"/>
			</g>
		</g>
	</g>
</g>
<g id="Background_Simple" style="display:none;">
	<g style="display:inline;">
		<path style="fill:#407BFF;" d="M382.219,191.911c-46.103-49.541-161.384-90.522-227.299-70.218
			c-62.052,19.114-101.001,95.547-54.68,146.695c53.337,58.896,145.232,83.233,220.68,72.887
			C389.766,331.835,438.242,252.112,382.219,191.911z"/>
		<path style="opacity:0.9;fill:#FFFFFF;" d="M382.219,191.911c-46.103-49.541-161.384-90.522-227.299-70.218
			c-62.052,19.114-101.001,95.547-54.68,146.695c53.337,58.896,145.232,83.233,220.68,72.887
			C389.766,331.835,438.242,252.112,382.219,191.911z"/>
	</g>
</g>
<g id="Shadow_1_">
	<ellipse id="_x3C_Path_x3E__188_" style="fill:#F5F5F5;" cx="250" cy="416.238" rx="193.889" ry="11.323"/>
</g>
<g id="Hourglass">
	<g>
		<g style="opacity:0.2;">
			<polygon style="fill:#407BFF;" points="360.729,407.866 297.039,290.152 233.349,407.866 			"/>
			<polygon style="fill:#407BFF;" points="360.729,208.72 297.039,326.434 233.349,208.72 			"/>
		</g>
		<g>
			<path style="fill:#407BFF;" d="M308.705,278.216l-9.319,17.225c-1.009,1.865-3.685,1.865-4.694,0l-9.32-17.225
				c-3.677-6.795,1.244-15.052,8.97-15.052h5.393C307.461,263.164,312.382,271.42,308.705,278.216z"/>
			<path style="fill:#407BFF;" d="M298.054,378.15l28.911,11.897c2.703,1.113,1.908,5.136-1.016,5.136l-57.821,0
				c-2.923,0-3.719-4.024-1.016-5.136l28.91-11.897C296.674,377.882,297.404,377.882,298.054,378.15z"/>
			<circle style="fill:#407BFF;" cx="297.039" cy="351.795" r="3.707"/>
			<circle style="fill:#407BFF;" cx="297.039" cy="313.049" r="1.911"/>
			<circle style="fill:#407BFF;" cx="297.039" cy="331.524" r="2.173"/>
		</g>
		<path style="fill:#407BFF;" d="M360.406,402.064H233.672c-3.191,0-5.801,2.611-5.801,5.802l0,0c0,3.191,2.611,5.802,5.801,5.802
			h126.734c3.191,0,5.802-2.611,5.802-5.802l0,0C366.208,404.675,363.597,402.064,360.406,402.064z"/>
		<path style="fill:#407BFF;" d="M360.406,202.919H233.672c-3.191,0-5.801,2.611-5.801,5.802l0,0c0,3.191,2.611,5.801,5.801,5.801
			h126.734c3.191,0,5.802-2.611,5.802-5.801l0,0C366.208,205.529,363.597,202.919,360.406,202.919z"/>
	</g>
</g>
<g id="Character_1_">
	<g>
		<g>
			<g>
				<polygon style="fill:#FF8B7B;" points="194.628,405.677 187.576,403.388 191.96,386.761 199.011,389.05 				"/>
				<path style="fill:#263238;" d="M187.471,402.452l7.922,2.571c0.288,0.094,0.441,0.364,0.367,0.651l-1.65,6.393
					c-0.171,0.663-0.981,1.08-1.641,0.853c-2.743-0.943-4.007-1.532-7.491-2.663c-2.143-0.696-9.208-2.521-12.167-3.481
					c-2.895-0.939-1.926-3.86-0.585-3.718c6.01,0.637,11.393,0.351,13.891-0.567C186.567,402.326,187.05,402.315,187.471,402.452z"
					/>
				<g>
					<polygon style="opacity:0.2;" points="199.012,389.055 191.957,386.765 189.701,395.337 196.755,397.626 					"/>
				</g>
				<path style="fill:#407BFF;" d="M218.277,220.722c0,0-12.651,58.549-15.618,79.6c-3.249,23.053-15.455,92.272-15.455,92.272
					l13.088,3.616c0,0,18.137-67.133,23.435-89.543c5.75-24.322,21.045-85.945,21.045-85.945H218.277z"/>
				<path style="opacity:0.3;" d="M233.921,239.92c-4.99,11.34-7.47,36.04-5.53,47.35c3.54-14.55,7.8-31.85,11.09-45.16
					C238.372,238.25,236.531,233.99,233.921,239.92z"/>
				<polygon style="fill:#263238;" points="200.622,396.468 186.604,392.606 186.875,386.896 202.658,392.354 				"/>
				<path style="fill:#263238;" d="M184.573,402.869c0.651,0.211,1.415,0.311,1.961,0.358c0.068,0.006,0.133-0.029,0.166-0.088
					c0.033-0.06,0.027-0.133-0.014-0.188c-0.174-0.23-1.728-2.242-2.699-2.183c-0.225,0.013-0.41,0.131-0.534,0.341
					c-0.205,0.346-0.233,0.669-0.084,0.958C183.56,402.436,184.027,402.692,184.573,402.869z M186.16,402.842
					c-1.343-0.158-2.259-0.499-2.482-0.933c-0.092-0.18-0.068-0.384,0.074-0.625c0.066-0.111,0.147-0.166,0.257-0.172
					C184.53,401.081,185.511,402.056,186.16,402.842z"/>
				<path style="fill:#263238;" d="M186.496,403.219c0.025,0.008,0.053,0.011,0.081,0.006c0.059-0.01,0.108-0.048,0.131-0.104
					c0.035-0.084,0.851-2.06,0.362-2.977c-0.132-0.247-0.341-0.4-0.622-0.456c-0.337-0.066-0.607,0.042-0.757,0.304
					c-0.412,0.716,0.162,2.529,0.728,3.176C186.44,403.193,186.466,403.21,186.496,403.219z M186.46,400.048
					c0.136,0.044,0.237,0.129,0.306,0.259c0.292,0.547-0.027,1.727-0.264,2.39c-0.445-0.717-0.782-2.062-0.511-2.532
					c0.051-0.09,0.143-0.186,0.391-0.137C186.409,400.033,186.435,400.04,186.46,400.048z"/>
			</g>
			<path style="fill:#263238;" d="M231.739,165.135c-0.384,0.894-0.697,1.572-1.053,2.336c-0.35,0.74-0.723,1.462-1.093,2.184
				c-0.745,1.441-1.521,2.86-2.33,4.266c-1.64,2.798-3.406,5.54-5.402,8.176c-1.979,2.646-4.156,5.206-6.654,7.597
				c-2.479,2.4-5.318,4.626-8.676,6.412l-0.251,0.134c-0.404,0.215-0.848,0.371-1.275,0.465c-2.409,0.515-4.854,0.319-6.871-0.276
				c-2.038-0.589-3.742-1.475-5.243-2.434c-2.987-1.94-5.219-4.238-7.244-6.563c-1.991-2.355-3.715-4.798-5.263-7.315
				c-1.548-2.541-2.915-5.049-4.135-7.841c-0.716-1.639,0.032-3.549,1.672-4.265c1.357-0.593,2.9-0.182,3.797,0.908l0.098,0.121
				c1.652,2.01,3.441,4.133,5.242,6.074c1.808,1.958,3.667,3.831,5.584,5.481c1.89,1.661,3.899,3.094,5.74,4
				c0.915,0.446,1.785,0.727,2.465,0.815c0.691,0.083,1.122,0.018,1.441-0.122l-1.526,0.598c1.933-1.253,3.822-2.959,5.612-4.9
				c1.78-1.951,3.461-4.132,5.048-6.425c1.578-2.3,3.075-4.714,4.491-7.187c0.713-1.234,1.403-2.487,2.06-3.751l0.966-1.897
				c0.31-0.605,0.655-1.302,0.891-1.8l0.062-0.132c1.534-3.245,5.409-4.632,8.654-3.097
				C231.714,158.195,233.106,161.938,231.739,165.135z"/>
			<path style="opacity:0.3;" d="M215.392,178.712c3.14-8.34,9.81-8.48,12.7-6.27c-0.21,0.39-0.43,0.78-0.65,1.17
				c-1.56,2.71-3.27,5.35-5.15,7.91c-1.88,2.55-3.94,5.04-6.27,7.38c-0.72,0.71-1.46,1.41-2.23,2.09
				C213.632,187.062,213.932,182.612,215.392,178.712z"/>
			<path style="fill:#FF8B7B;" d="M175.977,172.794l-6.497,0.231l1.625-6.94c0,0,3.867,0.158,6.627,0.963
				c1.673,0.488,2.356,2.498,1.404,3.957l-0.004,0.006C178.434,172.083,177.257,172.748,175.977,172.794z"/>
			<path style="fill:#407BFF;" d="M179.639,166.915c-0.536-0.428-1.238-0.834-2.144-1.106c-0.548,2.837-3.965,7.635-3.965,7.635
				h2.707c0.709,0,1.382-0.315,1.837-0.859l1.896-2.271C180.827,169.286,180.686,167.75,179.639,166.915z"/>
			<polygon style="fill:#FF8B7B;" points="164.517,169.833 166.345,164.93 171.105,166.085 169.48,173.025 			"/>
			<g>
				<polygon style="fill:#FF8B7B;" points="246.25,408.921 238.837,408.921 238.581,391.752 245.994,391.752 				"/>
				<path style="fill:#263238;" d="M238.448,408.062h8.329c0.303,0,0.532,0.211,0.55,0.506l0.404,6.59
					c0.042,0.684-0.599,1.33-1.298,1.318c-2.9-0.05-4.285-0.22-7.948-0.22c-2.253,0-9.786,0.234-12.898,0.234
					c-3.043,0-3.023-3.077-1.704-3.356c5.913-1.249,11.195-2.973,13.288-4.617C237.548,408.222,238.005,408.062,238.448,408.062z"/>
				<g>
					<polygon style="opacity:0.2;" points="245.996,391.757 238.579,391.757 238.715,400.607 246.132,400.607 					"/>
				</g>
				<path style="fill:#407BFF;" d="M232.74,220.722c0,0-2.831,64.411-1.629,85.637c1.317,23.243,4.082,92.111,4.082,92.111h13.579
					c0,0,3.423-66.991,4.241-90.004c0.888-24.977,4.914-87.744,4.914-87.744H232.74z"/>
				<polygon style="fill:#263238;" points="249.318,398.47 234.646,398.47 233.528,393.014 249.722,393.819 				"/>
				<path style="fill:#263238;" d="M235.82,409.354c0.685,0,1.442-0.141,1.976-0.265c0.066-0.015,0.118-0.068,0.13-0.135
					c0.013-0.067-0.015-0.135-0.071-0.174c-0.237-0.165-2.335-1.599-3.241-1.244c-0.21,0.082-0.349,0.251-0.402,0.489
					c-0.088,0.392-0.015,0.708,0.216,0.938C234.723,409.254,235.246,409.354,235.82,409.354z M237.321,408.838
					c-1.326,0.264-2.303,0.223-2.649-0.121c-0.144-0.142-0.184-0.344-0.123-0.617c0.028-0.126,0.089-0.203,0.191-0.243
					C235.227,407.666,236.461,408.291,237.321,408.838z"/>
				<path style="fill:#263238;" d="M237.757,409.093c0.027,0,0.054-0.006,0.079-0.019c0.053-0.027,0.088-0.08,0.093-0.139
					c0.007-0.09,0.174-2.223-0.574-2.943c-0.202-0.194-0.448-0.275-0.732-0.241c-0.341,0.041-0.564,0.227-0.626,0.523
					c-0.171,0.809,0.935,2.356,1.673,2.796C237.696,409.085,237.726,409.093,237.757,409.093z M236.743,406.088
					c0.144,0,0.266,0.05,0.371,0.152c0.447,0.43,0.507,1.651,0.487,2.355c-0.645-0.544-1.38-1.72-1.268-2.25
					c0.021-0.101,0.078-0.221,0.33-0.252C236.691,406.09,236.718,406.088,236.743,406.088z"/>
			</g>
			<path style="fill:#263238;" d="M261.644,160.938c0.467-2.622-1.326-5.108-3.961-5.494l-0.086-0.013
				c-2.39-0.35-5.39-0.71-8.33-0.85c-5.06-0.24-12.39-0.4-16.85,0c-2.59,0.24-5.12,0.67-7.14,1.06
				c-0.026,0.005-0.051,0.01-0.077,0.016c-2.574,0.521-4.648,2.424-5.394,4.942c-2.418,8.153-5.301,24.792-1.529,60.123h39.65
				c0.28-3.54-0.51-15.059,0.07-29.73C258.438,179.814,260.427,167.768,261.644,160.938z"/>
			<path style="opacity:0.3;" d="M261.262,163.122c-0.823,4.742-1.837,11.185-2.536,17.967c0,0-3.617-7.098-4.276-13.171
				C253.792,161.846,258.964,161.419,261.262,163.122z"/>
			<g style="opacity:0.2;">
				<g>
					<path style="fill:#FFFFFF;" d="M234.668,164.057c-0.136,0-0.267-0.074-0.333-0.202c-0.096-0.184-0.024-0.411,0.16-0.506
						l12.36-6.409c0.186-0.095,0.411-0.023,0.506,0.16c0.096,0.184,0.023,0.411-0.16,0.506l-12.36,6.409
						C234.785,164.044,234.727,164.057,234.668,164.057z"/>
					<path style="fill:#FFFFFF;" d="M240.33,164.643c-0.096,0-0.191-0.036-0.265-0.109l-6.771-6.738
						c-0.146-0.146-0.147-0.383-0.001-0.53c0.146-0.147,0.383-0.148,0.53-0.001l6.771,6.738c0.146,0.146,0.148,0.383,0.001,0.53
						C240.523,164.606,240.427,164.643,240.33,164.643z"/>
				</g>
				<path style="fill:#FFFFFF;" d="M249.262,154.58c-5.06-0.24-12.39-0.4-16.84,0c-0.09,0.01-0.19,0.02-0.28,0.03
					c-0.16,0.66-0.31,1.89,0.43,3.07c0.94,1.5,2.91,2.34,5.87,2.5c0.38,0.02,0.75,0.03,1.11,0.03c8.05,0,11.09-4.86,11.22-5.07
					l0.28-0.45C250.452,154.65,249.862,154.61,249.262,154.58z"/>
			</g>
			<path style="fill:#FF8B7B;" d="M233.217,154.522c4.9-1.16,5.76-4.19,5.43-7.52c-0.07-0.81-0.21-1.65-0.39-2.48l6.14-5.1
				l4.51-3.74c-1.25,5.43-2.66,15.32,1.01,18.94c0,0-3.038,5.008-11.424,4.555C231.409,158.794,233.217,154.522,233.217,154.522z"/>
			<path style="opacity:0.2;" d="M238.257,144.522c0.18,0.83,0.32,1.67,0.39,2.48c2.29-0.46,5.35-2.9,5.67-5.24
				c0.12-0.88,0.14-1.73,0.08-2.34L238.257,144.522z"/>
			<path style="fill:#263238;" d="M234.973,118.5c-3.333,1.958-2.802,7.003-3.708,10.583c2.125,0.208,5.464-3.56,5.464-3.56
				l1.995-5.731L234.973,118.5z"/>
			<path style="fill:#FF8B7B;" d="M252.713,128.559c-2.13,7.064-3.016,11.293-7.52,14.237c-6.774,4.429-14.891-0.622-14.924-8.104
				c-0.03-6.734,3.459-17.154,11.18-18.592C249.056,114.683,254.844,121.495,252.713,128.559z"/>
			<path style="fill:#263238;" d="M246.057,134.551c4.995-5.801-1.251-8.662,3.86-12.69c-5.75,0.271-15.217-0.139-16.906-4.083
				c-1.69-3.945,3.51-9.278,7.838-9.778c5.035-0.582,3.917,5.611,3.917,5.611s19.139-1.194,13.063,6.945
				c4.604-0.278,3.337,7.167-4.668,13.444C251.154,134.722,246.057,134.551,246.057,134.551z"/>
			<path style="fill:#263238;" d="M256.682,120.708c0,0,3.941-1.167,3.804-4.292C261.911,117.396,262.057,120.375,256.682,120.708z"
				/>
			<path style="fill:#FF8B7B;" d="M253.879,135.929c-1.272,1.563-3.037,2.496-4.545,2.77c-2.269,0.413-2.804-1.688-1.671-3.735
				c1.02-1.842,3.43-4.277,5.466-3.762C255.135,131.711,255.334,134.142,253.879,135.929z"/>
			<path style="fill:#263238;" d="M241.318,128.376c-0.137,0.582-0.56,0.992-0.943,0.916c-0.383-0.077-0.583-0.611-0.445-1.193
				c0.137-0.582,0.56-0.992,0.943-0.916C241.256,127.26,241.455,127.794,241.318,128.376z"/>
			<path style="fill:#263238;" d="M234.69,127.052c-0.137,0.582-0.56,0.992-0.943,0.916c-0.383-0.077-0.583-0.611-0.445-1.193
				c0.137-0.582,0.56-0.992,0.943-0.916C234.628,125.936,234.827,126.47,234.69,127.052z"/>
			<path style="fill:#FF5652;" d="M236.729,127.763c0,0-2.126,3.093-3.977,4.421c0.81,1.169,2.678,1.082,2.678,1.082
				L236.729,127.763z"/>
			<path style="fill:#263238;" d="M237.455,135.312c2.349,0.185,3.777-1.175,3.842-1.239c0.07-0.068,0.071-0.179,0.003-0.248
				c-0.067-0.07-0.179-0.071-0.248-0.003c-0.016,0.015-1.641,1.567-4.219,1.049c-0.096-0.02-0.188,0.042-0.206,0.138
				c-0.019,0.095,0.042,0.188,0.138,0.206C237.003,135.264,237.233,135.295,237.455,135.312z"/>
			<path style="fill:#263238;" d="M243.877,126.764c0.057,0.005,0.116-0.005,0.173-0.031c0.176-0.081,0.255-0.289,0.174-0.465
				c-0.797-1.746-2.411-1.971-2.478-1.979c-0.179-0.041-0.368,0.111-0.393,0.304c-0.025,0.192,0.111,0.368,0.303,0.393
				c0.067,0.01,1.303,0.203,1.929,1.575C243.64,126.68,243.754,126.754,243.877,126.764z"/>
			<path style="fill:#263238;" d="M233.048,123.072c0.107,0.034,0.228,0.017,0.324-0.057c1.261-0.98,2.512-0.602,2.524-0.598
				c0.185,0.059,0.383-0.044,0.441-0.229c0.058-0.184-0.044-0.381-0.227-0.44c0,0-0.001-0.001-0.002-0.001
				c-0.066-0.021-1.618-0.491-3.166,0.713c-0.153,0.119-0.181,0.34-0.062,0.493C232.923,123.011,232.983,123.051,233.048,123.072z"
				/>
			<path style="fill:#263238;" d="M262.028,158.085l0.836,1.137l0.749,1.063c0.494,0.706,0.946,1.419,1.413,2.13
				c0.916,1.422,1.77,2.873,2.606,4.331c1.652,2.926,3.175,5.919,4.518,9.002c0.699,1.527,1.306,3.101,1.944,4.656
				c0.562,1.593,1.176,3.158,1.669,4.779c1.092,3.195,1.878,6.51,2.6,9.827l0.082,0.377c0.307,1.407,0.005,2.818-0.717,3.941
				c-1.257,1.941-2.79,3.767-4.549,5.393c-1.745,1.637-3.804,2.995-5.979,4.027c-2.188,1.022-4.529,1.658-6.862,1.901
				c-1.168,0.122-2.336,0.136-3.494,0.064c-0.581-0.044-1.159-0.112-1.74-0.203c-0.291-0.048-0.582-0.107-0.88-0.172l-1.006-0.244
				c-0.248-0.06-0.4-0.31-0.34-0.557l1.383-5.797c0.011-0.046,0.264-0.061,0.42-0.099l0.552-0.112
				c0.374-0.076,0.752-0.167,1.125-0.272c0.748-0.197,1.477-0.461,2.175-0.751c1.394-0.594,2.672-1.327,3.785-2.234
				c2.256-1.767,3.935-4.12,5.265-6.847l-0.635,4.318c-0.858-2.827-1.764-5.637-2.872-8.398c-1.08-2.765-2.291-5.491-3.605-8.173
				c-1.317-2.679-2.709-5.331-4.218-7.908c-0.742-1.295-1.526-2.563-2.302-3.825l-1.19-1.855l-0.592-0.903l-0.545-0.801l-0.2-0.294
				c-2.018-2.966-1.248-7.006,1.718-9.024C256.038,154.59,259.967,155.288,262.028,158.085z"/>
			<path style="fill:#FF8B7B;" d="M248.784,209.478l-2.159,3.525l9.338-0.377c0,0,2.444-6.279-0.898-7.27l-1.29,0.358
				C251.695,206.292,249.912,207.637,248.784,209.478z"/>
			<path style="fill:#407BFF;" d="M252.619,204.548c-0.57,0.383-1.168,0.929-1.702,1.711c2.539,1.378,6.084,6.083,6.084,6.083
				l0.816-2.581c0.214-0.676,0.117-1.413-0.265-2.011l-1.594-2.493C255.238,204.13,253.73,203.802,252.619,204.548z"/>
			<polygon style="fill:#FF8B7B;" points="247.447,218.421 255.142,217.739 255.964,212.626 246.625,213.004 			"/>
		</g>
	</g>
</g>
<g id="Clock">
	<g>
		<path style="fill:#407BFF;" d="M153.057,96.337l-0.51-0.86c1.463-0.867,3.002-1.631,4.576-2.273l0.377,0.926
			C155.972,94.752,154.477,95.495,153.057,96.337z"/>
		<path style="fill:#407BFF;" d="M138.455,113.949l-0.941-0.34c2.366-6.544,6.605-12.183,12.259-16.305l0.59,0.808
			C144.87,102.116,140.752,107.592,138.455,113.949z"/>
		<circle style="fill:#407BFF;" cx="170.198" cy="125.39" r="30.778"/>
		<path style="opacity:0.6;fill:#FFFFFF;" d="M195.91,125.388c0,14.208-11.507,25.715-25.715,25.715
			c-6.729,0-12.858-2.585-17.44-6.821c-5.09-4.697-8.275-11.426-8.275-18.894c0-14.196,11.519-25.715,25.715-25.715
			c7.525,0,14.288,3.232,18.998,8.379c0.012,0,0.035,0.012,0.046,0.046C193.383,112.669,195.91,118.728,195.91,125.388z"/>
		<path style="fill:#FFFFFF;" d="M195.91,125.388c0,14.208-11.507,25.715-25.715,25.715c-6.729,0-12.858-2.585-17.44-6.821
			c-4.236-4.582-6.833-10.722-6.833-17.451c0-14.196,11.519-25.715,25.715-25.715c6.798,0,12.95,2.62,17.555,6.937
			c0.012,0,0.035,0.012,0.046,0.046C193.383,112.669,195.91,118.728,195.91,125.388z"/>
		<path style="fill:#263238;" d="M170.198,126.89c-0.384,0-0.768-0.146-1.061-0.439l-12.54-12.54c-0.586-0.585-0.586-1.535,0-2.121
			c0.586-0.586,1.535-0.586,2.121,0l11.479,11.479l6.631-6.631c0.586-0.586,1.535-0.586,2.121,0c0.586,0.585,0.586,1.536,0,2.121
			l-7.691,7.691C170.966,126.743,170.582,126.89,170.198,126.89z"/>
	</g>
</g>
</svg>
