<?xml version="1.0" encoding="utf-8"?>
<!-- Generator: Adobe Illustrator 27.5.0, SVG Export Plug-In . SVG Version: 6.00 Build 0)  -->
<svg version="1.1" xmlns="http://www.w3.org/2000/svg" xmlns:xlink="http://www.w3.org/1999/xlink" x="0px" y="0px"
	 viewBox="0 0 500 500" style="enable-background:new 0 0 500 500;" xml:space="preserve">
<g id="Background_Complete">
	<g>
		<rect y="382.398" style="fill:#EBEBEB;" width="500" height="0.25"/>
		<rect x="416.779" y="398.494" style="fill:#EBEBEB;" width="33.122" height="0.25"/>
		<rect x="322.527" y="401.208" style="fill:#EBEBEB;" width="8.693" height="0.25"/>
		<rect x="396.586" y="389.208" style="fill:#EBEBEB;" width="19.192" height="0.25"/>
		<rect x="52.459" y="390.888" style="fill:#EBEBEB;" width="43.193" height="0.25"/>
		<rect x="104.556" y="390.888" style="fill:#EBEBEB;" width="6.333" height="0.25"/>
		<rect x="131.471" y="395.111" style="fill:#EBEBEB;" width="93.676" height="0.25"/>
		<path style="fill:#EBEBEB;" d="M237.014,337.8H43.915c-3.147,0-5.708-2.561-5.708-5.708V60.66c0-3.147,2.561-5.708,5.708-5.708
			h193.099c3.146,0,5.707,2.561,5.707,5.708v271.432C242.721,335.239,240.16,337.8,237.014,337.8z M43.915,55.203
			c-3.01,0-5.458,2.448-5.458,5.458v271.432c0,3.01,2.448,5.458,5.458,5.458h193.099c3.009,0,5.457-2.448,5.457-5.458V60.66
			c0-3.009-2.448-5.458-5.457-5.458H43.915z"/>
		<path style="fill:#EBEBEB;" d="M453.31,337.8H260.212c-3.147,0-5.707-2.561-5.707-5.708V60.66c0-3.147,2.561-5.708,5.707-5.708
			H453.31c3.148,0,5.708,2.561,5.708,5.708v271.432C459.019,335.239,456.458,337.8,453.31,337.8z M260.212,55.203
			c-3.009,0-5.457,2.448-5.457,5.458v271.432c0,3.01,2.448,5.458,5.457,5.458H453.31c3.01,0,5.458-2.448,5.458-5.458V60.66
			c0-3.009-2.448-5.458-5.458-5.458H260.212z"/>
	</g>
	<g>
		<circle style="fill:#F5F5F5;" cx="384.155" cy="110.956" r="25.512"/>
		<path style="fill:#EBEBEB;" d="M373.226,200.975c0-3.287-2.665-5.952-5.952-5.952c-0.594,0-1.167,0.09-1.709,0.252
			c0.087-0.597,0.134-1.207,0.134-1.827c0-6.962-5.643-12.605-12.605-12.605c-0.793,0-1.569,0.077-2.322,0.217
			c-1.937-3.171-5.42-5.294-9.407-5.294c-6.036,0-10.931,4.849-11.021,10.863c-0.062-0.001-0.122-0.009-0.184-0.009
			c-5.608,0-10.154,4.546-10.154,10.154s4.546,10.154,10.154,10.154h37.289l-0.008-0.008
			C370.651,206.829,373.226,204.206,373.226,200.975z"/>
		<path style="fill:#EBEBEB;" d="M306.256,250.736c0-3.287-2.665-5.952-5.952-5.952c-0.594,0-1.167,0.09-1.709,0.252
			c0.087-0.597,0.133-1.207,0.133-1.828c0-6.961-5.643-12.605-12.605-12.605c-0.793,0-1.569,0.077-2.322,0.217
			c-1.937-3.171-5.42-5.294-9.408-5.294c-6.035,0-10.931,4.85-11.021,10.863c-0.062-0.001-0.122-0.009-0.184-0.009
			c-5.608,0-10.154,4.546-10.154,10.154c0,5.608,4.546,10.154,10.154,10.154h37.289l-0.008-0.008
			C303.681,256.59,306.256,253.966,306.256,250.736z"/>
		<path style="fill:#EBEBEB;" d="M380.093,95.072c0-3.287-2.665-5.952-5.952-5.952c-0.594,0-1.167,0.09-1.709,0.252
			c0.087-0.597,0.134-1.207,0.134-1.828c0-6.961-5.643-12.605-12.605-12.605c-0.794,0-1.569,0.077-2.322,0.217
			c-1.937-3.171-5.42-5.294-9.408-5.294c-6.035,0-10.931,4.849-11.021,10.863c-0.062-0.001-0.122-0.009-0.183-0.009
			c-5.608,0-10.154,4.546-10.154,10.154c0,5.608,4.546,10.154,10.154,10.154h37.289l-0.008-0.008
			C377.518,100.926,380.093,98.303,380.093,95.072z"/>
		<path style="fill:#EBEBEB;" d="M425.698,246.927c0-1.987-1.611-3.598-3.598-3.598c-0.359,0-0.706,0.054-1.033,0.152
			c0.052-0.361,0.081-0.729,0.081-1.105c0-4.207-3.411-7.618-7.618-7.618c-0.48,0-0.948,0.046-1.403,0.131
			c-1.171-1.916-3.276-3.2-5.686-3.2c-3.648,0-6.607,2.931-6.661,6.566c-0.037-0.001-0.073-0.006-0.111-0.006
			c-3.389,0-6.137,2.748-6.137,6.137c0,3.389,2.748,6.137,6.137,6.137h22.538l-0.005-0.005
			C424.141,250.465,425.698,248.879,425.698,246.927z"/>
		<path style="fill:#EBEBEB;" d="M431.862,134.039c0-1.987-1.611-3.597-3.598-3.597c-0.359,0-0.706,0.054-1.033,0.152
			c0.052-0.361,0.081-0.729,0.081-1.105c0-4.207-3.411-7.618-7.618-7.618c-0.479,0-0.948,0.046-1.403,0.131
			c-1.171-1.916-3.276-3.2-5.686-3.2c-3.648,0-6.607,2.931-6.661,6.566c-0.037-0.001-0.073-0.006-0.111-0.006
			c-3.389,0-6.137,2.748-6.137,6.137c0,3.389,2.748,6.137,6.137,6.137h22.538l-0.005-0.005
			C430.305,137.578,431.862,135.992,431.862,134.039z"/>
		<polygon style="fill:#EBEBEB;" points="321.989,302.873 334.659,360.42 336.962,359.34 323.656,302.547 		"/>
		<path style="fill:#E0E0E0;" d="M300.149,312.854c0,0,5.46-9.81,20.257-18.301c0,0,12.04-1.026,25.635,4.9
			c0,0,2.756,4.578-0.376,6.383c-3.132,1.805-5.733-1.824-5.733-1.824s-0.578,5.529-4.665,5.69c-4.086,0.16-5.289-3.865-5.289-3.865
			s-0.402,5.074-5.279,6.357c-4.235,1.114-6.866-2.492-6.866-2.492s-0.843,4.171-4.637,5.374c-3.05,0.967-5.14-1.657-5.14-1.657
			s-0.875,4.526-4.114,4.526C301.167,317.944,300.149,312.854,300.149,312.854z"/>
		<g>
			<g>
				<path style="fill:#E6E6E6;" d="M379.061,367.994c0,0,4.614-71.699,28.309-165.074l-4.808-3.629
					c0,0-20.779,33.737-41.624,164.461L379.061,367.994z"/>
			</g>
			<g>
				<path style="fill:#E0E0E0;" d="M413.476,181.176c11.145-6.204,26.095,6.031,27.001,23.527c0,0-1.754-1.266-4.717-2.674
					c-0.51-4.42-1.025-8.34-1.025-8.34v7.871c-0.911-0.403-1.91-0.805-2.994-1.185l-0.431-4.268l-0.632,3.909
					c-1.395-0.446-2.91-0.838-4.517-1.14l-1.098-12.44l-1.904,12.008c-1.521-0.152-3.104-0.207-4.737-0.132l-0.612-8.455
					l-0.627,8.532c-1.325,0.114-2.681,0.325-4.056,0.633l-0.555-12.585c0,0-0.464,7.021-0.974,12.965
					c-3.498,0.975-7.11,2.649-10.713,5.303v-1.545C400.886,203.159,403.304,186.839,413.476,181.176z"/>
				<path style="fill:#E0E0E0;" d="M399.175,174.541c-7.76-10.123-26.342-4.839-34.129,10.855c0,0,2.112-0.465,5.391-0.579
					c2.225-3.854,4.256-7.245,4.256-7.245l-3.129,7.222c0.996-0.007,2.072,0.021,3.219,0.103l2.092-3.745l-0.974,3.838
					c1.457,0.146,3.004,0.388,4.598,0.749l5.952-10.978l-3.027,11.775c1.456,0.465,2.93,1.044,4.399,1.762l3.923-7.515l-2.816,8.078
					c1.171,0.631,2.331,1.364,3.47,2.193l5.512-11.327c0,0-2.365,6.627-4.26,12.283c2.822,2.285,5.471,5.257,7.722,9.124
					l0.614-1.417C401.989,199.717,406.258,183.781,399.175,174.541z"/>
				<path style="fill:#E0E0E0;" d="M389.401,196.51c9.067-7.656,14.91,0,14.91,0c-3.24,0.596-6.224,2.427-8.885,4.844l-1.038-1.575
					v2.561c-0.639,0.637-1.257,1.304-1.854,1.993l-1.622-4.554l0.396,6.036c-0.862,1.088-1.672,2.208-2.427,3.329l-0.538-4.441
					l-0.354,5.808c-0.8,1.259-1.527,2.496-2.174,3.665l-0.342-8.096l-0.872,10.376c-1.587,3.105-2.453,5.306-2.453,5.306
					S380.335,204.166,389.401,196.51z"/>
				<path style="fill:#E0E0E0;" d="M410.859,217.691l-1.823,0.881c-0.159-1.363-0.351-2.799-0.584-4.256l1.349-2.091l-1.563,0.816
					c-0.085-0.485-0.175-0.968-0.27-1.451l1.833-4.157l-2.405,1.535c-0.955-3.934-2.283-7.432-4.133-9.19
					c0,0,18.979,7.61,6.487,27.759c0,0-0.111-3.341-0.579-7.749L410.859,217.691z"/>
				<path style="fill:#E0E0E0;" d="M392.992,199.182l-2.684-6.075l0.838,6.186c-0.312,0.029-0.629,0.063-0.951,0.103l-3.664-5.304
					l0.575,5.844c-1.319,0.296-2.702,0.685-4.151,1.199c-1.468,0.52-2.924,1.136-4.352,1.815l-1.592-5.262l0.5,5.796
					c-1.391,0.699-2.748,1.453-4.057,2.236l-0.65-4.585l-0.28,5.15c-1.605,0.992-3.129,2.016-4.535,3.019l0.711-8.169l-1.845,8.991
					c-1.444,1.063-2.742,2.083-3.855,2.992l0.26-5.683l-1.954,7.1c-1.605,1.375-2.529,2.264-2.529,2.264
					c2.216-19.807,10.477-27.139,23.372-28.348c12.895-1.209,21.116,12.684,21.116,12.684S399.487,199.001,392.992,199.182z"/>
				<path style="fill:#E0E0E0;" d="M428.388,226.139l-1.594,5.837c-0.452-1.511-1.079-3.453-1.889-5.623l1.669-8.59l-2.403,6.693
					c-1.192-2.977-2.698-6.234-4.529-9.305l2.247-5.876l-3.263,4.245c-0.532-0.816-1.087-1.613-1.668-2.379l1.305-3.708
					l-1.819,3.046c-0.401-0.503-0.813-0.99-1.236-1.461l1.616-4.954l-2.302,4.218c-1.202-1.246-2.49-2.347-3.867-3.24l2.471-6.022
					c0,0-1.608,2.408-3.579,5.361c-1.93-1.058-4.023-1.71-6.284-1.795c0,0,4.271-5.876,11.524-7.488
					c7.254-1.612,21.559,12.311,12.895,40.106c0,0-0.156-0.659-0.47-1.785L428.388,226.139z"/>
				<path style="fill:#E0E0E0;" d="M420.682,170.367l0.949,3.675c-0.393-0.007-0.842,0.017-1.339,0.093l-1.121-4.775l0.626,4.865
					c-0.803,0.171-1.713,0.481-2.702,1.005l-1.551-6.455l0.682,6.962c-0.336,0.213-0.68,0.451-1.03,0.717l-1.837-6.086l1.245,6.558
					c-1.469,1.224-3.04,2.944-4.65,5.344v-8.728l-1.854,11.779c-1.62,2.928-3.252,6.597-4.834,11.19c0,0,1.047-31.633,8.905-34.655
					c7.858-3.022,11.283,12.492,11.283,12.492s-0.37-0.156-1.028-0.245L420.682,170.367z"/>
				<path style="fill:#E0E0E0;" d="M407.286,204.703l-1.111,5.936l-1.864-5.936l-3.425,4.294l-0.907-4.294l-3.778,2.731
					c0,0,0.987-7.6,3.516-10.925C402.246,193.185,408.875,196.128,407.286,204.703z"/>
			</g>
			<g>
				<path style="fill:#E6E6E6;" d="M353.581,355.791c0,0,7.358-102.456-33.278-204.938l4.898-4.376c0,0,44.475,76.509,48.501,210.72
					L353.581,355.791z"/>
			</g>
			<g>
				<path style="fill:#E0E0E0;" d="M309.314,123.972c-12.695-7.067-29.726,6.871-30.759,26.801c0,0,1.997-1.442,5.374-3.046
					c0.58-5.036,1.168-9.5,1.168-9.5v8.966c1.038-0.459,2.175-0.917,3.411-1.35l0.491-4.861l0.72,4.453
					c1.589-0.508,3.315-0.954,5.145-1.299l1.25-14.171l2.168,13.679c1.732-0.173,3.535-0.235,5.397-0.15l0.698-9.632l0.714,9.719
					c1.51,0.13,3.054,0.37,4.621,0.721l0.633-14.337c0,0,0.529,7.998,1.109,14.769c3.985,1.111,8.099,3.017,12.203,6.041v-1.759
					C323.656,149.014,320.901,130.423,309.314,123.972z"/>
				<path style="fill:#E0E0E0;" d="M325.605,116.414c8.84-11.532,30.008-5.512,38.878,12.365c0,0-2.406-0.529-6.142-0.659
					c-2.534-4.39-4.848-8.253-4.848-8.253l3.564,8.227c-1.134-0.008-2.361,0.023-3.667,0.117l-2.383-4.266l1.11,4.372
					c-1.66,0.166-3.422,0.442-5.237,0.853l-6.781-12.506l3.448,13.413c-1.658,0.53-3.338,1.189-5.011,2.008l-4.469-8.56l3.208,9.202
					c-1.334,0.719-2.655,1.554-3.953,2.498l-6.28-12.904c0,0,2.694,7.549,4.853,13.993c-3.215,2.603-6.232,5.988-8.796,10.394
					l-0.699-1.614C322.399,145.093,317.536,126.939,325.605,116.414z"/>
				<path style="fill:#E0E0E0;" d="M336.738,141.44c-10.328-8.722-16.984,0-16.984,0c3.691,0.679,7.09,2.764,10.121,5.519
					l1.182-1.794v2.918c0.728,0.725,1.432,1.485,2.112,2.27l1.847-5.188l-0.451,6.876c0.982,1.24,1.905,2.515,2.764,3.792
					l0.613-5.059l0.404,6.616c0.911,1.434,1.74,2.843,2.477,4.175l0.39-9.223l0.993,11.82c1.808,3.538,2.794,6.045,2.794,6.045
					S347.066,150.161,336.738,141.44z"/>
				<path style="fill:#E0E0E0;" d="M312.294,165.569l2.077,1.004c0.181-1.553,0.4-3.188,0.665-4.848l-1.537-2.382l1.781,0.93
					c0.097-0.552,0.2-1.103,0.308-1.653l-2.088-4.735l2.74,1.749c1.087-4.482,2.601-8.466,4.708-10.469c0,0-21.62,8.669-7.39,31.621
					c0,0,0.127-3.806,0.659-8.827L312.294,165.569z"/>
				<path style="fill:#E0E0E0;" d="M332.648,144.484l3.058-6.92l-0.954,7.047c0.355,0.033,0.717,0.072,1.084,0.117l4.174-6.042
					l-0.655,6.657c1.502,0.337,3.078,0.781,4.729,1.365c1.672,0.592,3.33,1.294,4.957,2.067l1.814-5.994l-0.569,6.603
					c1.584,0.796,3.13,1.655,4.621,2.547l0.741-5.223l0.319,5.867c1.829,1.13,3.564,2.296,5.166,3.439l-0.81-9.306l2.102,10.242
					c1.645,1.212,3.124,2.373,4.391,3.408l-0.296-6.474l2.226,8.088c1.829,1.567,2.881,2.579,2.881,2.579
					c-2.525-22.563-11.935-30.915-26.624-32.293c-14.689-1.377-24.054,14.449-24.054,14.449S325.25,144.278,332.648,144.484z"/>
				<path style="fill:#E0E0E0;" d="M292.326,175.192l1.815,6.649c0.515-1.721,1.23-3.933,2.152-6.405l-1.902-9.785l2.737,7.624
					c1.358-3.392,3.073-7.102,5.159-10.6l-2.56-6.693l3.717,4.836c0.606-0.93,1.238-1.837,1.9-2.71l-1.486-4.223l2.072,3.47
					c0.456-0.573,0.926-1.128,1.408-1.664l-1.84-5.644l2.623,4.805c1.369-1.42,2.836-2.673,4.405-3.691l-2.815-6.86
					c0,0,1.831,2.744,4.077,6.107c2.199-1.205,4.582-1.947,7.159-2.045c0,0-4.865-6.693-13.128-8.53
					c-8.263-1.836-24.559,14.024-14.689,45.686c0,0,0.177-0.75,0.535-2.034L292.326,175.192z"/>
				<path style="fill:#E0E0E0;" d="M301.105,111.66l-1.081,4.186c0.448-0.008,0.959,0.019,1.525,0.106l1.277-5.44l-0.714,5.542
					c0.915,0.194,1.951,0.548,3.078,1.145l1.767-7.354l-0.777,7.93c0.383,0.243,0.775,0.514,1.174,0.817l2.093-6.933l-1.418,7.47
					c1.673,1.395,3.463,3.354,5.297,6.088v-9.943l2.112,13.418c1.845,3.335,3.705,7.515,5.507,12.747
					c0,0-1.193-36.035-10.144-39.477c-8.951-3.443-12.853,14.23-12.853,14.23s0.421-0.177,1.171-0.279L301.105,111.66z"/>
				<path style="fill:#E0E0E0;" d="M316.365,150.773l1.266,6.762l2.123-6.762l3.902,4.892l1.033-4.892l4.304,3.111
					c0,0-1.124-8.658-4.005-12.445C322.106,137.653,314.555,141.004,316.365,150.773z"/>
			</g>
		</g>
		<path style="fill:#F5F5F5;" d="M414.362,382.555l-3.483-6.093c-7.803-0.425-14.927-4.064-20.203-10.024
			c-2.08-2.349-4.043-4.749-6.22-7.012c-0.189-0.197-0.28-0.308-0.315-0.371c-0.71-0.473-1.471-0.866-2.241-1.236
			c-0.137-0.047-0.593-0.23-1.065-0.404c-0.875-0.321-1.742-0.665-2.607-1.013c-5.467-2.199-10.375-4.747-14.498-9.087
			c-2.259-2.378-4.064-5.151-6.406-7.449c-0.056,0.076-0.517-0.165-0.735-0.349c-0.696-0.08-1.64-0.219-1.765-0.221
			c-0.945-0.015-1.892,0.016-2.836,0.058c-1.349,0.061-2.694,0.171-4.039,0.289c-5.24,7.672-11.87,18.144-14.796,19.53
			c-16.673,7.897-37.89,10.887-55.495,15.723c-1.131,0.311-2.321,0.312-3.483,0.47c-5.266,0.718-11.636,4.468-16.508,7.189H414.362z
			"/>
	</g>
	<g>
		<g>
			
				<rect x="163.556" y="149.877" transform="matrix(-1.836970e-16 1 -1 -1.836970e-16 375.257 -5.923)" style="fill:#E0E0E0;" width="54.069" height="69.58"/>
			
				<rect x="156.764" y="158.597" transform="matrix(-1 -1.224647e-16 1.224647e-16 -1 381.1801 369.3341)" style="fill:#EBEBEB;" width="67.651" height="52.14"/>
			<line style="fill:none;stroke:#E0E0E0;stroke-miterlimit:10;" x1="189.455" y1="168.016" x2="189.455" y2="175.287"/>
			<polyline style="fill:none;stroke:#E0E0E0;stroke-miterlimit:10;" points="172.921,198.693 172.921,175.287 203.611,175.287 
				203.611,188.713 			"/>
			<polyline style="fill:none;stroke:#E0E0E0;stroke-miterlimit:10;" points="195.67,195.859 195.67,188.713 212.541,188.713 
				212.541,196.109 			"/>
			<rect x="181.695" y="165.344" style="fill:#F5F5F5;" width="15.52" height="5.343"/>
			<rect x="196.443" y="178.164" style="fill:#F5F5F5;" width="14.793" height="5.804"/>
			<rect x="190.59" y="192.866" style="fill:#F5F5F5;" width="10.16" height="5.987"/>
			<rect x="207.101" y="193.835" style="fill:#F5F5F5;" width="10.88" height="4.548"/>
			<rect x="165.781" y="179.393" style="fill:#F5F5F5;" width="16.806" height="7.754"/>
			<rect x="167.555" y="195.859" style="fill:#F5F5F5;" width="10.733" height="5.667"/>
			
				<rect x="187.816" y="173.836" transform="matrix(0.7071 0.7071 -0.7071 0.7071 179.5697 -82.5695)" style="fill:#F5F5F5;" width="3.277" height="3.277"/>
			
				<rect x="201.972" y="187.075" transform="matrix(0.7071 0.7071 -0.7071 0.7071 193.0766 -88.7015)" style="fill:#F5F5F5;" width="3.277" height="3.277"/>
		</g>
		<g>
			<circle style="fill:#E0E0E0;" cx="148.527" cy="103.63" r="14.168"/>
			<circle style="fill:#F0F0F0;" cx="148.527" cy="103.63" r="12.046"/>
			
				<polyline style="fill:#F0F0F0;stroke:#E0E0E0;stroke-width:2;stroke-linecap:round;stroke-linejoin:round;stroke-miterlimit:10;" points="
				149.096,95.367 149.096,103.788 154.676,100.63 			"/>
		</g>
		<g>
			
				<rect x="80.593" y="118.42" transform="matrix(-1.836970e-16 1 -1 -1.836970e-16 260.8372 45.5818)" style="fill:#E0E0E0;" width="54.069" height="69.58"/>
			<rect x="73.802" y="127.14" style="fill:#EBEBEB;" width="67.651" height="52.14"/>
			<rect x="79.493" y="133.546" style="fill:#F5F5F5;" width="7.885" height="11.145"/>
			<rect x="89.349" y="136.836" style="fill:#F5F5F5;" width="8.298" height="11.929"/>
			
				<rect x="79.286" y="161.603" transform="matrix(0.9915 0.1304 -0.1304 0.9915 22.5688 -9.4511)" style="fill:#F5F5F5;" width="8.298" height="11.929"/>
			<rect x="100.261" y="161.113" style="fill:#F5F5F5;" width="8.298" height="11.929"/>
			<rect x="90.345" y="159.857" style="fill:#F5F5F5;" width="8.298" height="11.929"/>
			<rect x="117.676" y="134.357" style="fill:#F5F5F5;" width="5.15" height="5.15"/>
			
				<rect x="124.407" y="134.833" transform="matrix(0.9339 0.3574 -0.3574 0.9339 57.5018 -36.3098)" style="fill:#F5F5F5;" width="5.15" height="5.15"/>
			<circle style="fill:#E0E0E0;" cx="119.949" cy="135.008" r="0.302"/>
			<circle style="fill:#E0E0E0;" cx="125.878" cy="135.008" r="0.302"/>
			<path style="fill:#E0E0E0;" d="M93.8,137.711c0,0.167-0.135,0.302-0.302,0.302c-0.167,0-0.302-0.135-0.302-0.302
				c0-0.167,0.135-0.302,0.302-0.302C93.664,137.409,93.8,137.544,93.8,137.711z"/>
			<path style="fill:#E0E0E0;" d="M83.737,134.357c0,0.167-0.135,0.302-0.302,0.302c-0.167,0-0.302-0.135-0.302-0.302
				c0-0.167,0.135-0.302,0.302-0.302C83.602,134.055,83.737,134.19,83.737,134.357z"/>
			<circle style="fill:#E0E0E0;" cx="80.606" cy="161.968" r="0.302"/>
			<path style="fill:#E0E0E0;" d="M94.796,160.538c0,0.167-0.135,0.302-0.302,0.302c-0.167,0-0.302-0.135-0.302-0.302
				c0-0.167,0.135-0.302,0.302-0.302C94.661,160.236,94.796,160.371,94.796,160.538z"/>
			<path style="fill:#E0E0E0;" d="M104.712,161.666c0,0.167-0.135,0.302-0.302,0.302c-0.167,0-0.302-0.135-0.302-0.302
				c0-0.167,0.135-0.302,0.302-0.302C104.577,161.364,104.712,161.5,104.712,161.666z"/>
			<rect x="119.647" y="150.475" style="fill:#E0E0E0;" width="16.532" height="10.364"/>
			<rect x="116.086" y="162.27" style="fill:#E0E0E0;" width="14.434" height="11.393"/>
		</g>
		<g>
			<path style="fill:#E0E0E0;" d="M114.319,346.638c0,0-7.063-15.41,1.007-30.601c8.07-15.191,10.409-18.769,5.265-21.882
				c-5.144-3.112-7.504,12.152-7.504,12.152s-4.336-10.501-0.756-21.492c3.581-10.99,5.826-28.89,0.936-30.81
				c-4.89-1.92-0.933,22.331-5.176,30.597c0,0-3.564-9.202-4.15-18.029c-0.586-8.827,0.329-22.923-3.532-26.538
				c-3.861-3.616-6.335-1.114-2.54,18.366c3.795,19.48,3.767,35.315,3.767,35.315s-8.381-25.554-14.006-26.299
				c-5.625-0.745-5.618,7.53-0.803,14.708c4.815,7.178,14.1,20.036,15.623,26.653c0,0-9.199-19.23-17.475-13.336
				c-8.275,5.894,7.203,17.509,14.101,21.706c6.899,4.197,11.689,30.507,11.689,30.507L114.319,346.638z"/>
			<path style="fill:#EBEBEB;" d="M108.744,352.958c0,0,6.877-15.514-1.374-30.583c-8.251-15.069-10.633-18.612-5.527-21.801
				c5.106-3.189,7.649,12.039,7.649,12.039s4.21-10.565,0.498-21.501c-3.712-10.936-6.172-28.801-1.305-30.794
				c4.866-1.993,1.201,22.315,5.542,30.517c0,0,3.453-9.255,3.933-18.09c0.48-8.835-0.604-22.916,3.213-26.589
				c3.817-3.673,6.321-1.208,2.76,18.327c-3.561,19.535-3.343,35.369-3.343,35.369s8.074-25.676,13.689-26.505
				c5.615-0.829,5.708,7.446,0.979,14.694c-4.728,7.249-13.858,20.245-15.302,26.883c0,0,8.968-19.366,17.313-13.596
				c8.345,5.77-6.992,17.615-13.84,21.915c-6.848,4.299-11.322,30.678-11.322,30.678L108.744,352.958z"/>
			<g>
				<polygon style="fill:#EBEBEB;" points="140.464,341.899 83.65,341.899 88.248,382.555 135.866,382.555 				"/>
			</g>
		</g>
	</g>
</g>
<g id="Background_Simple" style="display:none;">
	<g style="display:inline;">
		<path style="fill:#407BFF;" d="M89.614,192.121c-4.651,12.928,0.178,24.877,15.564,27.379c23.578,3.833,46.15-3.534,69.486-3.724
			c5.988-0.049,12.21,1.542,16.642,5.57c22.426,20.386-25.685,34.844-36.209,42.6c-4.193,3.091-8.283,6.607-10.619,11.263
			c-6.452,12.864,3.386,25.586,15.833,28.462c14.214,3.284,28.757-1.1,43.053-0.531c4.218,0.168,8.588,1.804,11.063,5.224
			c6.355,8.785-2.969,23.101-10.967,27.375c-9.206,4.92-20.333,5.062-30.51,5.608c-18.219,0.977-37.146,3.48-53.141,12.885
			c-4.887,2.873-9.563,6.531-12.13,11.585c-9.582,18.868,13.924,31.994,29.298,33.581c17.668,1.824,35.346-5.738,50.61-13.817
			c25.638-13.571,53.127-30.067,83.195-28.691c26.109,1.195,53.397,0.724,78.453-7.561c14.726-4.869,30.827-11.807,41.249-23.789
			c4.557-5.239,7.749-11.985,7.426-18.921c-0.688-14.738-14.133-22.275-22.932-32.191c-12.542-14.135-9.405-30.626,1.43-45.209
			c11.503-15.484,26.728-28.741,34.685-46.712c3.229-7.293,3.944-16.475-1.001-22.735c-15.866-20.081-54.262-3.998-75.187-7.396
			c-13.099-2.127-21.414-9.878-29.484-19.743c-9.15-11.186-18.652-17.736-33.29-20.353c-19.815-3.542-40.437,0.917-59.628,5.803
			c-41.949,10.682-100.294,28.223-121.241,70.199C90.621,189.566,90.072,190.848,89.614,192.121z"/>
		<path style="opacity:0.9;fill:#FFFFFF;" d="M89.614,192.121c-4.651,12.928,0.178,24.877,15.564,27.379
			c23.578,3.833,46.15-3.534,69.486-3.724c5.988-0.049,12.21,1.542,16.642,5.57c22.426,20.386-25.685,34.844-36.209,42.6
			c-4.193,3.091-8.283,6.607-10.619,11.263c-6.452,12.864,3.386,25.586,15.833,28.462c14.214,3.284,28.757-1.1,43.053-0.531
			c4.218,0.168,8.588,1.804,11.063,5.224c6.355,8.785-2.969,23.101-10.967,27.375c-9.206,4.92-20.333,5.062-30.51,5.608
			c-18.219,0.977-37.146,3.48-53.141,12.885c-4.887,2.873-9.563,6.531-12.13,11.585c-9.582,18.868,13.924,31.994,29.298,33.581
			c17.668,1.824,35.346-5.738,50.61-13.817c25.638-13.571,53.127-30.067,83.195-28.691c26.109,1.195,53.397,0.724,78.453-7.561
			c14.726-4.869,30.827-11.807,41.249-23.789c4.557-5.239,7.749-11.985,7.426-18.921c-0.688-14.738-14.133-22.275-22.932-32.191
			c-12.542-14.135-9.405-30.626,1.43-45.209c11.503-15.484,26.728-28.741,34.685-46.712c3.229-7.293,3.944-16.475-1.001-22.735
			c-15.866-20.081-54.262-3.998-75.187-7.396c-13.099-2.127-21.414-9.878-29.484-19.743c-9.15-11.186-18.652-17.736-33.29-20.353
			c-19.815-3.542-40.437,0.917-59.628,5.803c-41.949,10.682-100.294,28.223-121.241,70.199
			C90.621,189.566,90.072,190.848,89.614,192.121z"/>
	</g>
</g>
<g id="Shadow_1_">
	<ellipse id="_x3C_Path_x3E__359_" style="fill:#F5F5F5;" cx="250" cy="416.238" rx="193.889" ry="11.323"/>
</g>
<g id="Desk">
	<g>
		<g>
			<path style="fill:#263238;" d="M154.288,280.67c0,2.822,0.788,4.288,0.788,4.288h33.889v-0.804h-0.686v-6.977h0.686v-0.804
				h-33.889C155.077,276.374,154.288,277.887,154.288,280.67z"/>
			<path style="opacity:0.2;fill:#FFFFFF;enable-background:new    ;" d="M154.288,280.67c0,2.822,0.788,4.288,0.788,4.288h33.889
				v-0.804h-0.686v-6.977h0.686v-0.804h-33.889C155.077,276.374,154.288,277.887,154.288,280.67z"/>
			<path style="opacity:0.2;enable-background:new    ;" d="M172.42,280.67c0,2.822,0.788,4.288,0.788,4.288h15.758v-0.804h-0.686
				v-6.977h0.686v-0.804h-15.758C173.208,276.374,172.42,277.887,172.42,280.67z"/>
			<path style="opacity:0.8;fill:#FFFFFF;enable-background:new    ;" d="M174.091,280.67c0,2.294,0.639,3.484,0.639,3.484h13.551
				v-6.977h-13.551C174.729,277.178,174.091,278.408,174.091,280.67z"/>
			<path style="opacity:0.6;fill:#FFFFFF;enable-background:new    ;" d="M159.807,280.67c0,2.822,0.788,4.288,0.788,4.288h6.306
				c0,0-0.788-1.466-0.788-4.288c0-2.783,0.788-4.296,0.788-4.296h-6.306C160.595,276.374,159.807,277.887,159.807,280.67z"/>
		</g>
		<g>
			<path style="fill:#407BFF;" d="M151.268,272.086c0,2.822,0.788,4.288,0.788,4.288h33.889v-0.804h-0.686v-6.977h0.686v-0.804
				h-33.889C152.057,267.789,151.268,269.303,151.268,272.086z"/>
			<path style="opacity:0.2;enable-background:new    ;" d="M169.399,272.086c0,2.822,0.788,4.288,0.788,4.288h15.758v-0.804h-0.686
				v-6.977h0.686v-0.804h-15.758C170.188,267.789,169.399,269.303,169.399,272.086z"/>
			<path style="opacity:0.8;fill:#FFFFFF;enable-background:new    ;" d="M171.07,272.086c0,2.294,0.639,3.484,0.639,3.484h13.551
				v-6.977h-13.551C171.709,268.593,171.07,269.823,171.07,272.086z"/>
			<path style="opacity:0.2;enable-background:new    ;" d="M156.786,272.086c0,2.822,0.788,4.288,0.788,4.288h6.307
				c0,0-0.788-1.466-0.788-4.288c0-2.783,0.788-4.296,0.788-4.296h-6.307C157.575,267.789,156.786,269.303,156.786,272.086z"/>
		</g>
		<g>
			<polygon style="fill:#263238;" points="111.277,251.533 121.408,251.533 118.707,280.537 134.727,282.942 134.727,284.962 
				100.987,284.962 100.987,282.942 107.899,280.537 			"/>
			<path style="fill:#263238;" d="M150.6,269.941c0.178,1.945-1.244,3.524-3.178,3.524h-61.32c-1.945,0-3.662-1.579-3.84-3.524
				l-3.642-39.258c-0.04-0.405-0.01-0.79,0.079-1.145c0.345-1.382,1.56-2.379,3.099-2.379h61.32c1.945,0,3.662,1.579,3.84,3.524
				L150.6,269.941z"/>
			<path style="opacity:0.3;fill:#FFFFFF;enable-background:new    ;" d="M86.102,271.491c-0.93,0-1.789-0.792-1.874-1.729
				l-3.643-39.26c-0.017-0.18-0.008-0.339,0.028-0.482c0.136-0.547,0.59-0.885,1.184-0.885h61.32c0.93,0,1.788,0.792,1.874,1.73
				l3.643,39.26c0.035,0.387-0.072,0.74-0.303,0.993c-0.156,0.171-0.441,0.375-0.91,0.375H86.102z"/>
		</g>
		<g>
			<polygon style="fill:#263238;" points="121.309,284.962 122.087,282.022 154.054,282.022 168.774,283.492 169.335,284.962 			"/>
		</g>
		<g>
			<polygon style="fill:#407BFF;" points="99.512,285.715 99.512,282.335 101.782,282.335 99.512,281.016 101.214,281.016 
				98.945,279.532 96.797,279.532 96.797,277.83 99.289,277.83 96.797,276.837 96.797,273.151 99.289,273.151 99.289,270.738 
				101.782,270.738 99.289,269.902 99.289,268.186 101.072,268.186 99.613,266.727 98.35,265.464 59.718,265.464 59.718,267.193 
				57.165,267.193 60.001,268.469 60.001,269.902 54.79,269.902 54.79,272.564 52.485,272.564 54.79,273.717 54.79,276.695 
				56.428,276.695 56.428,278.113 59.718,278.113 59.718,282.335 57.874,282.335 59.382,283.843 59.382,285.731 			"/>
			<polygon style="opacity:0.7;fill:#FFFFFF;enable-background:new    ;" points="99.512,285.715 99.512,282.335 101.782,282.335 
				99.512,281.016 101.214,281.016 98.945,279.532 96.797,279.532 96.797,277.83 99.289,277.83 96.797,276.837 96.797,273.151 
				99.289,273.151 99.289,270.738 101.782,270.738 99.289,269.902 99.289,268.186 101.072,268.186 99.613,266.727 98.35,265.464 
				59.718,265.464 59.718,267.193 57.165,267.193 60.001,268.469 60.001,269.902 54.79,269.902 54.79,272.564 52.485,272.564 
				54.79,273.717 54.79,276.695 56.428,276.695 56.428,278.113 59.718,278.113 59.718,282.335 57.874,282.335 59.382,283.843 
				59.382,285.731 			"/>
			<polygon style="opacity:0.1;enable-background:new    ;" points="99.512,285.715 99.512,282.335 101.782,282.335 99.512,281.016 
				101.214,281.016 98.945,279.532 96.797,279.532 96.797,277.83 99.289,277.83 96.797,276.837 96.797,273.151 99.289,273.151 
				99.289,270.738 101.782,270.738 99.289,269.902 99.289,268.186 101.072,268.186 99.613,266.727 98.35,265.464 78.002,265.464 
				78.002,267.193 75.449,267.193 78.285,268.469 78.285,269.902 73.073,269.902 73.073,272.564 70.769,272.564 73.073,273.717 
				73.073,276.695 74.712,276.695 74.712,278.113 78.002,278.113 78.002,282.335 76.158,282.335 77.666,283.843 77.666,285.731 			
				"/>
			<polygon style="opacity:0.1;enable-background:new    ;" points="60.001,269.902 78.285,269.902 60.001,269.239 			"/>
			<polygon style="opacity:0.1;enable-background:new    ;" points="59.718,278.113 78.002,278.113 78.081,279.39 			"/>
			<polygon style="opacity:0.1;enable-background:new    ;" points="56.428,276.695 74.712,276.695 56.428,277.333 			"/>
			<polygon style="opacity:0.1;enable-background:new    ;" points="59.718,282.335 78.002,282.335 59.718,281.659 			"/>
			<polygon style="opacity:0.1;enable-background:new    ;" points="59.382,283.843 77.666,283.843 77.666,284.54 			"/>
			<polygon style="opacity:0.1;enable-background:new    ;" points="54.79,272.564 73.073,272.564 54.79,271.977 			"/>
			<polygon style="opacity:0.1;enable-background:new    ;" points="59.718,267.193 78.002,267.193 59.718,266.555 			"/>
			<polygon style="opacity:0.1;enable-background:new    ;" points="99.289,268.186 80.744,268.186 99.289,268.753 			"/>
			<polygon style="opacity:0.1;enable-background:new    ;" points="78.285,269.902 99.289,269.902 80.247,270.526 			"/>
			<polygon style="opacity:0.1;enable-background:new    ;" points="73.073,272.564 99.289,273.151 99.289,272.564 			"/>
			<polygon style="opacity:0.1;enable-background:new    ;" points="73.073,273.717 86.042,273.717 73.073,274.355 			"/>
			<polygon style="opacity:0.1;enable-background:new    ;" points="96.797,276.837 78.002,276.695 96.797,276.27 			"/>
			<polygon style="opacity:0.1;enable-background:new    ;" points="96.797,277.83 77.666,277.83 96.797,278.468 			"/>
			<polygon style="opacity:0.1;enable-background:new    ;" points="99.512,281.016 78.285,281.016 78.285,281.659 			"/>
			<polygon style="opacity:0.1;enable-background:new    ;" points="99.512,282.335 84.131,282.335 99.512,282.758 			"/>
		</g>
		<g>
			<g>
				<polygon style="fill:#263238;" points="116.362,411.413 111.532,411.413 102.855,290.608 109.262,290.608 				"/>
				<polygon style="opacity:0.4;fill:#FFFFFF;enable-background:new    ;" points="116.365,411.413 111.532,411.413 
					103.279,296.608 102.853,290.802 109.262,290.802 109.609,296.608 				"/>
				<polygon style="opacity:0.2;enable-background:new    ;" points="109.609,296.32 103.279,296.32 102.853,290.802 
					109.262,290.802 				"/>
			</g>
			<g>
				<polygon style="fill:#263238;" points="151.803,411.413 146.974,411.413 146.185,290.608 152.592,290.608 				"/>
				<polygon style="opacity:0.5;fill:#FFFFFF;enable-background:new    ;" points="152.595,290.802 152.469,310.293 
					151.807,411.413 146.975,411.413 146.312,310.293 146.186,290.802 				"/>
				<polygon style="opacity:0.2;enable-background:new    ;" points="152.595,290.802 152.469,310.51 146.312,310.51 
					146.186,290.802 				"/>
			</g>
			<g>
				<polygon style="fill:#263238;" points="203.075,411.413 198.246,411.413 189.569,290.608 195.976,290.608 				"/>
				<polygon style="opacity:0.5;fill:#FFFFFF;enable-background:new    ;" points="203.078,411.413 198.246,411.413 
					189.992,296.608 189.567,290.802 195.976,290.802 196.322,296.608 				"/>
				<polygon style="opacity:0.2;enable-background:new    ;" points="196.322,296.32 189.992,296.32 189.567,290.802 
					195.976,290.802 				"/>
			</g>
			<g>
				<polygon style="fill:#263238;" points="61.116,411.413 56.286,411.413 63.386,290.608 69.792,290.608 				"/>
				<polygon style="opacity:0.5;fill:#FFFFFF;enable-background:new    ;" points="69.791,290.802 69.366,296.608 61.112,411.413 
					56.288,411.413 63.036,296.608 63.382,290.802 				"/>
				<polygon style="opacity:0.2;enable-background:new    ;" points="63.382,290.802 69.791,290.802 69.366,296.32 63.036,296.32 
									"/>
			</g>
			<g>
				<path style="fill:#407BFF;" d="M198.892,293.633H60.469c-1.194,0-2.162-0.968-2.162-2.162v-3.889h142.747v3.889
					C201.055,292.665,200.087,293.633,198.892,293.633z"/>
				<path style="opacity:0.6;fill:#FFFFFF;enable-background:new    ;" d="M198.892,293.633H60.469
					c-1.194,0-2.162-0.968-2.162-2.162v-3.889h142.747v3.889C201.055,292.665,200.087,293.633,198.892,293.633z"/>
			</g>
			<rect x="58.307" y="287.582" style="opacity:0.2;enable-background:new    ;" width="142.747" height="3.025"/>
			<g>
				<path style="fill:#407BFF;" d="M204.048,288.371H55.314c-0.941,0-1.705-0.763-1.705-1.704l0,0c0-0.941,0.763-1.704,1.705-1.704
					h148.734c0.941,0,1.704,0.763,1.704,1.704l0,0C205.752,287.608,204.989,288.371,204.048,288.371z"/>
				<path style="opacity:0.6;fill:#FFFFFF;enable-background:new    ;" d="M204.048,288.371H55.314
					c-0.941,0-1.705-0.763-1.705-1.704l0,0c0-0.941,0.763-1.704,1.705-1.704h148.734c0.941,0,1.704,0.763,1.704,1.704l0,0
					C205.752,287.608,204.989,288.371,204.048,288.371z"/>
			</g>
		</g>
	</g>
	<g>
		<path style="fill:#407BFF;" d="M140.383,318.048h61.12c2.761,0,5,2.239,5,5v5.808h-71.12v-5.808
			C135.383,320.287,137.622,318.048,140.383,318.048z"/>
		<path style="opacity:0.3;enable-background:new    ;" d="M140.383,318.048h61.12c2.761,0,5,2.239,5,5v5.808h-71.12v-5.808
			C135.383,320.287,137.622,318.048,140.383,318.048z"/>
		<g>
			<path style="fill:#407BFF;" d="M212.709,276.654h-23.221c-8.055,0-14.584-6.53-14.584-14.584v-7.741
				c0-8.054,6.529-14.584,14.584-14.584h23.221c8.055,0,14.584,6.53,14.584,14.584v7.741
				C227.293,270.125,220.764,276.654,212.709,276.654z"/>
		</g>
		<g style="opacity:0.3;enable-background:new    ;">
			<path d="M212.709,276.654h-23.221c-8.055,0-14.584-6.53-14.584-14.584v-7.741c0-8.054,6.529-14.584,14.584-14.584h23.221
				c8.055,0,14.584,6.53,14.584,14.584v7.741C227.293,270.125,220.764,276.654,212.709,276.654z"/>
		</g>
		<path style="fill:#263238;" d="M203.795,390.386l-26.64-2.618v-37.439h-10.558v37.428l-26.747,2.629
			c-2.655,0.261-4.679,2.494-4.679,5.162v4h35.674h1.957h35.673v-4C208.474,392.88,206.45,390.647,203.795,390.386z"/>
		<path style="opacity:0.2;fill:#FFFFFF;enable-background:new    ;" d="M203.795,390.386l-26.64-2.618v-37.439h-10.558v37.428
			l-26.747,2.629c-2.655,0.261-4.679,2.494-4.679,5.162v4h35.674h1.957h35.673v-4C208.474,392.88,206.45,390.647,203.795,390.386z"
			/>
		<path style="fill:#263238;" d="M144.892,404.51c0,3.812-3.09,6.903-6.903,6.903c-3.812,0-6.903-3.09-6.903-6.903
			c0-3.812,3.09-6.903,6.903-6.903C141.802,397.608,144.892,400.698,144.892,404.51z"/>
		<path style="fill:#263238;" d="M198.752,404.51c0,3.812,3.09,6.903,6.903,6.903c3.812,0,6.903-3.09,6.903-6.903
			c0-3.812-3.09-6.903-6.903-6.903C201.843,397.608,198.752,400.698,198.752,404.51z"/>
		<path style="fill:#263238;" d="M174.84,358.376h-5.928c-2.283,0-4.133-1.85-4.133-4.133V325.03h14.194v29.213
			C178.973,356.526,177.123,358.376,174.84,358.376z"/>
		<path style="opacity:0.3;fill:#FFFFFF;enable-background:new    ;" d="M174.84,358.376h-5.928c-2.283,0-4.133-1.85-4.133-4.133
			V325.03h14.194v29.213C178.973,356.526,177.123,358.376,174.84,358.376z"/>
		<path style="fill:#263238;" d="M197.117,266.51c0,0,2.012,49.925-11.887,58.52h15.869c0,0,12.295-17.008,8.821-58.52H197.117z"/>
		<path style="opacity:0.3;fill:#FFFFFF;enable-background:new    ;" d="M197.117,266.51c0,0,2.012,49.925-11.887,58.52h15.869
			c0,0,12.295-17.008,8.821-58.52H197.117z"/>
		<g>
			<path style="fill:#263238;" d="M134.43,323.452h73.026c1.111,0,2.011,0.901,2.011,2.011v1.381c0,1.111-0.9,2.011-2.011,2.011
				H134.43c-1.111,0-2.011-0.901-2.011-2.011v-1.381C132.419,324.353,133.319,323.452,134.43,323.452z"/>
			<path style="opacity:0.6;fill:#FFFFFF;enable-background:new    ;" d="M134.43,323.452h73.026c1.111,0,2.011,0.901,2.011,2.011
				v1.381c0,1.111-0.9,2.011-2.011,2.011H134.43c-1.111,0-2.011-0.901-2.011-2.011v-1.381
				C132.419,324.353,133.319,323.452,134.43,323.452z"/>
		</g>
		<path style="fill:#263238;" d="M211.272,250.958h-14.363c-4.208,0-7.618,3.411-7.618,7.618v5.617c0,4.208,3.411,7.618,7.618,7.618
			h14.363c4.208,0,7.618-3.411,7.618-7.618v-5.617C218.891,254.369,215.48,250.958,211.272,250.958z"/>
		<path style="opacity:0.2;fill:#FFFFFF;enable-background:new    ;" d="M211.272,250.958h-14.363c-4.208,0-7.618,3.411-7.618,7.618
			v5.617c0,4.208,3.411,7.618,7.618,7.618h14.363c4.208,0,7.618-3.411,7.618-7.618v-5.617
			C218.891,254.369,215.48,250.958,211.272,250.958z"/>
	</g>
</g>
<g id="Sand_castle">
	<g>
		<g>
			<polygon style="fill:#407BFF;" points="431.401,347.597 428.518,347.597 428.383,348.995 425.705,349.016 425.545,347.597 
				422.29,347.597 422.155,348.99 419.477,349.012 419.318,347.597 416.061,347.597 415.927,348.986 413.25,349.007 
				413.091,347.597 409.833,347.597 409.7,348.981 407.022,349.002 406.863,347.597 403.605,347.597 403.472,348.976 
				400.794,348.997 400.637,347.597 397.377,347.597 397.244,348.971 394.566,348.993 394.409,347.597 391.504,347.597 
				387.176,377.364 435.728,377.364 			"/>
			<polygon style="opacity:0.5;fill:#FFFFFF;enable-background:new    ;" points="431.401,347.597 428.518,347.597 428.383,348.995 
				425.705,349.016 425.545,347.597 422.29,347.597 422.155,348.99 419.477,349.012 419.318,347.597 416.061,347.597 
				415.927,348.986 413.25,349.007 413.091,347.597 409.833,347.597 409.7,348.981 407.022,349.002 406.863,347.597 
				403.605,347.597 403.472,348.976 400.794,348.997 400.637,347.597 397.377,347.597 397.244,348.971 394.566,348.993 
				394.409,347.597 391.504,347.597 387.176,377.364 435.728,377.364 			"/>
		</g>
		<g>
			<polygon style="fill:#407BFF;" points="440.628,367.877 436.412,367.877 436.214,369.921 432.298,369.952 432.064,367.877 
				427.303,367.877 427.106,369.914 423.189,369.945 422.956,367.877 418.194,367.877 417.997,369.907 414.081,369.939 
				413.849,367.877 409.084,367.877 408.889,369.901 404.972,369.932 404.741,367.877 399.975,367.877 399.781,369.894 
				395.864,369.925 395.633,367.877 390.866,367.877 390.672,369.887 386.755,369.918 386.525,367.877 382.277,367.877 
				375.947,411.413 446.958,411.413 			"/>
			<polygon style="opacity:0.6;fill:#FFFFFF;enable-background:new    ;" points="440.628,367.877 436.412,367.877 436.214,369.921 
				432.298,369.952 432.064,367.877 427.303,367.877 427.106,369.914 423.189,369.945 422.956,367.877 418.194,367.877 
				417.997,369.907 414.081,369.939 413.849,367.877 409.084,367.877 408.889,369.901 404.972,369.932 404.741,367.877 
				399.975,367.877 399.781,369.894 395.864,369.925 395.633,367.877 390.866,367.877 390.672,369.887 386.755,369.918 
				386.525,367.877 382.277,367.877 375.947,411.413 446.958,411.413 			"/>
		</g>
		<path style="opacity:0.2;enable-background:new    ;" d="M411.452,397.577c-2.622,0-4.747,2.125-4.747,4.747v9.089h9.494v-9.089
			C416.2,399.702,414.074,397.577,411.452,397.577z"/>
		<g>
			<path style="opacity:0.2;enable-background:new    ;" d="M426.172,379.585c-1.311,0-2.374,1.063-2.374,2.374v4.545h4.747v-4.545
				C428.546,380.648,427.483,379.585,426.172,379.585z"/>
			<path style="opacity:0.2;enable-background:new    ;" d="M396.733,379.585c-1.311,0-2.374,1.063-2.374,2.374v4.545h4.747v-4.545
				C399.106,380.648,398.044,379.585,396.733,379.585z"/>
		</g>
		<g>
			<path style="opacity:0.2;enable-background:new    ;" d="M423.673,356.187c-1.311,0-2.374,1.063-2.374,2.374v4.545h4.747v-4.545
				C426.047,357.25,424.984,356.187,423.673,356.187z"/>
			<path style="opacity:0.2;enable-background:new    ;" d="M411.452,356.187c-1.311,0-2.374,1.063-2.374,2.374v4.545h4.747v-4.545
				C413.826,357.25,412.763,356.187,411.452,356.187z"/>
			<path style="opacity:0.2;enable-background:new    ;" d="M399.232,356.187c-1.311,0-2.374,1.063-2.374,2.374v4.545h4.747v-4.545
				C401.605,357.25,400.543,356.187,399.232,356.187z"/>
		</g>
	</g>
</g>
<g id="Ball">
	<g>
		<path style="fill:#407BFF;" d="M331.51,393.213c0,0.08,0,0.14,0.01,0.22v0.01c0.04,3.51,1.07,6.79,2.84,9.55
			c0.15,0.23,0.3,0.46,0.47,0.69c1.05,1.49,2.32,2.82,3.76,3.93c0.33,0.26,0.67,0.51,1.02,0.73h0.01c0.08,0.06,0.17,0.12,0.25,0.16
			c0.11,0.08,0.22,0.14,0.33,0.21c0.17,0.12,0.35,0.22,0.53,0.32c0.28,0.16,0.57,0.32,0.86,0.46h0.01c2.44,1.23,5.19,1.92,8.11,1.92
			c5.18,0,9.86-2.17,13.16-5.64c1.22-1.26,2.25-2.7,3.05-4.27c1.28-2.49,2-5.31,2-8.29v-0.06c0-0.51-0.02-1.02-0.07-1.52
			c-0.2-2.41-0.88-4.68-1.93-6.72c-0.27-0.53-0.56-1.04-0.88-1.53c-1.05-1.63-2.35-3.08-3.84-4.3c-0.48-0.39-0.97-0.75-1.49-1.08
			c-0.18-0.13-0.37-0.25-0.56-0.36c-1.42-0.87-2.96-1.54-4.6-1.99c-0.14-0.04-0.28-0.08-0.42-0.11c-1.41-0.35-2.89-0.54-4.42-0.54
			c-0.47,0-0.93,0.02-1.38,0.06c-0.12,0-0.23,0.01-0.35,0.02h-0.01c-2.07,0.2-4.03,0.74-5.84,1.58c-0.07,0.03-0.15,0.07-0.23,0.11
			c-1.56,0.74-2.99,1.69-4.27,2.82c-3.18,2.83-5.37,6.77-5.96,11.21v0.03C331.56,391.613,331.51,392.403,331.51,393.213z"/>
		<path style="opacity:0.6;fill:#FFFFFF;enable-background:new    ;" d="M331.51,393.213c0,7.13,4.1,13.31,10.08,16.28
			c0.01,0.01,0.01,0,0.01,0c0.72-0.6,1-1.23,1-1.23c-3.36-9.8,0-15.05,0-15.05l-0.01-0.1l-0.24-1.57l-0.05-0.29
			c-0.52-2.91-1.83-8.36-4.67-11.66C333.88,382.923,331.51,387.793,331.51,393.213z"/>
		<path style="opacity:0.6;fill:#FFFFFF;enable-background:new    ;" d="M363.67,390.063c0,0,3.19,3.19,2.25,11.44
			c1.28-2.49,2-5.31,2-8.29c0-5.7-2.62-10.79-6.72-14.13C362.96,382.473,363.89,386.553,363.67,390.063z"/>
		<path style="opacity:0.2;fill:#FFFFFF;enable-background:new    ;" d="M337.63,379.593c4,4.64,4.97,13.62,4.97,13.62
			c10.98,2.69,21.07-3.15,21.07-3.15c0.22-3.51-0.72-7.59-2.47-10.98c-3.14-2.55-7.13-4.08-11.49-4.08
			C345.07,375.003,340.85,376.743,337.63,379.593z"/>
		<path style="opacity:0.2;fill:#FFFFFF;enable-background:new    ;" d="M341.6,409.493c2.44,1.23,5.19,1.92,8.11,1.92
			c5.18,0,9.86-2.17,13.16-5.64c-3.41,2.03-10.38,4.87-20.27,2.49C342.6,408.263,342.32,408.893,341.6,409.493z"/>
		<g style="opacity:0.2;enable-background:new    ;">
			<path d="M341.9,376.773c0.48,0.67,0.91,1.36,1.31,2.08c0.74,1.38,1.38,2.81,1.91,4.28c0.56,1.47,0.99,2.98,1.4,4.49
				c0.39,1.52,0.74,3.06,1.03,4.61c-0.09-1.58-0.34-3.14-0.66-4.69c-0.33-1.55-0.78-3.08-1.3-4.58c-0.58-1.48-1.22-2.94-2.04-4.3
				c-0.44-0.69-0.91-1.37-1.42-2C342.06,376.693,341.98,376.733,341.9,376.773z"/>
			<path d="M347.98,375.083c0.25,0.45,0.48,0.91,0.7,1.37c0.74,1.54,1.33,3.16,1.81,4.81c0.53,1.64,0.93,3.32,1.31,5
				c0.37,1.68,0.7,3.38,0.99,5.08c-0.09-1.73-0.32-3.45-0.62-5.16c-0.29-1.71-0.71-3.4-1.2-5.06c-0.53-1.66-1.12-3.31-1.95-4.85
				c-0.22-0.41-0.45-0.82-0.69-1.21C348.21,375.063,348.1,375.073,347.98,375.083z"/>
			<path d="M354.13,375.543c0.1,0.27,0.21,0.54,0.31,0.81c0.55,1.48,1,3,1.35,4.55c0.39,1.54,0.69,3.1,0.98,4.67
				c0.28,1.57,0.53,3.14,0.76,4.72c-0.02-1.6-0.18-3.19-0.39-4.78c-0.2-1.59-0.51-3.16-0.87-4.72c-0.38-1.56-0.84-3.1-1.47-4.59
				c-0.08-0.18-0.16-0.37-0.25-0.55C354.41,375.613,354.27,375.573,354.13,375.543z"/>
			<path d="M359.15,377.643c0.34,1.12,0.66,2.24,0.89,3.38c0.29,1.27,0.5,2.56,0.7,3.85c0.19,1.29,0.34,2.59,0.46,3.9
				c0.08-1.31,0.03-2.63-0.08-3.94c-0.12-1.31-0.33-2.62-0.59-3.91c-0.23-0.99-0.49-1.96-0.82-2.92
				C359.53,377.873,359.34,377.753,359.15,377.643z"/>
			<path d="M337.48,399.283c-0.02,1.87,0.16,3.77,0.73,5.57c0.22,0.91,0.62,1.77,0.97,2.63c0.13,0.29,0.28,0.58,0.43,0.86h0.01
				c0.08,0.06,0.17,0.12,0.25,0.16c-0.53-1.22-1-2.46-1.29-3.75c-0.48-1.78-0.66-3.63-0.6-5.46c0.01-1.84,0.33-3.67,0.84-5.43
				c0.52-1.77,1.25-3.49,2.2-5.09c-1.13,1.49-1.96,3.2-2.56,4.97C337.85,395.523,337.53,397.403,337.48,399.283z"/>
			<path d="M333.89,398.773l0.05,1.51l0.21,1.5c0.04,0.41,0.12,0.81,0.21,1.21c0.15,0.23,0.3,0.46,0.47,0.69
				c-0.13-0.65-0.27-1.29-0.3-1.95l-0.15-1.48l-0.03-1.48c-0.03-0.5,0-0.99,0.04-1.49c0.05-0.49,0.05-0.98,0.14-1.47
				c0.2-1.97,0.75-3.89,1.47-5.73c0.73-1.84,1.7-3.6,2.94-5.16c-1.4,1.43-2.47,3.17-3.29,5.01c-0.81,1.85-1.37,3.81-1.62,5.82
				c-0.08,0.5-0.07,1-0.11,1.51C333.88,397.763,333.86,398.273,333.89,398.773z"/>
			<path d="M331.51,393.213c0,0.08,0,0.14,0.01,0.22c0.02-0.11,0.04-0.23,0.06-0.34c0.42-2.08,1.11-4.09,2.01-6.01
				c0.91-1.91,2.02-3.75,3.46-5.33c-1.57,1.46-2.82,3.25-3.8,5.16c-0.64,1.25-1.16,2.55-1.58,3.89v0.03
				C331.56,391.613,331.51,392.403,331.51,393.213z"/>
			<path d="M364.56,387.183c0.82,0.9,1.48,1.91,2.05,2.96c0.52,0.97,0.96,1.97,1.31,3.01c0-0.51-0.02-1.02-0.07-1.52
				c-0.27-0.58-0.57-1.14-0.91-1.68C366.29,388.913,365.52,387.933,364.56,387.183z"/>
			<path d="M363.7,382.343c0.76,0.86,1.5,1.71,2.22,2.57c-0.27-0.53-0.56-1.04-0.88-1.53
				C364.61,383.013,364.17,382.663,363.7,382.343z"/>
			<path d="M363.701,393.921c-1.661,0.638-3.346,1.2-5.046,1.698c-1.703,0.484-3.414,0.947-5.158,1.229
				c-3.465,0.641-7.055,0.815-10.501-0.13c1.656,0.672,3.448,0.967,5.239,1.048c1.796,0.067,3.585-0.146,5.351-0.427
				c1.761-0.327,3.492-0.788,5.185-1.355C360.459,395.406,362.122,394.749,363.701,393.921z"/>
			<path d="M363.701,398.27c-1.675,0.672-3.39,1.225-5.126,1.681c-1.738,0.449-3.497,0.809-5.277,1.013
				c-1.773,0.261-3.569,0.306-5.357,0.254l-1.343-0.063l-1.335-0.162c-0.902-0.056-1.766-0.319-2.663-0.447
				c1.721,0.535,3.504,0.953,5.32,1.056c1.811,0.134,3.638,0.084,5.441-0.142c1.799-0.249,3.585-0.607,5.319-1.14
				C360.41,399.782,362.11,399.13,363.701,398.27z"/>
			<path d="M363.271,402.028c-1.577,0.745-3.211,1.345-4.876,1.822c-1.664,0.479-3.362,0.838-5.079,1.023
				c-0.854,0.135-1.719,0.16-2.58,0.224c-0.863-0.011-1.729,0.023-2.591-0.05c-1.734-0.055-3.437-0.398-5.148-0.744
				c1.653,0.546,3.365,0.991,5.118,1.128c1.747,0.191,3.516,0.141,5.261-0.062c1.741-0.23,3.47-0.588,5.133-1.153
				C360.169,403.656,361.789,402.956,363.271,402.028z"/>
			<path d="M362.512,404.863c-1.49,0.692-3.028,1.256-4.592,1.713c-1.567,0.451-3.161,0.802-4.776,0.984
				c-1.609,0.239-3.242,0.258-4.862,0.155l-1.217-0.095l-1.207-0.196c-0.816-0.086-1.589-0.365-2.401-0.518
				c1.535,0.573,3.137,1.05,4.79,1.192c1.645,0.185,3.315,0.161,4.959-0.043c1.64-0.227,3.265-0.578,4.829-1.115
				C359.595,406.402,361.118,405.738,362.512,404.863z"/>
		</g>
	</g>
</g>
<g id="Character">
	<g>
		<g>
			
				<path style="fill:none;stroke:#263238;stroke-width:0.708;stroke-linecap:round;stroke-linejoin:round;stroke-miterlimit:10;" d="
				M296.188,200.637c0,0-5.409,3.207-14.464,0.755c-9.055-2.452-13.394,10.376-21.129,4.339"/>
			
				<path style="fill:none;stroke:#263238;stroke-width:0.708;stroke-linecap:round;stroke-linejoin:round;stroke-miterlimit:10;" d="
				M305.088,172.743c0,0,10.543-3.799,11.863,7.917c1.32,11.715-5.098,16.708-11.121,16.436"/>
			<path style="fill:#263238;" d="M307.492,192.126c-4.018,2.268,0.034,3.033-5.16,5.863c-5.193,2.83-15.38,8.934-21.417,1.355
				c-4.821-6.052-12.028,2.772-17.117,3.65c-5.938,1.025-11.57-3.799-11.999-9.647c-0.123-1.681-0.114-3.417-0.76-4.974
				c-0.701-1.688-2.081-2.925-3.556-3.94c-1.647-1.132-4.607-1.993-3.902-4.588c0.279-1.025,1.08-1.844,1.998-2.378
				c1.628-0.945,3.552-1.341,5.419-1.092c3.408,0.455,5.871,3.132,9.056,0.165c1.217-1.134,2.021-2.628,2.921-4.028
				c1.545-2.404,4.065-4.043,6.977-4.041c2.701,0.001,4.458,1.373,6.717,2.544c4.417,2.29,9.793,0.344,13.583-1.975
				c6.21-3.8,10.963-3.633,15.775,0.086c4.997,3.862,10.412,17.541,5.079,21.895C310.793,191.279,307.845,191.927,307.492,192.126z"
				/>
			
				<path style="fill:none;stroke:#263238;stroke-width:0.708;stroke-linecap:round;stroke-linejoin:round;stroke-miterlimit:10;" d="
				M307.007,170.9c0,0-4.903-6.751-13.398-6.185c-8.495,0.566-7.225,7.866-15.217,3.084c-7.992-4.782-13.463-2.411-17.048,3.101"/>
		</g>
		<path style="fill:#E4897B;" d="M277.19,210.476c0,0-17.372,3.477-20.288,2.911c-2.916-0.566-21.577-21.463-21.577-21.463
			s-1.336-4.639-2.279-4.793c-0.943-0.155-12.823-4.039-12.92-1.814c-0.097,2.225,2.167,8.061,2.733,8.633
			c0.566,0.572,9.999,2.074,9.999,2.074s17.167,22.457,19.431,23.966c2.264,1.509,22.827,0,22.827,0L277.19,210.476z"/>
		<path style="fill:#E4897B;" d="M313.661,212.235c3.475,1.703,15.737,33.019,15.737,33.019s22.217,20.301,22.849,22.226
			c0.656,1.999-1.475,10.087-1.923,10.803c-0.314,0.503-5.612,1.042-5.612,0.377c0-0.692,2.579-9.805,2.579-9.805l-24.118-20.02
			l-12.066-27.948L313.661,212.235z"/>
		<g>
			<path style="fill:#407BFF;" d="M313.661,212.235c3.146,0.208,17.244,16.915,17.244,16.915l-10.325,7.819L313.661,212.235z"/>
			<path style="opacity:0.5;fill:#FFFFFF;enable-background:new    ;" d="M313.661,212.235c3.146,0.208,17.244,16.915,17.244,16.915
				l-10.325,7.819L313.661,212.235z"/>
		</g>
		<g>
			<path style="fill:#407BFF;" d="M323.927,233.786c3.225,3.515-12.64,18.819-33.58,15.049c-20.94-3.77-29.807-16.302-29.807-16.302
				S299.214,206.849,323.927,233.786z"/>
			<path style="opacity:0.6;fill:#FFFFFF;enable-background:new    ;" d="M323.927,233.786c3.225,3.515-12.64,18.819-33.58,15.049
				c-20.94-3.77-29.807-16.302-29.807-16.302S299.214,206.849,323.927,233.786z"/>
		</g>
		<g>
			<path style="fill:#407BFF;" d="M349.419,255.488c-2.587-6.632-13.525-8.86-25.252-9.232c-2.266-0.072-4.151,1.726-4.151,3.993
				l0,0c2.113,1.349,3.666,3.084,4.493,5.205c3.86,9.88-9.294,24.248-29.39,32.086c-20.087,7.837-39.496,6.188-43.356-3.693
				c-3.152-8.092-20.665,2.535-15.49,15.8c6.866,17.6,37.762,21.979,69.011,9.788C336.525,297.236,356.285,273.088,349.419,255.488z
				"/>
			<path style="opacity:0.4;fill:#FFFFFF;enable-background:new    ;" d="M305.285,309.435
				c-31.244,12.189-62.145,7.811-69.012-9.785c-5.169-13.267,12.341-23.891,15.489-15.803c0.916,2.337,2.689,4.206,5.141,5.608
				c7.926,4.521,22.871,4.072,38.216-1.917c17.062-6.647,29.108-18.007,30.004-27.334c0.162-1.66-0.029-3.252-0.611-4.75
				c-0.83-2.117-2.384-3.853-4.492-5.207c0-2.26,1.879-4.063,4.149-3.987c11.722,0.372,22.661,2.594,25.255,9.232
				C356.281,273.087,336.53,297.236,305.285,309.435z"/>
			<path style="opacity:0.2;enable-background:new    ;" d="M327.326,281.175c0,0,1.125-5.742-0.944-8.565
				c0,0-5.751,11.883-24.664,20.934c-18.913,9.06-31.931,6.81-34.382,5.293c0,0-0.191,3.386,1.879,5.656
				c0,0-11.912-3.596-12.313-15.04c7.926,4.521,22.871,4.072,38.216-1.917c17.062-6.647,29.108-18.007,30.004-27.334
				C336.692,266.097,327.326,281.175,327.326,281.175z"/>
		</g>
		<path style="fill:#E4897B;" d="M313.659,302.978c-0.42,2.623-1.564,6.333-3.119,10.605c-5.179,14.182-14.878,34.382-17.52,40.171
			c-2.069,4.559-11.187,5.627-22.289,7.582c-21.392,3.767-50.166,9.432-50.166,9.432l-0.439-6.791c0,0,57.768-17.253,58.531-20.467
			c1.068-4.54,1.383-25.846,1.726-43.777c0.048-2.003,0.086-3.958,0.124-5.846c0.067-3.109,0.124-5.989,0.171-8.479
			c0.115-5.713,0.181-9.413,0.181-9.413l29.995-23.948C310.855,252.048,318.104,275.252,313.659,302.978z"/>
		<path style="opacity:0.2;enable-background:new    ;" d="M310.54,313.583c-5.179,14.182-14.878,34.382-17.52,40.171
			c-2.069,4.559-11.187,5.627-22.289,7.582c-21.392,3.767-50.166,9.432-50.166,9.432l-0.439-6.791c0,0,57.768-17.253,58.531-20.467
			c1.068-4.54,1.383-25.846,1.726-43.777l15.174-7.754L310.54,313.583z"/>
		<path style="fill:#E4897B;" d="M279.132,248.835c0,0-11.626,24.523-7.518,47.664c4.108,23.141,24.818,38.39,28.165,45.595
			c3.347,7.205,26.082,69.867,26.082,69.867l5.043-2.074c0,0-14.028-61.667-17.064-76.419c-1.434-6.969-18.289-41.489-18.289-41.489
			s17.22-18.406,15.732-42.866L279.132,248.835z"/>
		<path style="fill:#407BFF;" d="M275.087,210.1c0,0,21.133-4.656,38.574,2.136c0,0,1.198,18.423-2.576,37.288l-32.286,0.233
			c0,0,1.745-8.789-5.423-25.796L275.087,210.1z"/>
		<path style="fill:#E4897B;" d="M298.709,215.077c-7.423-1.828-9.319-5.309-9.319-5.309c3.411-2.547,3.342-6.894,2.861-9.656
			c-0.257-1.527-0.647-2.57-0.647-2.57l8.874,2.733c-0.408,1.47-0.656,2.718-0.787,3.779c-0.152,1.163-0.153,2.094-0.065,2.834
			c0.306,2.78,1.846,2.995,1.846,2.995C302.724,213.04,298.709,215.077,298.709,215.077z"/>
		<path style="opacity:0.2;enable-background:new    ;" d="M299.691,204.053c-0.152,1.163-0.153,2.094-0.065,2.834
			c-3.546-0.885-5.946-4.078-7.375-6.776c-0.257-1.527-0.647-2.57-0.647-2.57l8.874,2.733
			C300.07,201.745,299.822,202.993,299.691,204.053z"/>
		<g>
			<path style="fill:#E4897B;" d="M301.502,174.956c7.852,1.194,9.74,5.782,9.085,13.962c-0.819,10.221-4.154,17.065-13.643,13.412
				C284.056,197.369,288.462,172.973,301.502,174.956z"/>
			<path style="fill:#DE5753;" d="M305.578,187.707c0,0,0.776,2.216,1.789,3.604c0,0-0.835,0.966-2.205,0.573L305.578,187.707z"/>
			<g>
				<path style="fill:#263238;" d="M300.869,186.334c-0.083,0.647-0.5,1.127-0.932,1.072c-0.432-0.055-0.714-0.625-0.631-1.272
					c0.083-0.647,0.5-1.127,0.932-1.072C300.669,185.117,300.952,185.686,300.869,186.334z"/>
				<path style="fill:#263238;" d="M300.054,185.07l1.479-0.372C301.533,184.698,300.68,185.793,300.054,185.07z"/>
			</g>
			<g>
				<path style="fill:#263238;" d="M308.933,187.231c-0.083,0.647-0.5,1.127-0.932,1.072c-0.432-0.055-0.714-0.625-0.631-1.272
					c0.083-0.647,0.5-1.127,0.932-1.072C308.734,186.014,309.016,186.584,308.933,187.231z"/>
				<path style="fill:#263238;" d="M308.118,185.967l1.479-0.372C309.597,185.595,308.744,186.69,308.118,185.967z"/>
			</g>
			
				<path style="fill:none;stroke:#263238;stroke-width:0.708;stroke-linecap:round;stroke-linejoin:round;stroke-miterlimit:10;" d="
				M301.615,180.9c0,0-2.163-0.622-3.586,0.669"/>
			
				<path style="fill:none;stroke:#263238;stroke-width:0.708;stroke-linecap:round;stroke-linejoin:round;stroke-miterlimit:10;" d="
				M307.373,181.436c0,0,1.465-0.303,3.031,1.121"/>
			<g>
				<path style="fill:#263238;" d="M303.482,193.794c-0.839,0.651-2.063,2.053-2.063,2.053c-0.147-0.088-0.294-0.176-0.436-0.271
					c-1.963-1.243-2.463-2.468-2.422-3.45c0.025-0.537,0.218-1.003,0.422-1.354c0.231-0.409,0.489-0.647,0.489-0.647
					c0.647,1.281,2.388,2.581,3.346,3.236C303.218,193.639,303.482,193.794,303.482,193.794z"/>
				<path style="fill:#FFFFFF;" d="M302.82,193.36l-0.624,0.59c-1.846-1.176-2.988-2.251-3.212-3.178
					c0.231-0.409,0.489-0.647,0.489-0.647C300.12,191.405,301.861,192.705,302.82,193.36z"/>
				<path style="fill:#DE5753;" d="M300.984,195.576c-1.963-1.243-2.463-2.468-2.422-3.45c0.653,0.449,1.389,1.064,1.906,1.812
					C300.865,194.509,300.983,195.076,300.984,195.576z"/>
			</g>
			<path style="fill:#263238;" d="M290.908,186.885c0,0,4.652-5.893,4.854-10.958c0,0,16.527-3.99,14.893,11.92
				c0,0,3.653-13.793-9.797-16.158c-13.429-2.362-16.396,17.391-10.32,24.335C290.537,196.024,288.023,190.574,290.908,186.885z"/>
			<path style="fill:#E4897B;" d="M291.938,188.738c0.14-1.272-0.839-3.61-3.23-3.711c-2.474-0.105-4.393,4.715,1.477,6.836
				C291.027,192.166,291.647,191.392,291.938,188.738z"/>
			<path style="fill:#263238;" d="M293.609,170.019c0,0,4.799-2.749,8.601-2.129c3.802,0.62,4.797,3.01,4.797,3.01
				s2.024-1.258,4.665,0c2.641,1.258,5.534,6.35,5.156,12.859c-0.377,6.509-5.721,7.264-5.721,7.264s3.962-10.715-4.842-14.161
				c0,0-3.176-2.063-5.361,0.452c-2.185,2.515-1.949,10.115-9.299,7.384C284.254,181.967,288.895,172.942,293.609,170.019z"/>
			<path style="fill:#263238;" d="M289.39,184.698l8.102-2.359c0,0,3.655-0.356,7.192,1.156c0,0,1.132-0.071,1.721,0.264
				c0,0,3.042-0.335,5.515,0.773v0.785l-0.368,0.378c0,0-0.313,3.307-1.54,3.655c-0.637,0.181-1.981,0.024-2.642-0.668
				c-1.086-1.137-1.43-3.625-1.43-3.625s-0.201-0.497-1.211-0.05c0,0-0.377,3.628-3.506,3.467c-3.965-0.204-3.421-4.445-3.421-4.445
				l-0.593-0.27l-7.116,1.298L289.39,184.698z"/>
		</g>
		<path style="fill:#407BFF;" d="M295.552,291.98c0,0-9.858-18.302-24.817-15.284c0,0,0-14.086,8.063-26.939l32.286-0.233
			c0,0,4.135,15.094,4.018,27.675L295.552,291.98z"/>
		<g>
			<path style="fill:#407BFF;" d="M350.781,235.996c0,0,4.274-5.646,2.576-13.569c-1.698-7.923-8.961-8.112-14.149-2.452
				c-5.914,6.452-1.698,15.469-2.452,18.821c-0.694,3.084-6.995,1.741-8,1.506c-13.159-3.084-30.695-1.488-48.347,5.398
				c-31.24,12.2-51,36.347-44.134,53.948c2.9,7.433,10.086,12.505,19.775,14.967c10.054,2.554,8.19-7.089,5.135-14.933
				c-3.86-9.88,9.294-24.248,29.389-32.086c20.087-7.837,39.496-6.188,43.355,3.693c2.093,5.373,3.964,17.822,7.889,12.977
				c5.927-7.316,9.171-15,8.947-22.083C357.021,253.17,350.781,235.996,350.781,235.996z"/>
			<path style="opacity:0.4;fill:#FFFFFF;enable-background:new    ;" d="M350.769,262.177c0.219,7.086-3.024,14.773-8.946,22.089
				c-3.929,4.845-5.799-7.601-7.897-12.98c-3.853-9.881-23.262-11.531-43.357-3.691c-20.095,7.84-33.247,22.203-29.385,32.084
				c3.052,7.849,4.921,17.492-5.131,14.936c-9.69-2.461-16.881-7.535-19.781-14.964c-6.867-17.606,12.895-41.755,44.139-53.953
				c17.644-6.886,35.183-8.479,48.345-5.398c1.001,0.238,7.305,1.583,8.002-1.507c0.753-3.348-3.462-12.361,2.451-18.817
				c5.188-5.656,12.446-5.475,14.144,2.451c0.925,4.311,0.076,7.954-0.878,10.367c-0.811,2.031-1.698,3.204-1.698,3.204
				S357.025,253.173,350.769,262.177z"/>
			<path style="fill:#407BFF;" d="M349.228,218.602c0,0,6.523-1.618,8.072-2.555c1.549-0.937,1.423,6.904-4.547,9.758
				c0,0-0.997-1.307-4.258-0.503C345.233,226.106,345.885,220.084,349.228,218.602z"/>
			<path style="opacity:0.2;enable-background:new    ;" d="M350.769,262.177c-9.486,3.64-14.897-7.115-14.897-7.115
				s4.226,6.407,10.486,2.643c6.687-4.022,3.601-20.755,3.601-20.755s-1.879,1.106-4.397-0.954c-2.26-1.85,3.014-4.263,6.915-3.204
				c-0.811,2.031-1.698,3.204-1.698,3.204S357.025,253.173,350.769,262.177z"/>
			<path style="fill:#263238;" d="M343.105,220.935c-0.036,0.571-0.408,1.012-0.832,0.985c-0.424-0.026-0.739-0.51-0.703-1.081
				c0.036-0.571,0.408-1.012,0.832-0.985C342.826,219.881,343.141,220.365,343.105,220.935z"/>
		</g>
		<path style="fill:#263238;" d="M223.622,362.649c0.689,0.094-0.808,8.516-0.808,8.516s-5.896,4.62-7.66,9.556
			c-1.764,4.935-4.487,1.759-3.848-3.906c0.638-5.666,1.125-9.99,1.579-14.016C213.338,358.773,216.484,361.675,223.622,362.649z"/>
		<g>
			<path style="fill:#407BFF;" d="M221.611,371.989c0.016-0.026,0.037-0.048,0.06-0.065l0.001,0l0,0
				c0.02-0.014,0.042-0.025,0.066-0.032l0,0l0.001,0c0.023-0.007,0.047-0.01,0.071-0.008l0,0l0.001,0c0,0,0,0,0.001,0l0,0
				c0.032,0.002,0.062,0.01,0.089,0.023c0.097,0.048,1.981,0.981,2.328,2.179c0.111,0.382,0.057,0.75-0.154,1.094
				c-0.227,0.366-0.488,0.526-0.776,0.478c-0.443-0.076-0.822-0.731-1.113-1.462c-0.012,0.724-0.114,1.457-0.422,1.879
				c-0.164,0.223-0.375,0.354-0.625,0.388c-0.517,0.071-0.765-0.128-0.881-0.307c-0.125-0.193-0.154-0.462-0.119-0.771
				C220.273,374.198,221.348,372.411,221.611,371.989z M221.666,372.781c-0.671,1.191-1.313,2.691-1.029,3.129
				c0.025,0.038,0.1,0.154,0.442,0.107c0.127-0.018,0.233-0.086,0.324-0.21c0.161-0.219,0.252-0.572,0.298-0.979
				C221.774,374.174,221.73,373.381,221.666,372.781z M223.797,374.211c-0.201-0.696-1.107-1.329-1.659-1.66
				c0.336,1.31,0.859,2.597,1.238,2.662c0.118,0.02,0.25-0.161,0.317-0.271c0.077-0.124,0.123-0.25,0.138-0.38
				C223.844,374.448,223.832,374.332,223.797,374.211z"/>
		</g>
		<g>
			<path style="fill:#263238;" d="M323.504,409.805c-0.258-0.645,7.808-3.493,7.808-3.493s6.926,2.853,12.09,1.956
				c5.164-0.897,3.742,3.037-1.503,5.274c-5.245,2.237-9.247,3.944-12.974,5.533C325.199,420.664,326.174,416.496,323.504,409.805z"
				/>
			<g>
				<path style="fill:#407BFF;" d="M332.622,406.953c-0.031-0.001-0.06-0.008-0.086-0.021l-0.001-0.001l0,0
					c-0.022-0.01-0.042-0.024-0.06-0.042l0,0l-0.001-0.001c-0.017-0.016-0.032-0.036-0.043-0.058l0,0l-0.001-0.001c0,0,0,0,0-0.001
					l0,0c-0.014-0.029-0.022-0.059-0.024-0.089c-0.007-0.108-0.123-2.207,0.749-3.1c0.278-0.285,0.625-0.42,1.027-0.406
					c0.43,0.017,0.699,0.165,0.798,0.44c0.152,0.423-0.231,1.076-0.724,1.689c0.636-0.346,1.324-0.619,1.843-0.558
					c0.275,0.033,0.493,0.152,0.646,0.353c0.317,0.415,0.266,0.728,0.167,0.918c-0.106,0.204-0.326,0.362-0.612,0.484
					C335.203,407.028,333.118,406.973,332.622,406.953z M333.284,406.515c1.367-0.003,2.989-0.184,3.23-0.646
					c0.021-0.04,0.085-0.163-0.125-0.437c-0.078-0.102-0.19-0.16-0.342-0.179c-0.27-0.032-0.622,0.063-0.999,0.223
					C334.443,405.734,333.775,406.163,333.284,406.515z M333.478,403.955c-0.507,0.518-0.611,1.618-0.626,2.262
					c0.974-0.938,1.836-2.027,1.706-2.388c-0.04-0.112-0.263-0.138-0.392-0.142c-0.146-0.006-0.279,0.016-0.398,0.067
					C333.662,403.798,333.566,403.865,333.478,403.955z"/>
			</g>
		</g>
		<path style="fill:#407BFF;" d="M293.053,211.423c0,0-0.014,14.732-12.302,23.621c-12.287,8.889-28.889,8.903-32.285,16.065
			c0,0-0.189-9.36,2.453-17.323c2.641-7.963,22.456-14.772,22.456-14.772l1.712-8.915
			C275.087,210.1,286.326,205.323,293.053,211.423z"/>
		<path style="fill:#407BFF;" d="M302.82,209.913c0,0,7.446,18.103,12.485,21.251c5.039,3.148,8.623,2.622,8.623,2.622
			s-3.176-14.198-10.266-21.551C313.661,212.235,305.859,207.587,302.82,209.913z"/>
		<path style="opacity:0.7;fill:#FFFFFF;enable-background:new    ;" d="M293.057,211.42c0,0-0.019,14.735-12.303,23.624
			c-12.294,8.889-28.889,8.908-32.284,16.061c0,0-0.191-9.356,2.451-17.32c0.696-2.108,2.594-4.139,5.017-5.98
			c2.89-2.193,6.533-4.139,9.728-5.627c4.235-1.965,7.706-3.166,7.706-3.166l1.717-8.908
			C275.089,210.104,286.323,205.326,293.057,211.42z"/>
		<path style="opacity:0.7;fill:#FFFFFF;enable-background:new    ;" d="M302.82,209.913c0,0,7.446,18.103,12.485,21.251
			c5.039,3.148,8.623,2.622,8.623,2.622s-3.176-14.198-10.266-21.551C313.661,212.235,305.859,207.587,302.82,209.913z"/>
		<g>
			<polygon style="fill:#407BFF;" points="287.766,206.309 293.053,211.423 287.766,217.585 284.436,208.027 			"/>
			<polygon style="opacity:0.5;fill:#FFFFFF;enable-background:new    ;" points="287.766,206.309 293.053,211.423 287.766,217.585 
				284.436,208.027 			"/>
		</g>
		<g>
			<polygon style="fill:#407BFF;" points="302.314,206.887 306.264,208.543 310.404,214.064 302.82,209.913 			"/>
			<polygon style="opacity:0.5;fill:#FFFFFF;enable-background:new    ;" points="302.314,206.887 306.264,208.543 310.404,214.064 
				302.82,209.913 			"/>
		</g>
		<path style="opacity:0.2;enable-background:new    ;" d="M271.779,224.601c0,0-7.458,6.753-15.842,3.204
			c2.89-2.193,6.533-4.139,9.728-5.627C268.717,222.598,271.216,223.409,271.779,224.601z"/>
		<g>
			<path style="fill:#407BFF;" d="M276.928,209.455c0,0,0,8.13-5.146,15.147l-14.086,0.419l0.063-13.073L276.928,209.455z"/>
			<path style="opacity:0.5;fill:#FFFFFF;enable-background:new    ;" d="M276.928,209.455c0,0,0,8.13-5.146,15.147l-14.086,0.419
				l0.063-13.073L276.928,209.455z"/>
		</g>
	</g>
</g>
<g id="Hat">
	<g>
		<path style="fill:#407BFF;" d="M188.684,154.331c0,0-1.197,7.283,7.198,12.791s18.111,0.509,19.714-3.83L188.684,154.331z"/>
		<path style="opacity:0.2;enable-background:new    ;" d="M188.684,154.331c0,0-1.197,7.283,7.198,12.791s18.111,0.509,19.714-3.83
			L188.684,154.331z"/>
		<path style="fill:#407BFF;" d="M186.07,140.332c9.151,0.002,19.379,2.844,27.788,6.467c5.979,2.576,11.616,6.236,15.93,11.157
			c4.034,4.602,7.897,12.54,4.521,18.534c-3.453,6.133-12.998,0.215-16.803-2.317c-14.079-9.372-29.171-14.654-46.905-19.182
			c-2.602-0.665-8.673-2.2-8.105-5.992c0.529-3.53,6.244-5.438,9.015-6.368C176.264,141.038,181.163,140.331,186.07,140.332z"/>
		<path style="opacity:0.2;enable-background:new    ;" d="M188.684,148.2c-2.647-3.748,10.971-5.66,20.404,0
			c9.433,5.66,10.47,9.244,8.112,10.753C215.545,160.012,196.012,158.576,188.684,148.2z"/>
	</g>
</g>
</svg>
