<?xml version="1.0" encoding="utf-8"?>
<!-- Generator: Adobe Illustrator 27.5.0, SVG Export Plug-In . SVG Version: 6.00 Build 0)  -->
<svg version="1.1" xmlns="http://www.w3.org/2000/svg" xmlns:xlink="http://www.w3.org/1999/xlink" x="0px" y="0px"
	 viewBox="0 0 500 500" style="enable-background:new 0 0 500 500;" xml:space="preserve">
<g id="Background_Complete">
	<g>
		<rect y="382.398" style="fill:#EBEBEB;" width="500" height="0.25"/>
		<rect x="416.779" y="398.494" style="fill:#EBEBEB;" width="33.122" height="0.25"/>
		<rect x="322.527" y="401.208" style="fill:#EBEBEB;" width="8.693" height="0.25"/>
		<rect x="396.586" y="389.208" style="fill:#EBEBEB;" width="19.192" height="0.25"/>
		<rect x="52.459" y="390.888" style="fill:#EBEBEB;" width="43.193" height="0.25"/>
		<rect x="104.556" y="390.888" style="fill:#EBEBEB;" width="6.333" height="0.25"/>
		<rect x="131.471" y="395.111" style="fill:#EBEBEB;" width="93.676" height="0.25"/>
		<path style="fill:#EBEBEB;" d="M237.014,337.8H43.915c-3.147,0-5.708-2.561-5.708-5.708V60.66c0-3.147,2.561-5.708,5.708-5.708
			h193.099c3.146,0,5.707,2.561,5.707,5.708v271.432C242.721,335.239,240.16,337.8,237.014,337.8z M43.915,55.203
			c-3.01,0-5.458,2.448-5.458,5.458v271.432c0,3.01,2.448,5.458,5.458,5.458h193.099c3.009,0,5.457-2.448,5.457-5.458V60.66
			c0-3.009-2.448-5.458-5.457-5.458H43.915z"/>
		<path style="fill:#EBEBEB;" d="M453.31,337.8H260.212c-3.147,0-5.707-2.561-5.707-5.708V60.66c0-3.147,2.561-5.708,5.707-5.708
			H453.31c3.148,0,5.708,2.561,5.708,5.708v271.432C459.019,335.239,456.458,337.8,453.31,337.8z M260.212,55.203
			c-3.009,0-5.457,2.448-5.457,5.458v271.432c0,3.01,2.448,5.458,5.457,5.458H453.31c3.01,0,5.458-2.448,5.458-5.458V60.66
			c0-3.009-2.448-5.458-5.458-5.458H260.212z"/>
	</g>
	<g>
		<g>
			
				<rect x="165.241" y="133.664" transform="matrix(0.9776 -0.2105 0.2105 0.9776 -25.2147 38.7444)" style="fill:#EBEBEB;" width="8.31" height="8.31"/>
			
				<ellipse transform="matrix(0.0534 -0.9986 0.9986 0.0534 -13.6899 352.8514)" style="fill:#E0E0E0;" cx="179.263" cy="183.646" rx="45.814" ry="45.814"/>
			
				<ellipse transform="matrix(0.7782 -0.628 0.628 0.7782 -75.5725 153.3142)" style="fill:#F0F0F0;" cx="179.263" cy="183.646" rx="39.885" ry="39.885"/>
			
				<rect x="160.51" y="126.636" transform="matrix(0.9776 -0.2105 0.2105 0.9776 -23.8776 38.3031)" style="fill:#E0E0E0;" width="14.972" height="9.369"/>
			<path style="fill:#E0E0E0;" d="M183.058,182.829c0.451,2.096-0.882,4.161-2.978,4.612c-2.096,0.451-4.161-0.882-4.612-2.978
				c-0.451-2.096,0.882-4.161,2.978-4.612C180.542,179.4,182.607,180.733,183.058,182.829z"/>
			<path style="fill:#E0E0E0;" d="M169.666,151.446c1.216,2.559,2.257,5.171,3.305,7.78l1.504,3.934l1.419,3.96
				c0.946,2.64,1.822,5.3,2.677,7.967c0.849,2.669,1.675,5.344,2.452,8.034l-3.008-0.821c1.806-1.665,3.638-3.301,5.488-4.919
				c1.844-1.624,3.723-3.209,5.621-4.775c1.88-1.585,3.82-3.105,5.76-4.625c1.96-1.499,3.926-2.991,5.984-4.384
				c-1.542,1.949-3.177,3.798-4.818,5.64c-1.66,1.821-3.321,3.643-5.042,5.399c-1.702,1.776-3.424,3.532-5.181,5.249
				c-1.751,1.724-3.52,3.428-5.314,5.105l-2.141,2l-0.867-2.822c-0.822-2.677-1.596-5.368-2.347-8.066
				c-0.745-2.7-1.468-5.406-2.122-8.133l-0.98-4.09l-0.895-4.116C170.607,157.009,170.049,154.254,169.666,151.446z"/>
		</g>
		<g>
			<path style="fill:#F0F0F0;" d="M423.431,163.235l-35.973,104.579L241.971,217.77l35.973-104.579l4.89,1.682
				c-0.412,0.346-0.738,0.811-0.93,1.369c-0.571,1.659,0.314,3.457,1.965,4.025c1.659,0.571,3.454-0.306,4.025-1.965
				c0.192-0.559,0.221-1.125,0.109-1.652l4.872,1.676c-0.412,0.346-0.738,0.811-0.93,1.369c-0.571,1.659,0.315,3.457,1.965,4.025
				c1.659,0.571,3.454-0.306,4.025-1.965c0.192-0.559,0.221-1.125,0.109-1.652l4.872,1.676c-0.412,0.347-0.738,0.811-0.93,1.369
				c-0.571,1.659,0.314,3.458,1.965,4.025c1.659,0.571,3.454-0.306,4.025-1.965c0.192-0.559,0.221-1.125,0.109-1.652l4.872,1.676
				c-0.412,0.346-0.738,0.811-0.93,1.369c-0.571,1.659,0.314,3.458,1.965,4.025c1.659,0.571,3.454-0.306,4.025-1.965
				c0.192-0.559,0.221-1.125,0.109-1.652l4.872,1.676c-0.412,0.347-0.738,0.811-0.93,1.369c-0.571,1.659,0.315,3.458,1.965,4.025
				c1.659,0.571,3.454-0.306,4.025-1.965c0.192-0.559,0.221-1.125,0.109-1.652l4.872,1.676c-0.412,0.346-0.738,0.811-0.93,1.369
				c-0.571,1.659,0.314,3.457,1.965,4.025c1.659,0.571,3.454-0.306,4.025-1.965c0.192-0.559,0.221-1.125,0.109-1.652l4.872,1.676
				c-0.412,0.346-0.738,0.811-0.93,1.369c-0.571,1.659,0.315,3.458,1.965,4.025c1.659,0.571,3.454-0.306,4.025-1.965
				c0.192-0.559,0.221-1.125,0.109-1.652l4.872,1.676c-0.412,0.347-0.738,0.811-0.93,1.369c-0.571,1.659,0.314,3.458,1.965,4.025
				c1.659,0.571,3.454-0.306,4.025-1.965c0.192-0.559,0.221-1.125,0.109-1.652l4.872,1.676c-0.412,0.346-0.738,0.811-0.93,1.369
				c-0.571,1.659,0.315,3.457,1.965,4.025c1.659,0.571,3.454-0.306,4.025-1.965c0.192-0.559,0.221-1.125,0.109-1.652l4.872,1.676
				c-0.412,0.346-0.738,0.811-0.93,1.369c-0.571,1.659,0.315,3.458,1.965,4.025c1.659,0.571,3.454-0.306,4.025-1.965
				c0.192-0.559,0.221-1.125,0.109-1.652l4.872,1.676c-0.412,0.347-0.738,0.811-0.93,1.369c-0.571,1.659,0.315,3.458,1.965,4.025
				c1.659,0.571,3.454-0.306,4.025-1.965c0.192-0.559,0.221-1.125,0.109-1.652l4.872,1.676c-0.412,0.346-0.738,0.811-0.93,1.369
				c-0.571,1.659,0.315,3.457,1.965,4.025c1.659,0.571,3.454-0.306,4.025-1.965c0.192-0.559,0.221-1.125,0.109-1.652l4.872,1.676
				c-0.412,0.346-0.738,0.811-0.93,1.369c-0.571,1.659,0.314,3.457,1.965,4.025c1.659,0.571,3.454-0.306,4.025-1.965
				c0.192-0.559,0.221-1.125,0.109-1.652l4.872,1.676c-0.412,0.346-0.738,0.811-0.93,1.369c-0.571,1.659,0.315,3.458,1.965,4.025
				c1.659,0.571,3.454-0.306,4.025-1.965c0.192-0.559,0.221-1.125,0.109-1.652L423.431,163.235z"/>
			<path style="fill:#E0E0E0;" d="M423.431,163.235l-7.331,21.314l-145.487-50.044l7.332-21.314l4.89,1.682
				c-0.412,0.346-0.738,0.811-0.93,1.369c-0.571,1.659,0.314,3.457,1.965,4.025c1.659,0.571,3.454-0.306,4.025-1.965
				c0.192-0.559,0.221-1.125,0.109-1.652l4.872,1.676c-0.412,0.346-0.738,0.811-0.93,1.369c-0.571,1.659,0.315,3.457,1.965,4.025
				c1.659,0.571,3.454-0.306,4.025-1.965c0.192-0.559,0.221-1.125,0.109-1.652l4.872,1.676c-0.412,0.347-0.738,0.811-0.93,1.369
				c-0.571,1.659,0.314,3.458,1.965,4.025c1.659,0.571,3.454-0.306,4.025-1.965c0.192-0.559,0.221-1.125,0.109-1.652l4.872,1.676
				c-0.412,0.346-0.738,0.811-0.93,1.369c-0.571,1.659,0.314,3.458,1.965,4.025c1.659,0.571,3.454-0.306,4.025-1.965
				c0.192-0.559,0.221-1.125,0.109-1.652l4.872,1.676c-0.412,0.347-0.738,0.811-0.93,1.369c-0.571,1.659,0.315,3.458,1.965,4.025
				c1.659,0.571,3.454-0.306,4.025-1.965c0.192-0.559,0.221-1.125,0.109-1.652l4.872,1.676c-0.412,0.346-0.738,0.811-0.93,1.369
				c-0.571,1.659,0.314,3.457,1.965,4.025c1.659,0.571,3.454-0.306,4.025-1.965c0.192-0.559,0.221-1.125,0.109-1.652l4.872,1.676
				c-0.412,0.346-0.738,0.811-0.93,1.369c-0.571,1.659,0.315,3.458,1.965,4.025c1.659,0.571,3.454-0.306,4.025-1.965
				c0.192-0.559,0.221-1.125,0.109-1.652l4.872,1.676c-0.412,0.347-0.738,0.811-0.93,1.369c-0.571,1.659,0.314,3.458,1.965,4.025
				c1.659,0.571,3.454-0.306,4.025-1.965c0.192-0.559,0.221-1.125,0.109-1.652l4.872,1.676c-0.412,0.346-0.738,0.811-0.93,1.369
				c-0.571,1.659,0.315,3.457,1.965,4.025c1.659,0.571,3.454-0.306,4.025-1.965c0.192-0.559,0.221-1.125,0.109-1.652l4.872,1.676
				c-0.412,0.346-0.738,0.811-0.93,1.369c-0.571,1.659,0.315,3.458,1.965,4.025c1.659,0.571,3.454-0.306,4.025-1.965
				c0.192-0.559,0.221-1.125,0.109-1.652l4.872,1.676c-0.412,0.347-0.738,0.811-0.93,1.369c-0.571,1.659,0.315,3.458,1.965,4.025
				c1.659,0.571,3.454-0.306,4.025-1.965c0.192-0.559,0.221-1.125,0.109-1.652l4.872,1.676c-0.412,0.346-0.738,0.811-0.93,1.369
				c-0.571,1.659,0.315,3.457,1.965,4.025c1.659,0.571,3.454-0.306,4.025-1.965c0.192-0.559,0.221-1.125,0.109-1.652l4.872,1.676
				c-0.412,0.346-0.738,0.811-0.93,1.369c-0.571,1.659,0.314,3.457,1.965,4.025c1.659,0.571,3.454-0.306,4.025-1.965
				c0.192-0.559,0.221-1.125,0.109-1.652l4.872,1.676c-0.412,0.346-0.738,0.811-0.93,1.369c-0.571,1.659,0.315,3.458,1.965,4.025
				c1.659,0.571,3.454-0.306,4.025-1.965c0.192-0.559,0.221-1.125,0.109-1.652L423.431,163.235z"/>
			<g>
				<g>
					
						<rect x="311.63" y="156.884" transform="matrix(0.9456 0.3253 -0.3253 0.9456 71.1756 -95.1161)" style="fill:#FAFAFA;" width="16.854" height="16.854"/>
					
						<rect x="330.686" y="163.439" transform="matrix(0.9456 0.3253 -0.3253 0.9456 74.3439 -100.958)" style="fill:#FAFAFA;" width="16.854" height="16.854"/>
					
						<rect x="349.742" y="169.994" transform="matrix(0.9456 0.3253 -0.3253 0.9456 77.5123 -106.7999)" style="fill:#FAFAFA;" width="16.854" height="16.854"/>
					
						<rect x="368.798" y="176.549" transform="matrix(0.9456 0.3253 -0.3253 0.9456 80.6806 -112.6418)" style="fill:#FAFAFA;" width="16.854" height="16.854"/>
					
						<rect x="387.854" y="183.103" transform="matrix(0.9456 0.3253 -0.3253 0.9456 83.849 -118.4838)" style="fill:#FAFAFA;" width="16.854" height="16.854"/>
				</g>
				<g>
					
						<rect x="267.317" y="161.803" transform="matrix(0.9456 0.3253 -0.3253 0.9456 70.3654 -80.4343)" style="fill:#FAFAFA;" width="16.854" height="16.854"/>
					
						<rect x="286.373" y="168.358" transform="matrix(0.9456 0.3253 -0.3253 0.9456 73.5342 -86.2767)" style="fill:#FAFAFA;" width="16.854" height="16.854"/>
					
						<rect x="305.429" y="174.913" transform="matrix(0.9456 0.3253 -0.3253 0.9456 76.702 -92.1181)" style="fill:#FAFAFA;" width="16.854" height="16.854"/>
					
						<rect x="324.485" y="181.468" transform="matrix(0.9456 0.3253 -0.3253 0.9456 79.8725 -97.9619)" style="fill:#FAFAFA;" width="16.854" height="16.854"/>
					
						<rect x="343.541" y="188.022" transform="matrix(0.9456 0.3253 -0.3253 0.9456 83.0392 -103.8024)" style="fill:#FAFAFA;" width="16.854" height="16.854"/>
					
						<rect x="362.597" y="194.577" transform="matrix(0.9456 0.3253 -0.3253 0.9456 86.2076 -109.6443)" style="fill:#FAFAFA;" width="16.854" height="16.854"/>
					
						<rect x="381.653" y="201.132" transform="matrix(0.9456 0.3253 -0.3253 0.9456 89.3759 -115.4862)" style="fill:#FAFAFA;" width="16.854" height="16.854"/>
				</g>
				<g>
					
						<rect x="261.116" y="179.832" transform="matrix(0.9456 0.3253 -0.3253 0.9456 75.8928 -77.4372)" style="fill:#FAFAFA;" width="16.854" height="16.854"/>
					
						<rect x="280.172" y="186.387" transform="matrix(0.9456 0.3253 -0.3253 0.9456 79.0612 -83.2791)" style="fill:#FAFAFA;" width="16.854" height="16.854"/>
					
						<rect x="299.228" y="192.941" transform="matrix(0.9456 0.3253 -0.3253 0.9456 82.229 -89.1206)" style="fill:#FAFAFA;" width="16.854" height="16.854"/>
					
						<rect x="318.284" y="199.496" transform="matrix(0.9456 0.3253 -0.3253 0.9456 85.3979 -94.963)" style="fill:#FAFAFA;" width="16.854" height="16.854"/>
					
						<rect x="337.339" y="206.051" transform="matrix(0.9456 0.3253 -0.3253 0.9456 88.5656 -100.8044)" style="fill:#FAFAFA;" width="16.854" height="16.854"/>
					
						<rect x="356.395" y="212.606" transform="matrix(0.9456 0.3253 -0.3253 0.9456 91.7345 -106.6468)" style="fill:#FAFAFA;" width="16.854" height="16.854"/>
					
						<rect x="375.451" y="219.161" transform="matrix(0.9456 0.3253 -0.3253 0.9456 94.9041 -112.4898)" style="fill:#FAFAFA;" width="16.854" height="16.854"/>
				</g>
				<g>
					
						<rect x="254.914" y="197.86" transform="matrix(0.9456 0.3253 -0.3253 0.9456 81.4198 -74.4397)" style="fill:#FAFAFA;" width="16.854" height="16.854"/>
					
						<rect x="273.97" y="204.415" transform="matrix(0.9456 0.3253 -0.3253 0.9456 84.5881 -80.2816)" style="fill:#FAFAFA;" width="16.854" height="16.854"/>
					
						<rect x="293.026" y="210.97" transform="matrix(0.9456 0.3253 -0.3253 0.9456 87.7565 -86.1235)" style="fill:#FAFAFA;" width="16.854" height="16.854"/>
					
						<rect x="312.082" y="217.525" transform="matrix(0.9456 0.3253 -0.3253 0.9456 90.9248 -91.9654)" style="fill:#FAFAFA;" width="16.854" height="16.854"/>
					
						<rect x="331.138" y="224.08" transform="matrix(0.9456 0.3253 -0.3253 0.9456 94.0932 -97.8073)" style="fill:#FAFAFA;" width="16.854" height="16.854"/>
					
						<rect x="350.194" y="230.634" transform="matrix(0.9456 0.3253 -0.3253 0.9456 97.2615 -103.6493)" style="fill:#FAFAFA;" width="16.854" height="16.854"/>
				</g>
			</g>
			
				<line style="fill:none;stroke:#E0E0E0;stroke-width:3;stroke-linecap:round;stroke-linejoin:round;stroke-miterlimit:10;" x1="327.684" y1="179.185" x2="338.14" y2="200.605"/>
			
				<line style="fill:none;stroke:#E0E0E0;stroke-width:3;stroke-linecap:round;stroke-linejoin:round;stroke-miterlimit:10;" x1="343.622" y1="184.667" x2="322.202" y2="195.122"/>
		</g>
		<g>
			<path style="fill:#EBEBEB;" d="M80.829,152.883v6.633l3.415,0.322c0.461,2.224,1.342,4.291,2.547,6.127l-2.194,2.65l4.69,4.691
				l2.65-2.194c1.836,1.205,3.904,2.087,6.127,2.548l0.322,3.416h6.633l0.322-3.416c2.223-0.461,4.291-1.342,6.127-2.547l2.65,2.194
				l4.691-4.691l-2.194-2.65c1.205-1.836,2.086-3.903,2.547-6.127l3.416-0.322v-6.633l-3.416-0.322
				c-0.461-2.224-1.342-4.291-2.547-6.127l2.194-2.65l-4.691-4.691l-2.65,2.194c-1.836-1.205-3.903-2.086-6.127-2.547l-0.322-3.416
				h-6.633l-0.322,3.416c-2.223,0.461-4.291,1.342-6.127,2.547l-2.65-2.194l-4.69,4.691l2.194,2.65
				c-1.205,1.836-2.086,3.903-2.547,6.127L80.829,152.883z M101.704,147.22c4.959,0,8.98,4.02,8.98,8.98
				c0,4.959-4.021,8.98-8.98,8.98c-4.96,0-8.98-4.02-8.98-8.98C92.724,151.24,96.744,147.22,101.704,147.22z"/>
			<path style="fill:#E0E0E0;" d="M238.509,312.107c3.838-0.796,7.406-2.317,10.576-4.397l4.574,3.787l8.096-8.096l-3.787-4.575
				c2.08-3.168,3.601-6.737,4.397-10.575l5.895-0.555v-11.45l-5.895-0.555c-0.796-3.838-2.317-7.406-4.397-10.576l3.787-4.574
				l-8.096-8.096l-4.574,3.787c-3.17-2.08-6.738-3.601-10.576-4.397l-0.555-5.895h-11.45l-0.555,5.895
				c-3.838,0.796-7.406,2.317-10.575,4.397l-4.574-3.787l-8.097,8.096l3.787,4.574c-2.079,3.169-3.601,6.737-4.396,10.576
				l-5.895,0.555v11.45l5.895,0.555c0.796,3.838,2.317,7.407,4.396,10.576l-3.787,4.574l8.097,8.096l4.574-3.787
				c3.169,2.08,6.737,3.601,10.575,4.397l0.555,5.895h11.45L238.509,312.107z M216.729,281.97c0-8.56,6.939-15.5,15.5-15.5
				c8.561,0,15.5,6.94,15.5,15.5c0,8.561-6.939,15.5-15.5,15.5C223.669,297.47,216.729,290.531,216.729,281.97z"/>
			<path style="fill:#E6E6E6;" d="M110.966,360.728l1.744,1.444l3.087-3.088l-1.444-1.744c0.793-1.208,1.373-2.569,1.676-4.033
				l2.248-0.212v-4.366l-2.248-0.212c-0.304-1.464-0.884-2.824-1.677-4.033l1.444-1.744l-3.087-3.088l-1.744,1.444
				c-1.209-0.793-2.569-1.373-4.033-1.677l-0.212-2.248l-4.366,0.001l-0.211,2.248c-1.464,0.303-2.825,0.884-4.033,1.677
				l-1.744-1.444l-3.087,3.088l1.444,1.744c-0.793,1.208-1.373,2.569-1.677,4.033l-2.248,0.212v4.366l2.248,0.212
				c0.304,1.463,0.884,2.824,1.677,4.033l-1.444,1.744l3.087,3.088l1.744-1.444c1.208,0.793,2.569,1.373,4.033,1.677l0.211,2.248
				h4.366l0.212-2.249C108.397,362.101,109.758,361.521,110.966,360.728z M98.629,350.913c0-3.264,2.646-5.91,5.91-5.91
				c3.264,0,5.91,2.646,5.91,5.91s-2.646,5.91-5.91,5.91C101.274,356.823,98.629,354.177,98.629,350.913z"/>
			<path style="fill:#F5F5F5;" d="M235.953,132.071l1.01,0.837l1.789-1.789l-0.837-1.01c0.459-0.7,0.796-1.489,0.971-2.337
				l1.303-0.123v-2.53l-1.303-0.123c-0.176-0.848-0.512-1.637-0.972-2.337l0.837-1.011l-1.789-1.789l-1.01,0.837
				c-0.7-0.459-1.489-0.796-2.337-0.972l-0.123-1.303l-2.53,0l-0.122,1.302c-0.848,0.176-1.637,0.512-2.337,0.972l-1.011-0.837
				l-1.789,1.789l0.837,1.011c-0.459,0.7-0.796,1.489-0.972,2.337l-1.302,0.123v2.53l1.302,0.123
				c0.176,0.848,0.512,1.636,0.972,2.337l-0.837,1.01l1.789,1.789l1.011-0.837c0.7,0.46,1.489,0.796,2.337,0.971l0.122,1.303h2.53
				l0.123-1.303C234.465,132.866,235.253,132.53,235.953,132.071z M228.804,126.384c0-1.891,1.533-3.425,3.425-3.425
				c1.891,0,3.425,1.533,3.425,3.425c0,1.892-1.533,3.425-3.425,3.425C230.337,129.808,228.804,128.275,228.804,126.384z"/>
			<path style="fill:#F0F0F0;" d="M389.279,124.109l1.01,0.837l1.789-1.789l-0.837-1.011c0.46-0.7,0.796-1.489,0.971-2.337
				l1.303-0.123v-2.53l-1.303-0.123c-0.176-0.848-0.512-1.636-0.971-2.337l0.837-1.011l-1.789-1.789l-1.01,0.837
				c-0.7-0.459-1.489-0.796-2.337-0.971l-0.123-1.303l-2.53,0l-0.122,1.302c-0.848,0.176-1.637,0.512-2.337,0.971l-1.011-0.837
				l-1.789,1.789l0.837,1.011c-0.46,0.7-0.796,1.489-0.971,2.337l-1.302,0.123v2.53l1.302,0.123
				c0.176,0.848,0.512,1.637,0.971,2.337l-0.837,1.011l1.789,1.789l1.011-0.837c0.7,0.46,1.489,0.796,2.337,0.972l0.122,1.303h2.53
				l0.123-1.303C387.79,124.905,388.579,124.569,389.279,124.109z M382.13,118.422c0-1.892,1.533-3.425,3.425-3.425
				c1.891,0,3.425,1.533,3.425,3.425c0,1.891-1.533,3.425-3.425,3.425C383.664,121.847,382.13,120.314,382.13,118.422z"/>
			<path style="fill:#EBEBEB;" d="M422.149,284.129l1.744,1.444l3.087-3.088l-1.444-1.744c0.793-1.208,1.373-2.569,1.676-4.033
				l2.248-0.212v-4.366l-2.248-0.212c-0.304-1.464-0.884-2.824-1.677-4.033l1.444-1.744l-3.087-3.088l-1.744,1.444
				c-1.209-0.793-2.569-1.373-4.033-1.677l-0.212-2.248l-4.366,0l-0.211,2.248c-1.464,0.303-2.825,0.884-4.033,1.677l-1.744-1.444
				l-3.087,3.088l1.444,1.744c-0.793,1.208-1.373,2.569-1.677,4.033l-2.248,0.212v4.366l2.248,0.212
				c0.304,1.463,0.884,2.824,1.677,4.033l-1.444,1.744l3.087,3.088l1.744-1.444c1.208,0.793,2.569,1.373,4.033,1.677l0.211,2.248
				h4.366l0.212-2.248C419.58,285.502,420.94,284.922,422.149,284.129z M409.811,274.314c0-3.264,2.646-5.91,5.91-5.91
				c3.264,0,5.91,2.646,5.91,5.91c0,3.264-2.646,5.91-5.91,5.91C412.457,280.224,409.811,277.578,409.811,274.314z"/>
			<path style="fill:#F0F0F0;" d="M302.224,378.846l2.757,2.283l4.881-4.881l-2.283-2.757c1.254-1.911,2.171-4.062,2.65-6.376
				l3.555-0.335v-6.902l-3.554-0.335c-0.48-2.314-1.397-4.465-2.651-6.376l2.283-2.757l-4.881-4.881l-2.757,2.283
				c-1.911-1.253-4.062-2.171-6.376-2.651l-0.335-3.554l-6.903,0.001l-0.334,3.553c-2.314,0.48-4.465,1.397-6.376,2.651
				l-2.758-2.283l-4.881,4.881l2.283,2.757c-1.254,1.91-2.171,4.062-2.651,6.376l-3.553,0.335v6.902l3.553,0.335
				c0.48,2.313,1.397,4.465,2.651,6.376l-2.283,2.757l4.881,4.881l2.758-2.283c1.91,1.254,4.062,2.171,6.376,2.651l0.334,3.554
				h6.903l0.335-3.555C298.161,381.017,300.313,380.1,302.224,378.846z M282.717,363.328c0-5.161,4.183-9.344,9.344-9.344
				c5.16,0,9.344,4.183,9.344,9.344c0,5.161-4.184,9.344-9.344,9.344C286.901,372.673,282.717,368.489,282.717,363.328z"/>
		</g>
	</g>
</g>
<g id="Background_Simple" style="display:none;">
	<g style="display:inline;">
		<path style="fill:#407BFF;" d="M92.848,116.049c27.919-59.449,127.059-51.062,165.317-9.255
			c38.258,41.806,50.696,68.599,85.208,52.983c34.512-15.616,78.518-11.44,81.043,38.164s-37.913,108.263-102.09,125.615
			c-64.177,17.352-64.161,78.759-149.1,66.368c-46.31-6.756-47.365-56.86-40.825-98.301S60.47,184.993,92.848,116.049z"/>
		<path style="opacity:0.9;fill:#FFFFFF;" d="M92.848,116.049c27.919-59.449,127.059-51.062,165.317-9.255
			c38.258,41.806,50.696,68.599,85.208,52.983c34.512-15.616,78.518-11.44,81.043,38.164s-37.913,108.263-102.09,125.615
			c-64.177,17.352-64.161,78.759-149.1,66.368c-46.31-6.756-47.365-56.86-40.825-98.301S60.47,184.993,92.848,116.049z"/>
	</g>
</g>
<g id="Shadow_1_">
	<ellipse id="_x3C_Path_x3E__359_" style="fill:#F5F5F5;" cx="250" cy="416.238" rx="193.889" ry="11.323"/>
</g>
<g id="Hourglass">
	<g>
		<g>
			<path style="fill:#407BFF;" d="M140.88,193.433c-32.337,5.592-57.605,15.602-56.437,22.357l0.542,3.137l0,0
				c1.168,6.756,28.33,7.699,60.667,2.106c32.337-5.592,57.605-15.602,56.436-22.357l-0.542-3.137
				C200.379,188.784,173.218,187.841,140.88,193.433z"/>
			
				<ellipse transform="matrix(0.9854 -0.1704 0.1704 0.9854 -33.4812 27.5132)" style="opacity:0.2;fill:#FFFFFF;" cx="143.538" cy="208.802" rx="59.421" ry="12.414"/>
			<path style="fill:#407BFF;" d="M142.578,203.251c-28.954,5.007-51.579,13.97-50.533,20.019l0.904,5.228l0,0
				c1.046,6.049,25.366,6.893,54.32,1.886c28.955-5.007,51.579-13.97,50.533-20.019l0,0l-0.904-5.228
				C195.853,199.088,171.533,198.244,142.578,203.251z"/>
			<path style="opacity:0.2;fill:#FFFFFF;" d="M92.95,228.497c1.046,6.049,25.366,6.893,54.321,1.886
				c28.954-5.007,51.579-13.97,50.533-20.019c-1.046-6.049-25.366-6.893-54.321-1.886C114.528,213.486,91.904,222.449,92.95,228.497
				z"/>
		</g>
		<g>
			<path style="fill:#407BFF;" d="M172.805,282.636c-5.398-2.845-6.632-9.987-2.504-14.479
				c11.733-12.768,25.933-33.098,22.324-53.964c-0.774-4.477-22.335-4.486-48.159-0.02c-25.823,4.466-46.129,11.715-45.355,16.191
				c3.608,20.866,23.811,35.247,39.15,43.333c5.398,2.845,6.632,9.987,2.504,14.479c-11.733,12.768-25.933,33.098-22.324,53.964
				c0.774,4.477,22.335,4.485,48.159,0.02c25.823-4.466,46.129-11.715,45.355-16.191
				C208.347,305.103,188.144,290.722,172.805,282.636z"/>
			<path style="opacity:0.8;fill:#FFFFFF;" d="M172.805,282.636c-5.398-2.845-6.632-9.987-2.504-14.479
				c11.733-12.768,25.933-33.098,22.324-53.964c-0.774-4.477-22.335-4.486-48.159-0.02c-25.823,4.466-46.129,11.715-45.355,16.191
				c3.608,20.866,23.811,35.247,39.15,43.333c5.398,2.845,6.632,9.987,2.504,14.479c-11.733,12.768-25.933,33.098-22.324,53.964
				c0.774,4.477,22.335,4.485,48.159,0.02c25.823-4.466,46.129-11.715,45.355-16.191
				C208.347,305.103,188.144,290.722,172.805,282.636z"/>
		</g>
		<g>
			<path style="fill:#263238;" d="M209.66,327.169c0.464,4.689-82.722,20.883-88.249,13.687c-0.956-1.25-1.405-3.084-0.621-5.543
				c0.414-1.346,1.208-2.879,2.483-4.609c2.566-3.48,8.234-5.004,12.077-6.408c2.592-0.945,5.205-1.819,7.814-2.719
				c2.793-0.97,5.674-0.297,8.108-2.424c1.457-1.273,2.546-3.158,4.424-3.623c1.384-0.342,2.875,0.206,4.245-0.163
				c1.782-0.477,3.053-2.393,4.893-2.43c0.915-0.018,1.765,0.454,2.662,0.655c1.605,0.341,3.246-0.196,4.88-0.338
				c1.614-0.148,3.232,0.106,4.829,0.346c4.979,0.779,9.983,1.806,15.023,2.069c3.717,0.201,7.825,0.109,11.441,1.133
				c1.41,0.403,2.677,1.608,3.681,3.243l0.01,0.008C208.573,322.025,209.404,324.608,209.66,327.169z"/>
			<path style="opacity:0.2;fill:#FFFFFF;" d="M182.079,317.02c0.072,0.035,0.012,0.017-0.166-0.037
				C181.98,316.991,182.029,317.001,182.079,317.02z"/>
			<path style="opacity:0.2;fill:#FFFFFF;" d="M207.35,320.044c-2.301-2.085-6.549-1.941-7.77-1.852
				c-1.221,0.089-1.645-0.952-2.575-1.288c-0.919-0.328-6.357,0.359-6.357,0.359s2.044,0.387,2.42,1.043
				c0.342,0.625,2.702-0.092,3.005-0.182c-0.316,0.177-3.09,1.64-4.405,0.752c-1.399-0.939-1.846,0.76-2.888,1.184
				c-1.051,0.425-4.319,0.007-4.847-0.174c-0.527-0.171-4.7-0.031-4.7-0.031s1.796-1.051,2.674-0.959
				c0.88,0.101,4.393-1.744,3.674-1.619c-0.719,0.124-2.364-0.828-3.642-1.226c-0.773-0.241-3.247,0.084-4.644,0.297
				c1.69-0.142,3.901,0.45,4.599,0.638c-0.48-0.011-1.365,0.452-2.994,0.949c-1.877,0.578-1.801,0.311-2.757,0.477
				c-0.964,0.167-1.86,1.437-1.86,1.437s-1.654,0.408-3.476,0.601c-1.822,0.193-3.406-0.404-3.406-0.404l3.157-1.033
				c0,0,0,0-1.075-0.311c-1.066-0.312-1.012-0.322-2.285-0.533c-1.274-0.211-1.805,0.996-2.119,1.294
				c-0.323,0.299-3.086,0.037-3.866-0.194c-0.782-0.24-6.552,2.155-6.552,2.155l3.603-0.623c0,0,0.559,0.363,2.958,0.688
				c2.408,0.324,2.757-0.477,3.762-0.407c0.998,0.08,4.367,0.978,4.367,0.978l-1.299,0.346c0,0-1.438,0.249-3.461-0.02
				c-2.024-0.269-3.079,0.785-3.679,0.889c-0.6,0.104-4.056,0.823-4.699,0.681c-0.641-0.133-2.36,0.661-3.299,1.62
				c-0.949,0.961-2.343,1.464-4.158,0.991c-1.816-0.473-4.888,1.754-4.888,1.754s1.608-2.134,2.445-2.278
				c0.846-0.146,3.759-1.887,3.759-1.887s-0.621-0.014-1.34,0.11c-0.728,0.126-1.51-0.114-2.492-0.806
				c-0.982-0.692-2.003-0.15-3.476,0.601c-1.482,0.753-3.052,1.643-4.599,0.552c-1.557-1.09-6.296,2.935-6.296,2.935
				s2.725-0.715,3.149-1.079c0.435-0.356,0.747,0.04,2.15,0.294c1.41,0.243,1.857-0.696,2.544-1.058
				c0.676-0.37,2.76,0.244,2.76,0.244s-0.802,0.401-1.562,0.289c-0.761-0.121-1.985,2.068-2.401,1.83
				c-0.408-0.248-3.311,0.142-4.558,0.788c-1.248,0.638-3.092,2.821-4.94,2.157c-1.57-0.572-5.114,4.239-8.224,4.299
				c0.414-1.346,1.208-2.879,2.483-4.609c2.566-3.48,8.234-5.004,12.077-6.408c2.592-0.945,5.205-1.819,7.814-2.719
				c2.793-0.97,5.674-0.297,8.108-2.424c1.457-1.273,2.546-3.158,4.424-3.623c1.384-0.342,2.875,0.206,4.245-0.163
				c1.782-0.477,3.053-2.393,4.893-2.43c0.915-0.018,1.765,0.454,2.662,0.655c1.605,0.341,3.246-0.196,4.88-0.338
				c1.614-0.148,3.232,0.106,4.829,0.346c4.979,0.779,9.983,1.806,15.023,2.069c3.717,0.201,7.825,0.109,11.441,1.133
				C205.078,317.203,206.346,318.409,207.35,320.044z"/>
		</g>
		<g>
			<path style="fill:#407BFF;" d="M163.796,325.949c-28.954,5.007-51.578,13.97-50.532,20.019l0.904,5.228l0,0
				c1.046,6.049,25.366,6.893,54.321,1.886c28.955-5.007,51.579-13.97,50.533-20.019l0,0l-0.904-5.228
				C217.071,321.787,192.751,320.942,163.796,325.949z"/>
			<path style="fill:#407BFF;" d="M165.414,335.299c-32.337,5.592-57.605,15.602-56.437,22.358l0.542,3.137l0,0
				c1.168,6.756,28.33,7.699,60.667,2.107c32.337-5.592,57.605-15.602,56.436-22.357l-0.542-3.137
				C224.912,330.65,197.751,329.707,165.414,335.299z"/>
			<g>
				<path style="opacity:0.2;fill:#FFFFFF;" d="M128.165,366.477c-0.805-0.028-1.582-0.067-2.345-0.111
					C126.582,366.41,127.359,366.449,128.165,366.477z"/>
				<path style="opacity:0.2;fill:#FFFFFF;" d="M182.057,360.585c-0.07,0.015-0.14,0.03-0.209,0.046
					C181.918,360.616,181.987,360.6,182.057,360.585z"/>
				<path style="opacity:0.2;fill:#FFFFFF;" d="M115.701,364.961c0.323,0.085,0.655,0.166,1.001,0.244
					C116.357,365.128,116.024,365.046,115.701,364.961z"/>
				<path style="opacity:0.2;fill:#FFFFFF;" d="M165.414,335.299c-32.337,5.592-57.605,15.602-56.437,22.358l0.542,3.137
					c0.175,1.011,0.943,1.889,2.212,2.637c-1.269-0.748-2.037-1.626-2.212-2.637c-1.168-6.756,24.099-16.765,56.436-22.357
					c32.337-5.592,59.499-4.649,60.667,2.107l0,0l-0.542-3.137C224.912,330.65,197.751,329.707,165.414,335.299z"/>
			</g>
		</g>
		<g>
			<path style="fill:#263238;" d="M160.474,274.278c-0.639,4.992-2.466,12.572-3.288,17.625c-0.822,5.053,1.644,12.876,2.374,15.251
				c0.731,2.374,5.656,1.988,5.464,3.885c-0.192,1.898,7.35,2.214,7.35,2.214s-35.412,13.994-38.962,13.108
				c-3.55-0.886,6.635-7.884,8.599-8.34c1.963-0.457,3.03-1.674,4.323-4.475c1.293-2.801,2.68-2.295,4.057-5.105
				c0.611-1.247,2.058-3.378,3.316-6.492c1.576-3.901,2.931-15.891,1.287-16.896c-1.711-1.046-0.159,9.184-1.571,9.523
				c-1.412,0.34,1.845-10.08-2.462-15.342C146.654,273.974,160.474,274.278,160.474,274.278z"/>
			<path style="opacity:0.2;fill:#FFFFFF;" d="M172.375,313.253c0,0-35.412,13.998-38.958,13.112
				c-3.268-0.813,5.088-6.805,7.978-8.116c0.194,2.059,5.743-0.046,7.941-1.265c2.188-1.219,2.373-0.332,3.186-0.693
				c0.813-0.369,6.944-4.94,6.307-4.755c-0.637,0.185-5.208,3.564-6.307,2.465c-1.108-1.09-2.918,1.007-4.284,1.644
				c-1.182,0.563-1.477-0.12-2.456-0.969c0.185-0.342,0.369-0.72,0.554-1.127c1.293-2.798,2.678-2.299,4.053-5.106
				c0.609-1.247,2.059-3.38,3.315-6.491c1.579-3.906,2.936-15.891,1.293-16.898c-1.708-1.043-0.157,9.188-1.57,9.52
				c-1.413,0.342,1.838-10.074-2.466-15.337c-4.303-5.263,9.511-4.959,9.511-4.959c-0.637,4.995-2.466,12.576-3.287,17.627
				c-0.536,3.306,0.332,7.802,1.21,11.182c-0.231,0.822-0.554,1.57-0.933,1.69c-0.914,0.277-1.551,3.38-2.742,3.472
				c-1.182,0.092-0.185,2.281,1.459,1.376c1.09-0.6,2.807-0.97,4.017-1.524c1.542,1.367,4.996,1.348,4.829,2.936
				C164.831,312.939,172.375,313.253,172.375,313.253z"/>
		</g>
		<g>
			<path style="fill:#263238;" d="M179.678,251.424c-0.175,0.286-0.323,0.517-0.415,0.683c-1.376,2.475-2.909,4.866-4.525,7.184
				c-1.634,2.355-3.342,4.866-5.429,6.87c-1.921,1.847-3.878,2.715-5.032,4.931c-0.259,0.489-0.48,1.062-0.646,1.727
				c-0.425,1.671-0.554,3.684-2.013,4.617c-0.341,0.212-0.729,0.351-1.025,0.619c-0.73,0.628-0.693,1.727-0.886,2.669
				c-0.194,0.933-1.099,1.967-1.948,1.533c-0.72-0.369-0.933-1.607-1.745-1.561c-0.212,0.018-0.397,0.129-0.591,0.185
				c-0.822,0.212-1.579-0.434-2.207-0.988c-0.628-0.554-1.533-1.09-2.253-0.656c-2.271-2.115-4.644-3.749-7.138-5.226
				c-2.087-1.256-4.247-2.391-6.51-3.61c-5.023-2.715-10.804-5.402-14.303-8.163c-1.284-1.025-2.272-2.05-2.789-3.093
				c-0.212-0.434-0.351-0.859-0.406-1.293c-0.572-4.94,14.71-6.408,20.01-10.092c5.291-3.675,13.555-1.32,17.027-2.087
				c3.49-0.766,7.378,0.323,11.044,0.046c3.657-0.277,5.937-1.33,8.07,0.231c2.124,1.57,4.516,1.09,4.968,2.281
				C181.202,248.949,180.297,250.445,179.678,251.424z"/>
			<path style="opacity:0.2;fill:#FFFFFF;" d="M175.025,249.863c-3.167-0.609,3.287-0.729,2.798-1.099
				c-0.48-0.36-2.068-1.579-5.596-1.459c-3.537,0.12-6.455-0.12-7.202,0c-0.748,0.12,2.447,1.099,2.447,1.099s-5.596,0-8.273,0
				c-2.678,0,1.828-1.099,1.828-1.099s-2.558,0-5.494,0h-8.394c0.37,0,3.047,1.588,1.459,1.588c-1.579,0-3.287,0.849-5.475,1.699
				c-2.189,0.859-4.996,1.708-5.356,1.708c-0.36,0,5.014-4.007,5.337-4.257c-0.333,0.139-4.802,1.958-6.676,2.549
				c-1.948,0.609-6.944,2.318-7.433,2.438c-0.48,0.12,2.807,0,2.807,0s-3.776,1.948-5.725,2.188
				c-1.459,0.185-4.959,1.385-5.854,3.924c0.517,1.043,1.505,2.068,2.789,3.093c3.499,2.761,9.28,5.448,14.303,8.163
				c2.262,1.219,4.423,2.355,6.51,3.61c2.493,1.478,4.866,3.112,7.138,5.226c0.72-0.434,1.625,0.102,2.253,0.656
				c0.628,0.554,1.385,1.2,2.207,0.988c0.194-0.055,0.379-0.166,0.591-0.185c0.813-0.046,1.025,1.191,1.745,1.561
				c0.85,0.434,1.754-0.6,1.948-1.533c0.194-0.942,0.157-2.041,0.886-2.669c0.295-0.268,0.683-0.406,1.025-0.619
				c1.459-0.933,1.588-2.946,2.013-4.617c0.166-0.665,0.388-1.237,0.646-1.727c1.154-2.216,3.112-3.084,5.032-4.931
				c2.087-2.004,3.795-4.515,5.429-6.87c1.616-2.318,3.149-4.709,4.525-7.184C178.137,250.214,178.192,250.473,175.025,249.863z
				 M129.79,262.771c-1.062-0.125,2.374-1.187,2.374-1.187S131.342,262.954,129.79,262.771z M130.429,258.662
				c0,0,1.735-1.37,2.466-1.279c0.731,0.091,2.101-0.004,2.101-0.004S132.255,259.21,130.429,258.662z M144.219,269.347
				c-1.247-0.234,1.326-1.005,1.941-0.822C146.776,268.707,145.68,269.621,144.219,269.347z M150.391,255.374
				c0,0-5.303,1.553-4.231,1.553c0.814,0,1.744,0,1.986,0c-0.365,0-5.845,1.194-6.119,1.145c-0.274-0.049,3.259-1.846,3.259-1.846
				s-0.387-0.486-0.362-0.669c0.025-0.183,1.236-0.548,1.236-0.548c0.433-0.365,2.351-0.913,3.081-0.457
				c0.731,0.457,2.648,0.457,2.648,0.457L150.391,255.374z M152.62,266.242c-1.482-1.347,2.913,0,2.913,0
				S153.625,267.155,152.62,266.242z M154.995,251.721c2.009-1.37,2.496,0,2.496,0S154.346,252.164,154.995,251.721z
				 M161.922,257.018c-0.535-0.274-1.539-0.792-1.539-0.792s1.272-0.748,2.1-0.76c1.382-0.021,2.283,0.425,2.831,0.76
				C165.862,256.561,162.456,257.292,161.922,257.018z M165.862,263.735c0,0-2.466-0.051-2.701,0
				c-0.236,0.05,1.697-0.69,2.701-0.947V263.735z M169.68,253.852c0,0,1.753-0.378,2.575,0.527
				C173.362,255.597,169.68,253.852,169.68,253.852z"/>
		</g>
	</g>
</g>
<g id="Paper_stack">
	<g>
		<g>
			<path style="fill:#407BFF;" d="M319.537,394.881l8.058,2.429h44.079l0.974-17.664l-8.523-3.653c0,0,1.582-13.654,4.139-28.283
				l5.846-0.184l12.42-48.976l-7.062-3.053l5.114-16.225h7.671l8.177-22.767c0,0-29.388-11.715-46.91-13.267l-15.696,2.633
				l-1.096,20.441l-12.785,1.686l-2.516,22.028l9.091,1.565l-5.845,46.797l-13.136,3.696l-2.29,32.224l11.438,2.348L319.537,394.881
				z"/>
			<path style="opacity:0.6;fill:#FFFFFF;" d="M384.585,279.273l-5.116,16.224l7.064,3.056l-12.429,48.976l-5.845,0.185
				c-2.558,14.626-4.137,28.274-4.137,28.274l8.523,3.657l-0.969,17.664h-44.082l-8.061-2.428l1.154-18.227l-11.441-2.345
				l2.234-31.441l0.056-0.785l13.14-3.694l5.845-46.797l-9.095-1.56l2.521-22.032l12.78-1.69l1.099-20.434l15.697-2.641
				c17.516,1.561,46.908,13.269,46.908,13.269l-8.181,22.771H384.585z"/>
			<polygon style="opacity:0.4;fill:#FFFFFF;" points="372.646,379.645 329.053,380.863 320.687,376.653 330.272,378.426 
				364.123,375.988 			"/>
			<polygon style="opacity:0.4;fill:#FFFFFF;" points="368.26,347.714 336.727,347.806 311.481,342.866 311.537,342.082 
				324.676,338.388 338.555,346.708 			"/>
			<polygon style="opacity:0.2;enable-background:new    ;" points="379.47,295.497 340.568,291.693 330.522,291.591 
				321.426,290.031 340.014,287.898 			"/>
			<polygon style="opacity:0.2;enable-background:new    ;" points="392.249,279.273 384.585,279.273 353.892,265.247 
				336.727,266.309 354.834,263.973 			"/>
			<polygon style="opacity:0.2;fill:#FFFFFF;" points="353.523,243.234 354.834,263.973 336.727,266.309 337.825,245.875 			"/>
			<polygon style="opacity:0.2;fill:#FFFFFF;" points="340.014,287.898 345.011,266.309 323.947,267.999 321.426,290.031 			"/>
			<polygon style="opacity:0.2;fill:#FFFFFF;" points="330.522,291.591 349.573,292.573 338.555,346.708 324.676,338.388 			"/>
			<polygon style="opacity:0.2;fill:#FFFFFF;" points="311.481,342.866 336.727,347.806 331.628,378.328 309.247,374.307 			"/>
			<polygon style="opacity:0.2;fill:#FFFFFF;" points="329.053,380.863 327.594,397.309 319.533,394.88 320.685,376.656 			"/>
		</g>
		<polygon style="fill:#407BFF;" points="313.399,349.691 335.569,354.738 361.689,353.588 336.727,359.189 		"/>
		<polygon style="fill:#407BFF;" points="320.349,381.974 328.51,386.983 348.234,386.983 324.293,388.899 316.271,383.42 		"/>
		<polygon style="fill:#407BFF;" points="337.125,391.859 371.975,391.859 375.996,394.881 		"/>
		<polygon style="fill:#407BFF;" points="329.97,362.781 310.454,357.316 306.956,359.189 		"/>
		<polygon style="fill:#407BFF;" points="335.814,370.452 365.151,367.935 368.26,369.194 		"/>
		<polygon style="fill:#407BFF;" points="345.011,338.388 376.713,337.253 379.47,339.585 		"/>
		<polygon style="fill:#407BFF;" points="368.26,331.731 342.206,328.771 326.134,322.781 320.687,322.781 339.871,330.818 		"/>
		<polygon style="fill:#407BFF;" points="332.253,308.352 345.399,313.082 386.407,316.389 382.706,313.637 345.011,311.272 		"/>
		<polygon style="fill:#407BFF;" points="336.727,280.956 318.463,281.869 322.987,284.06 		"/>
		<polygon style="fill:#407BFF;" points="329.053,273.467 342.938,271.623 378.736,284.06 342.755,274.746 		"/>
		<polygon style="fill:#407BFF;" points="373.44,266.309 352.07,254.772 330.883,261.412 337.125,263.087 354.834,260.54 		"/>
		<polygon style="fill:#407BFF;" points="366.864,258.307 399.01,271.623 394.998,271.623 		"/>
		<path style="fill:#407BFF;" d="M356.636,248.262l16.073,1.827l25.038,13.885C397.746,263.973,365.403,249.906,356.636,248.262z"/>
		<polygon style="fill:#407BFF;" points="329.604,297.576 337.544,299.585 326.317,298.581 		"/>
		<g>
			<polygon style="opacity:0.7;fill:#FFFFFF;" points="313.399,349.691 335.569,354.738 361.689,353.588 336.727,359.189 			"/>
			<polygon style="opacity:0.7;fill:#FFFFFF;" points="320.349,381.974 328.51,386.983 348.234,386.983 324.293,388.899 
				316.271,383.42 			"/>
			<polygon style="opacity:0.7;fill:#FFFFFF;" points="337.125,391.859 371.975,391.859 375.996,394.881 			"/>
			<polygon style="opacity:0.7;fill:#FFFFFF;" points="329.97,362.781 310.454,357.316 306.956,359.189 			"/>
			<polygon style="opacity:0.7;fill:#FFFFFF;" points="335.814,370.452 365.151,367.935 368.26,369.194 			"/>
			<polygon style="opacity:0.7;fill:#FFFFFF;" points="345.011,338.388 376.713,337.253 379.47,339.585 			"/>
			<polygon style="opacity:0.7;fill:#FFFFFF;" points="368.26,331.731 342.206,328.771 326.134,322.781 320.687,322.781 
				339.871,330.818 			"/>
			<polygon style="opacity:0.7;fill:#FFFFFF;" points="332.253,308.352 345.399,313.082 386.407,316.389 382.706,313.637 
				345.011,311.272 			"/>
			<polygon style="opacity:0.7;fill:#FFFFFF;" points="336.727,280.956 318.463,281.869 322.987,284.06 			"/>
			<polygon style="opacity:0.7;fill:#FFFFFF;" points="329.053,273.467 342.938,271.623 378.736,284.06 342.755,274.746 			"/>
			<polygon style="opacity:0.7;fill:#FFFFFF;" points="373.44,266.309 352.07,254.772 330.883,261.412 337.125,263.087 
				354.834,260.54 			"/>
			<polygon style="opacity:0.7;fill:#FFFFFF;" points="366.864,258.307 399.01,271.623 394.998,271.623 			"/>
			<path style="opacity:0.7;fill:#FFFFFF;" d="M356.636,248.262l16.073,1.827l25.038,13.885
				C397.746,263.973,365.403,249.906,356.636,248.262z"/>
			<polygon style="opacity:0.7;fill:#FFFFFF;" points="329.604,297.576 337.544,299.585 326.317,298.581 			"/>
		</g>
		<polygon style="opacity:0.1;enable-background:new    ;" points="335.814,302.69 346.667,305.43 377.191,308.352 346.667,306.855 
					"/>
		<polygon style="opacity:0.1;enable-background:new    ;" points="332.253,294.654 349.573,295.497 382.024,301.047 
			348.555,297.576 		"/>
		<polygon style="opacity:0.1;enable-background:new    ;" points="327.595,284.974 341.187,282.83 375.631,290.818 340.902,284.06 
					"/>
		<polygon style="opacity:0.1;enable-background:new    ;" points="330.883,278.17 342.341,277.842 377.191,286.824 342.01,279.273 
					"/>
		<polygon style="opacity:0.1;enable-background:new    ;" points="323.528,271.623 340.928,269.631 323.528,272.919 		"/>
		<polygon style="opacity:0.1;enable-background:new    ;" points="322.987,276.366 329.053,276.366 322.987,277.842 		"/>
		<polygon style="opacity:0.1;enable-background:new    ;" points="337.544,251.082 353.841,248.262 375.631,256.117 
			354.037,250.088 337.544,252.19 		"/>
		<polygon style="opacity:0.1;enable-background:new    ;" points="393.733,275.144 368.873,267.379 393.029,277.104 		"/>
		<polygon style="opacity:0.1;enable-background:new    ;" points="350.448,253.011 354.089,252.19 393.733,264.965 
			354.262,253.498 		"/>
		<polygon style="opacity:0.1;enable-background:new    ;" points="399.782,258.307 385.555,253.254 399.01,259.586 		"/>
		<polygon style="opacity:0.1;enable-background:new    ;" points="329.053,314.014 344.263,318.663 378.736,321.442 
			343.936,320.271 		"/>
		<polygon style="opacity:0.1;enable-background:new    ;" points="325.769,328.383 341.082,334.293 375.631,335.08 340.922,335.08 
					"/>
		<polygon style="opacity:0.1;enable-background:new    ;" points="369.36,344.334 339.871,341.046 327.595,336.054 
			339.337,342.866 		"/>
		<path style="opacity:0.1;enable-background:new    ;" d="M379.618,325.802c-0.273-0.098-23.774-0.707-23.774-0.707l23.405,2.161
			L379.618,325.802z"/>
		<polygon style="opacity:0.1;" points="311.035,345.186 336.245,350.686 353.895,350.686 336.064,351.772 311.481,346.708 		"/>
		<path style="opacity:0.1;" d="M366.603,357.856c-0.008,0.055-24.517,2.741-24.517,2.741l24.309-1.371L366.603,357.856z"/>
		<path style="opacity:0.1;" d="M316.271,356.145c-0.327-0.164,15.221,3.082,15.221,3.082S321.808,358.915,316.271,356.145z"/>
		<polygon style="opacity:0.1;" points="310.066,362.781 331.492,367.935 310.066,364.425 		"/>
		<polygon style="opacity:0.1;" points="314.079,370.452 332.253,374.589 359.33,374.044 332.253,375.988 		"/>
		<polygon style="opacity:0.1;" points="338.676,365.358 357.671,365.358 342.085,366.129 		"/>
		<path style="opacity:0.1;" d="M322.987,380.863l5.841,2.547c0,0,31.066-0.253,30.503,0c-0.563,0.253-30.623,1.35-30.623,1.35
			L322.987,380.863z"/>
		<path style="opacity:0.1;" d="M368.26,388.899c0,0-29.021,0.731-28.389,0.731c0.632,0,24.01,0,24.01,0L368.26,388.899z"/>
		<path style="opacity:0.1;" d="M372.646,382.812c0,0-4.756-0.486-4.386,0c0.37,0.486,4.151,1.109,4.151,1.109L372.646,382.812z"/>
		<polygon style="opacity:0.1;" points="322.987,391.859 327.986,392.898 354.839,394.881 327.867,394.238 		"/>
	</g>
</g>
<g id="Character">
	<g>
		<path style="fill:#263238;" d="M271.513,183.516c6.434,2.867,18.557,2.477,23.206-7.713c4.648-10.19,4.317-18.93-6.195-23.835
			c-10.512-4.905-23.785,1.35-24.914,10.626C262.481,171.868,261.348,178.986,271.513,183.516z"/>
		<g>
			<path style="fill:#2E353A;" d="M147.459,378.615c0.695-0.978,1.205-2.076,1.506-3.238l0,0c0,0,3.163-3.618,13.23-5.897
				l0.882-4.531c0.278-1.574-0.456-3.154-1.839-3.956c-0.188-0.112-0.391-0.196-0.604-0.247c-1.105-0.161-2.219-0.25-3.335-0.268
				c-3.47-0.232-11.172,0.639-11.172,0.639l0.051,0.806l7.032-0.121c2.388-0.031-0.29,1.967-2.82,2.65
				c-2.53,0.683-5.188,1.963-4.988,7.189C145.666,377.735,146.064,380.246,147.459,378.615z"/>
			<path style="fill:#E4897B;" d="M164.788,369.118c0,0-12.921,3.429-15.824,6.259c0,0-1.783-4.864,4.879-8.323
				c8.615-4.472,6.79-6.308,6.79-6.308s2.521,0.734,3.691,1.43C166.579,363.517,164.788,369.118,164.788,369.118z"/>
		</g>
		<g>
			<path style="fill:#2E353A;" d="M348.28,409.802c-1.2-0.02-2.394,0.179-3.522,0.589l0,0c0,0-4.773-0.564-12.344-7.579
				l-4.236,1.834c-1.456,0.66-2.344,2.159-2.223,3.753c0.013,0.218,0.06,0.433,0.138,0.638c0.492,1.002,1.048,1.971,1.664,2.902
				c1.771,2.993,6.843,8.854,6.843,8.854l0.636-0.497l-4.076-5.732c-1.375-1.952,1.786-0.873,3.78,0.828
				c1.994,1.701,4.552,3.17,8.749,0.051C348.568,411.778,350.415,410.03,348.28,409.802z"/>
			<path style="fill:#E4897B;" d="M330.65,400.876c0,0,10.133,8.72,14.108,9.514c0,0-3.004,4.22-9.623,0.68
				c-8.559-4.578-9.042-2.035-9.042-2.035s-0.82-2.494-0.907-3.854C325.018,402.565,330.65,400.876,330.65,400.876z"/>
		</g>
		<path style="fill:#263238;" d="M286.075,199.114c3.294,2.251,8.726,23.101,10.367,24.449c1.641,1.348,13.766-5.175,13.766-5.175
			l2.651,5.907c0,0-18.32,11.205-20.838,9.099c-2.517-2.106-10.759-24.681-10.759-24.681L286.075,199.114z"/>
		<path style="opacity:0.2;fill:#FFFFFF;" d="M286.075,199.114c3.294,2.251,8.726,23.101,10.367,24.449
			c1.641,1.348,13.766-5.175,13.766-5.175l2.651,5.907c0,0-18.32,11.205-20.838,9.099c-2.517-2.106-10.759-24.681-10.759-24.681
			L286.075,199.114z"/>
		<g>
			<path style="fill:#263238;" d="M218.761,219.134l12.474,12.604c0,0,38.096,12.981,47.593-0.812c0,0-4.138-20.731-14.822-24.282
				C253.32,203.093,218.761,219.134,218.761,219.134z"/>
			<path style="opacity:0.1;fill:#FFFFFF;" d="M218.761,219.134l12.474,12.604c0,0,38.096,12.981,47.593-0.812
				c0,0-4.138-20.731-14.822-24.282C253.32,203.093,218.761,219.134,218.761,219.134z"/>
		</g>
		<path style="fill:#E4897B;" d="M309.538,223.855l7.549-4.117l3.566-8.46c0,0,3.833,1.377,4.342,1.77
			c0.509,0.393-1.595,7.38-2.123,7.826c-0.527,0.447-3.533,0.786-3.533,0.786l-7.186,4.548L309.538,223.855z"/>
		<g>
			<path style="fill:#407BFF;" d="M243.265,188.221c0,0,24.736-0.569,42.81,10.893c0,0-2.714,20.935-11.104,41.27l-36.265-5.996
				c0,0,3.883-10.331-0.414-30.992L243.265,188.221z"/>
			<path style="opacity:0.6;fill:#FFFFFF;" d="M243.265,188.221c0,0,24.736-0.569,42.81,10.893c0,0-2.714,20.935-11.104,41.27
				l-36.265-5.996c0,0,3.883-10.331-0.414-30.992L243.265,188.221z"/>
			<g>
				<path style="fill:#263238;" d="M253.964,187.093c5.034,21.242-17.031,40.249-33.79,40.476l-4.34-9.205l17.91-7.475l9.52-22.667
					L253.964,187.093z"/>
				<path style="fill:#263238;" d="M278.486,194.465c0,0-3.362,29.701,0.342,36.461c0,0,6.332-11.589,7.762-31.323
					C286.59,199.603,282.478,196.038,278.486,194.465z"/>
				<path style="opacity:0.3;fill:#FFFFFF;" d="M253.964,187.093c5.034,21.242-17.031,40.249-33.79,40.476l-4.34-9.205l17.91-7.475
					l9.52-22.667L253.964,187.093z"/>
				<path style="opacity:0.3;fill:#FFFFFF;" d="M278.486,194.465c0,0-3.362,29.701,0.342,36.461c0,0,6.332-11.589,7.762-31.323
					C286.59,199.603,282.478,196.038,278.486,194.465z"/>
				<g>
					<path style="fill:#263238;" d="M259.497,187.376c0,0-4.464-2.43-11.924,2.192l4.566,3.241l-3.391,3.834
						c0,0,0.3,9.897-4.751,19.836c0,0,8.125-8.285,10.857-17.347C257.587,190.069,256.357,188.016,259.497,187.376z"/>
					<path style="fill:#263238;" d="M274.159,191.402c0,0,5.361,1.157,10.01,7.337l-2.861,0.53l2.786,4.832l-6.982,15.596
						c0,0-0.741-12.025-0.388-19.241C276.967,195.486,274.159,191.402,274.159,191.402z"/>
					<path style="opacity:0.2;fill:#FFFFFF;" d="M259.497,187.376c0,0-4.464-2.43-11.924,2.192l4.566,3.241l-3.391,3.834
						c0,0,0.3,9.897-4.751,19.836c0,0,8.125-8.285,10.857-17.347C257.587,190.069,256.357,188.016,259.497,187.376z"/>
					<path style="opacity:0.2;fill:#FFFFFF;" d="M274.159,191.402c0,0,5.361,1.157,10.01,7.337l-2.861,0.53l2.786,4.832
						l-6.982,15.596c0,0-0.741-12.025-0.388-19.241C276.967,195.486,274.159,191.402,274.159,191.402z"/>
				</g>
			</g>
		</g>
		<path style="fill:#263238;" d="M274.827,289.191c-6.045,24.939-23.507,58.135-26.912,64.565
			c-2.669,5.065-13.212,6.759-26.015,8.244c-24.671,2.861-57.896,7.392-57.896,7.392l-0.044-7.781c0,0,67.099-15.807,68.186-19.424
			c1.525-5.11,3.317-29.409,4.915-49.852c0.189-2.283,0.364-4.512,0.535-6.665c0.285-3.544,0.544-6.828,0.766-9.666
			c0.515-6.513,0.84-10.733,0.84-10.733l35.849-25.317C275.051,239.954,282.39,257.988,274.827,289.191z"/>
		<path style="opacity:0.2;enable-background:new    ;" d="M274.827,289.191c-6.045,24.939-23.507,58.135-26.912,64.565
			c-2.669,5.065-13.212,6.759-26.015,8.244c-24.671,2.861-57.896,7.392-57.896,7.392l-0.044-7.781c0,0,67.099-15.807,68.186-19.424
			c1.525-5.11,3.317-29.409,4.915-49.852c0.189-2.283,0.364-4.512,0.535-6.665c0.285-3.544,0.544-6.828,0.766-9.666
			c0.515-6.513,0.84-10.733,0.84-10.733l35.849-25.317C275.051,239.954,282.39,257.988,274.827,289.191z"/>
		<path style="fill:#263238;" d="M292.004,320.045c-3.382-7.399-32.507-53.53-32.507-53.53l-28.617,4.84
			c9.227,27.073,42.088,54.728,47.662,61.902c5.574,7.173,46.948,71.184,46.948,71.184l5.089-3.603
			C330.58,400.839,299.163,335.708,292.004,320.045z"/>
		<path style="fill:#263238;" d="M238.706,234.387l37.667,2.457l-0.695,4.312c0,0-4.029,19.373-19.883,29.639l-24.914,0.56
			c0,0-2.912-15.784,6.903-34.083L238.706,234.387z"/>
		<g>
			<g>
				<polygon points="251.865,235.637 239.451,234.905 238.511,237.8 251.587,238.785 				"/>
				<polygon points="253.428,235.729 253.148,238.902 274.916,240.542 275.124,237.008 				"/>
			</g>
			<g>
				<path style="fill:none;stroke:#FFFFFF;stroke-linecap:round;stroke-linejoin:round;stroke-miterlimit:10;" d="M268.904,240.656
					l-3.966-0.234c-0.371-0.022-0.655-0.341-0.633-0.712l0.157-2.656c0.022-0.371,0.341-0.655,0.712-0.633l3.966,0.234
					c0.371,0.022,0.655,0.341,0.633,0.712l-0.157,2.656C269.595,240.394,269.276,240.678,268.904,240.656z"/>
				
					<line style="fill:none;stroke:#FFFFFF;stroke-linecap:round;stroke-linejoin:round;stroke-miterlimit:10;" x1="268.128" y1="238.602" x2="269.635" y2="238.691"/>
			</g>
		</g>
		<g>
			<path style="fill:#E4897B;" d="M270.967,213.985l10.294-5.273c0,0,1.547-2.209,2.654-2.714c1.107-0.505,10.803,0.96,10.803,0.96
				l-3.63,7.677c0,0-7.174-0.419-7.937-1.008l-9.416,5.039L270.967,213.985z"/>
			<path style="fill:#263238;" d="M243.265,188.221c-9.465,2.454,4.769,37.183,11.004,39.146
				c6.235,1.964,26.249-11.507,26.249-11.507l-3.435-5.781c0,0-17.492,6.982-19.091,6.229c-1.599-0.753-8.062-18.218-9.209-21.336
				C247.638,191.853,243.265,188.221,243.265,188.221z"/>
			<path style="opacity:0.2;fill:#FFFFFF;" d="M243.265,188.221c-9.465,2.454,4.769,37.183,11.004,39.146
				c6.235,1.964,26.249-11.507,26.249-11.507l-3.435-5.781c0,0-17.492,6.982-19.091,6.229c-1.599-0.753-8.062-18.218-9.209-21.336
				C247.638,191.853,243.265,188.221,243.265,188.221z"/>
			<path style="opacity:0.6;fill:#FFFFFF;" d="M278.746,215.86c-0.036,0.185-0.215,0.305-0.4,0.269
				c-0.185-0.036-0.305-0.215-0.269-0.4c0.036-0.185,0.215-0.305,0.4-0.269C278.662,215.496,278.782,215.675,278.746,215.86z"/>
			<path style="opacity:0.6;fill:#FFFFFF;" d="M276.353,217.34c-0.036,0.185-0.215,0.305-0.4,0.269
				c-0.185-0.036-0.305-0.215-0.269-0.4c0.036-0.185,0.215-0.305,0.4-0.269C276.269,216.976,276.389,217.156,276.353,217.34z"/>
		</g>
		<g>
			<path style="fill:#263238;" d="M328.426,197.68l-12.704,32.939c-0.298,0.772-1.196,1.238-2.001,1.038l-23.27-5.791
				c-0.805-0.2-1.218-0.993-0.92-1.765l12.704-32.939c0.298-0.772,1.196-1.238,2.001-1.038l23.27,5.791
				C328.31,196.115,328.724,196.908,328.426,197.68z"/>
			<path style="opacity:0.3;fill:#FFFFFF;" d="M328.426,197.68l-12.704,32.939c-0.298,0.772-1.196,1.238-2.001,1.038l-22.212-5.528
				c-0.805-0.2-1.218-0.993-0.92-1.765l12.704-32.939c0.298-0.772,1.196-1.238,2.001-1.038l22.212,5.528
				C328.31,196.115,328.724,196.908,328.426,197.68z"/>
			<path style="opacity:0.3;fill:#FFFFFF;" d="M310.581,208.785c-1.156-0.288-2.44,0.378-2.868,1.488
				c-0.428,1.109,0.163,2.242,1.318,2.529c1.156,0.288,2.44-0.378,2.868-1.487C310.743,211.027,310.153,209.894,310.581,208.785z"/>
		</g>
		<g>
			<path style="fill:#407BFF;" d="M252.362,195.78c0,0,1.47-6.622,4.073-7.998c2.603-1.376,15.071,0.808,19.402,4.874
				c4.331,4.066,4.804,10.01,4.804,10.01l-5.573-2.359l-8.453,9.523l-6.627-13.331L252.362,195.78z"/>
			<path style="opacity:0.5;fill:#FFFFFF;" d="M252.362,195.78c0,0,1.47-6.622,4.073-7.998c2.603-1.376,15.071,0.808,19.402,4.874
				c4.331,4.066,4.804,10.01,4.804,10.01l-5.573-2.359l-8.453,9.523l-6.627-13.331L252.362,195.78z"/>
		</g>
		<path style="fill:#E4897B;" d="M264.881,188.048c7.19,0.555,10.923,5.525,9.978,9.589l-4.472,0.62l-3.594,9.802l-1.421-10.89
			l-4.513-2.868C260.859,194.302,257.974,187.514,264.881,188.048z"/>
		<path style="fill:#E4897B;" d="M267.531,198.771c-6.862-5.415-6.062-9.65-6.062-9.65c3.374-1.857,5.614-5.881,6.42-8.983
			c0.455-1.711,0.543-2.981,0.543-2.981l7.944,7.044c-1.12,1.337-1.969,2.519-2.607,3.561c-0.709,1.139-1.15,2.108-1.408,2.919
			c-0.997,3.039,0.505,3.991,0.505,3.991C272.674,198.551,267.531,198.771,267.531,198.771z"/>
		<path style="opacity:0.2;enable-background:new    ;" d="M273.611,187.192c-0.558,1.22-0.873,2.237-1.026,3.075
			c-3.577-2.162-5.123-6.459-5.776-9.888c0.233-1.755,0.159-3.026,0.159-3.026l8.776,5.976
			C274.803,184.798,274.111,186.078,273.611,187.192z"/>
		<g>
			<path style="fill:#E4897B;" d="M286.352,160.497c8.177,3.95,8.694,9.6,5.223,18.316c-4.339,10.893-10.288,17.246-19.426,10.058
				C259.739,179.108,272.772,153.937,286.352,160.497z"/>
			<path style="fill:#DE5753;" d="M286.51,175.802c0,0,0.101,2.683,0.741,4.541c0,0-1.237,0.774-2.602-0.116L286.51,175.802z"/>
			<g>
				<path style="fill:#263238;" d="M281.828,172.716c-0.309,0.679-0.926,1.063-1.379,0.857c-0.453-0.206-0.57-0.923-0.261-1.603
					c0.309-0.679,0.926-1.063,1.379-0.857C282.02,171.319,282.137,172.036,281.828,172.716z"/>
				<path style="fill:#263238;" d="M281.363,171.06l1.741,0.092C283.104,171.152,281.803,172.061,281.363,171.06z"/>
			</g>
			<g>
				<path style="fill:#263238;" d="M290.337,176.413c-0.309,0.679-0.926,1.063-1.379,0.857c-0.453-0.206-0.57-0.923-0.261-1.603
					c0.309-0.679,0.926-1.063,1.379-0.857C290.529,175.016,290.646,175.734,290.337,176.413z"/>
				<path style="fill:#263238;" d="M289.872,174.757l1.741,0.092C291.613,174.849,290.312,175.758,289.872,174.757z"/>
			</g>
			
				<path style="fill:none;stroke:#263238;stroke-width:0.708;stroke-linecap:round;stroke-linejoin:round;stroke-miterlimit:10;" d="
				M284.153,167.923c0,0-1.306-2.217-3.503-2.264"/>
			
				<path style="fill:none;stroke:#263238;stroke-width:0.708;stroke-linecap:round;stroke-linejoin:round;stroke-miterlimit:10;" d="
				M290.287,170.603c0,0,1.497-0.827,3.69,0.196"/>
			<path style="fill:#263238;" d="M270.758,169.962c0,0,7.069-4.872,8.995-10.338c0,0,19.403,1.208,12.257,18.042
				c0,0,8.639-13.84-5.261-20.956c-13.878-7.105-23.775,13.478-19.475,23.112C267.273,179.822,266.363,173.021,270.758,169.962z"/>
			<path style="fill:#E4897B;" d="M271.259,172.333c0.581-1.343,0.299-4.228-2.278-5.143c-2.668-0.948-6.388,3.671-0.69,7.967
				C269.109,175.773,270.047,175.135,271.259,172.333z"/>
			<path style="fill:#263238;" d="M279.391,152.444c0,0,6.17-1.387,10.116,0.571c3.946,1.958,4.227,4.904,4.227,4.904
				s2.635-0.692,5.097,1.572c2.462,2.264,3.907,8.803,1.302,15.788c-2.605,6.985-8.699,6.009-8.699,6.009s7.939-10.372-0.52-17.105
				c0,0-2.775-3.324-6.011-1.312c-3.235,2.012-5.538,10.395-12.648,4.935C265.145,162.347,273.257,154.049,279.391,152.444z"/>
			
				<path style="fill:none;stroke:#263238;stroke-width:0.708;stroke-linecap:round;stroke-linejoin:round;stroke-miterlimit:10;" d="
				M279.461,180.096c0,0,3.06,1.696,3.281,3.419"/>
		</g>
		<path style="fill:#263238;" d="M280.015,153.749c0,0-4.286-14.237-13.607-10.138c-9.32,4.098-13.865,14.341-21.407,8.357
			c-7.542-5.984-10.994,1.782-14.661,4.154c-3.667,2.373-10.138-1.19-8.413-4.154c0,0-4.745,3.635,3.667,7.454
			c8.413,3.819,12.559-4.162,15.231-1.142c2.672,3.02,12.163,9.06,17.125,4.745c4.961-4.314,10.456-1.941,10.456-1.941
			L280.015,153.749z"/>
		<path style="fill:none;stroke:#263238;stroke-width:0.5;stroke-linecap:round;stroke-linejoin:round;stroke-miterlimit:10;" d="
			M267.766,159.421c-4.056,0.12-9.019,9.098-14.754,6.96c-5.736-2.138-11.7-6.884-14.72-4.511"/>
		<path style="fill:none;stroke:#263238;stroke-width:0.5;stroke-linecap:round;stroke-linejoin:round;stroke-miterlimit:10;" d="
			M254.694,153.698c-8.682-1.024-12.982-6.637-16.403-6.205c-3.421,0.432-7.519,8.959-11.402,6.205"/>
		<path style="fill:none;stroke:#263238;stroke-width:0.5;stroke-linecap:round;stroke-linejoin:round;stroke-miterlimit:10;" d="
			M289.434,162.329c-2.829-1.224-4.53,0.543-9.418,7.959c-2.073,3.144-5.856,0.77-5.856,0.77"/>
	</g>
</g>
<g id="Paper_sheets">
	<g>
		<path style="fill:#407BFF;" d="M319.015,222.629l20.438-7.979c0,0,23.155,13.549,37.878,15.789l-25.458,5.012
			C351.873,235.451,324.304,229.957,319.015,222.629z"/>
		<path style="fill:#407BFF;" d="M195.245,288.268l15.528-14.012c0,0,26.528,4.027,47.228,14.012l-21.622,13.272
			C236.379,301.54,216.019,291.19,195.245,288.268z"/>
		<path style="fill:#407BFF;" d="M70.831,306.157l19.942-6.878c0,0,17.3,18.491,31.087,18.495l-22.866,10.974
			C98.994,328.749,74.627,319.425,70.831,306.157z"/>
		<path style="fill:#407BFF;" d="M147.327,236.879c0,0,26.021-3.044,44.472,11.324l-9.512,11.711c0,0-22.843-9.667-42.843-4.01
			L147.327,236.879z"/>
		<path style="fill:#407BFF;" d="M382.052,346.237l25.077,4.284c0,0-21.765,14.444-40.09,17.103l-19.787-6.413
			C347.253,361.211,371.069,358.72,382.052,346.237z"/>
		<path style="fill:#407BFF;" d="M374.087,302.811c0,0,24.114-1.303,41.161,5.772l10.228-9.766c0,0-26.768-11.731-44.018-5.869
			L374.087,302.811z"/>
		<path style="fill:#407BFF;" d="M209.289,394.996c0,0,12.056-12.685,42.138-16.033l18.239,8.219c0,0-27.206,5.904-39.591,11.653
			L209.289,394.996z"/>
		<path style="opacity:0.6;fill:#FFFFFF;" d="M319.015,222.629l20.438-7.979c0,0,23.155,13.549,37.878,15.789l-25.458,5.012
			C351.873,235.451,324.304,229.957,319.015,222.629z"/>
		<path style="opacity:0.6;fill:#FFFFFF;" d="M195.245,288.268l15.528-14.012c0,0,26.528,4.027,47.228,14.012l-21.622,13.272
			C236.379,301.54,216.019,291.19,195.245,288.268z"/>
		<path style="opacity:0.6;fill:#FFFFFF;" d="M70.831,306.157l19.942-6.878c0,0,17.3,18.491,31.087,18.495l-22.866,10.974
			C98.994,328.749,74.627,319.425,70.831,306.157z"/>
		<path style="opacity:0.4;fill:#FFFFFF;" d="M147.327,236.879c0,0,26.021-3.044,44.472,11.324l-9.512,11.711
			c0,0-22.843-9.667-42.843-4.01L147.327,236.879z"/>
		<path style="opacity:0.8;fill:#FFFFFF;" d="M382.052,346.237l25.077,4.284c0,0-21.765,14.444-40.09,17.103l-19.787-6.413
			C347.253,361.211,371.069,358.72,382.052,346.237z"/>
		<path style="opacity:0.4;fill:#FFFFFF;" d="M374.087,302.811c0,0,24.114-1.303,41.161,5.772l10.228-9.766
			c0,0-26.768-11.731-44.018-5.869L374.087,302.811z"/>
		<path style="opacity:0.4;fill:#FFFFFF;" d="M209.289,394.996c0,0,12.056-12.685,42.138-16.033l18.239,8.219
			c0,0-27.206,5.904-39.591,11.653L209.289,394.996z"/>
	</g>
</g>
</svg>
