<?xml version="1.0" encoding="utf-8"?>
<!-- Generator: Adobe Illustrator 27.5.0, SVG Export Plug-In . SVG Version: 6.00 Build 0)  -->
<svg version="1.1" xmlns="http://www.w3.org/2000/svg" xmlns:xlink="http://www.w3.org/1999/xlink" x="0px" y="0px"
	 viewBox="0 0 500 500" style="enable-background:new 0 0 500 500;" xml:space="preserve">
<g id="Background_Complete">
	<g>
		<g>
			<rect y="382.398" style="fill:#EBEBEB;" width="500" height="0.25"/>
			<path style="fill:#EBEBEB;" d="M237.014,337.8H43.915c-3.147,0-5.708-2.561-5.708-5.708V60.66c0-3.147,2.561-5.708,5.708-5.708
				h193.099c3.146,0,5.707,2.561,5.707,5.708v271.432C242.721,335.239,240.16,337.8,237.014,337.8z M43.915,55.203
				c-3.01,0-5.458,2.448-5.458,5.458v271.432c0,3.01,2.448,5.458,5.458,5.458h193.099c3.009,0,5.457-2.448,5.457-5.458V60.66
				c0-3.009-2.448-5.458-5.457-5.458H43.915z"/>
			<path style="fill:#EBEBEB;" d="M453.31,337.8H260.212c-3.147,0-5.707-2.561-5.707-5.708V60.66c0-3.147,2.561-5.708,5.707-5.708
				H453.31c3.148,0,5.708,2.561,5.708,5.708v271.432C459.019,335.239,456.458,337.8,453.31,337.8z M260.212,55.203
				c-3.009,0-5.457,2.448-5.457,5.458v271.432c0,3.01,2.448,5.458,5.457,5.458H453.31c3.01,0,5.458-2.448,5.458-5.458V60.66
				c0-3.009-2.448-5.458-5.458-5.458H260.212z"/>
		</g>
		<rect x="423.904" y="398.494" style="fill:#EBEBEB;" width="25.997" height="0.25"/>
		<rect x="311" y="401.208" style="fill:#EBEBEB;" width="45.027" height="0.25"/>
		<rect x="362.111" y="389.208" style="fill:#EBEBEB;" width="60.792" height="0.25"/>
		<rect x="52.459" y="390.888" style="fill:#EBEBEB;" width="19.235" height="0.25"/>
		<rect x="80.597" y="390.888" style="fill:#EBEBEB;" width="55.292" height="0.25"/>
		<rect x="169.667" y="395.111" style="fill:#EBEBEB;" width="74.467" height="0.25"/>
	</g>
	<g>
		<g>
			<g>
				<g>
					
						<rect x="378.598" y="229.222" transform="matrix(-1 -1.224647e-16 1.224647e-16 -1 765.1916 606.4981)" style="fill:#F0F0F0;" width="7.996" height="148.053"/>
					
						<rect x="340.193" y="377.276" transform="matrix(-1 -1.224647e-16 1.224647e-16 -1 724.6766 759.6592)" style="fill:#F0F0F0;" width="44.291" height="5.108"/>
					<rect x="338.083" y="229.222" style="fill:#F5F5F5;" width="40.515" height="148.053"/>
					<rect x="342.403" y="306.316" style="fill:#F0F0F0;" width="31.876" height="26.437"/>
					<rect x="342.403" y="340.917" style="fill:#F0F0F0;" width="31.876" height="26.437"/>
					<path style="fill:#F5F5F5;" d="M354.094,321.347h8.493c0.648,0,1.178-0.53,1.178-1.178V318.9c0-0.648-0.53-1.178-1.178-1.178
						h-8.493c-0.648,0-1.178,0.53-1.178,1.178v1.269C352.916,320.816,353.446,321.347,354.094,321.347z"/>
					<path style="fill:#F5F5F5;" d="M354.094,355.948h8.493c0.648,0,1.178-0.53,1.178-1.178v-1.269c0-0.648-0.53-1.178-1.178-1.178
						h-8.493c-0.648,0-1.178,0.53-1.178,1.178v1.269C352.916,355.418,353.446,355.948,354.094,355.948z"/>
					<rect x="342.403" y="237.387" style="fill:#F0F0F0;" width="31.876" height="26.437"/>
					<rect x="342.403" y="271.715" style="fill:#F0F0F0;" width="31.876" height="26.437"/>
					<path style="fill:#F5F5F5;" d="M354.094,252.418h8.493c0.648,0,1.178-0.53,1.178-1.178v-1.269c0-0.648-0.53-1.178-1.178-1.178
						h-8.493c-0.648,0-1.178,0.53-1.178,1.178v1.269C352.916,251.888,353.446,252.418,354.094,252.418z"/>
					<path style="fill:#F5F5F5;" d="M354.094,286.746h8.493c0.648,0,1.178-0.53,1.178-1.178v-1.268c0-0.648-0.53-1.178-1.178-1.178
						h-8.493c-0.648,0-1.178,0.53-1.178,1.178v1.268C352.916,286.215,353.446,286.746,354.094,286.746z"/>
				</g>
			</g>
			<g>
				<g>
					
						<rect x="422.934" y="229.222" transform="matrix(-1 -1.224647e-16 1.224647e-16 -1 869.8656 606.4981)" style="fill:#F0F0F0;" width="23.997" height="148.053"/>
					
						<rect x="384.529" y="377.276" transform="matrix(-1 -1.224647e-16 1.224647e-16 -1 829.0049 759.6592)" style="fill:#F0F0F0;" width="59.947" height="5.108"/>
					<rect x="382.419" y="229.222" style="fill:#F5F5F5;" width="40.515" height="148.053"/>
					<rect x="386.739" y="306.316" style="fill:#F0F0F0;" width="31.876" height="26.437"/>
					<rect x="386.739" y="340.917" style="fill:#F0F0F0;" width="31.876" height="26.437"/>
					<path style="fill:#F5F5F5;" d="M398.431,321.347h8.493c0.648,0,1.178-0.53,1.178-1.178V318.9c0-0.648-0.53-1.178-1.178-1.178
						h-8.493c-0.648,0-1.178,0.53-1.178,1.178v1.269C397.252,320.816,397.783,321.347,398.431,321.347z"/>
					<path style="fill:#F5F5F5;" d="M398.431,355.948h8.493c0.648,0,1.178-0.53,1.178-1.178v-1.269c0-0.648-0.53-1.178-1.178-1.178
						h-8.493c-0.648,0-1.178,0.53-1.178,1.178v1.269C397.252,355.418,397.783,355.948,398.431,355.948z"/>
					<rect x="386.739" y="237.387" style="fill:#F0F0F0;" width="31.876" height="26.437"/>
					<rect x="386.739" y="271.715" style="fill:#F0F0F0;" width="31.876" height="26.437"/>
					<path style="fill:#F5F5F5;" d="M398.431,252.418h8.493c0.648,0,1.178-0.53,1.178-1.178v-1.269c0-0.648-0.53-1.178-1.178-1.178
						h-8.493c-0.648,0-1.178,0.53-1.178,1.178v1.269C397.252,251.888,397.783,252.418,398.431,252.418z"/>
					<path style="fill:#F5F5F5;" d="M398.431,286.746h8.493c0.648,0,1.178-0.53,1.178-1.178v-1.268c0-0.648-0.53-1.178-1.178-1.178
						h-8.493c-0.648,0-1.178,0.53-1.178,1.178v1.268C397.252,286.215,397.783,286.746,398.431,286.746z"/>
				</g>
			</g>
		</g>
		<g>
			<g>
				
					<rect x="292.63" y="80.059" transform="matrix(-1 -1.224647e-16 1.224647e-16 -1 719.9722 278.3794)" style="fill:#E6E6E6;" width="134.712" height="118.261"/>
				<path style="fill:#E6E6E6;" d="M278.194,75.459h157.868c0.738,0,1.337,0.599,1.337,1.337l0,0c0,0.739-0.599,1.337-1.337,1.337
					H278.194c-0.739,0-1.337-0.599-1.337-1.337l0,0C276.857,76.057,277.455,75.459,278.194,75.459z"/>
				
					<rect x="286.914" y="80.059" transform="matrix(-1 -1.224647e-16 1.224647e-16 -1 711.5851 278.3794)" style="fill:#F0F0F0;" width="137.757" height="118.261"/>
				<polygon style="fill:#E6E6E6;" points="292.63,198.32 427.342,198.32 427.342,202.109 288.692,202.109 				"/>
				<polygon style="fill:#F0F0F0;" points="277.391,198.32 415.148,198.32 411.21,202.109 273.453,202.109 				"/>
				
					<rect x="304.665" y="78.314" transform="matrix(-1.836970e-16 1 -1 -1.836970e-16 494.9824 -216.6028)" style="fill:#FAFAFA;" width="102.256" height="121.752"/>
				<polygon style="fill:#FFFFFF;" points="389.03,190.318 342.061,88.062 319.889,88.062 366.858,190.318 				"/>
				<polygon style="fill:#FFFFFF;" points="362.095,190.318 315.126,88.062 306.482,88.062 353.451,190.318 				"/>
				
					<rect x="244.297" y="138.682" transform="matrix(-1.836970e-16 1 -1 -1.836970e-16 434.6146 -156.235)" style="fill:#E6E6E6;" width="102.256" height="1.016"/>
			</g>
			<g style="opacity:0.4;">
				
					<rect x="416.575" y="73.066" transform="matrix(-1 -1.224647e-16 1.224647e-16 -1 846.9234 243.7232)" style="fill:#F0F0F0;" width="13.773" height="97.592"/>
				
					<rect x="411.21" y="73.066" transform="matrix(-1 -1.224647e-16 1.224647e-16 -1 833.1506 243.7232)" style="fill:#E6E6E6;" width="10.73" height="97.592"/>
				
					<rect x="402.802" y="73.066" transform="matrix(-1 -1.224647e-16 1.224647e-16 -1 819.3778 243.7232)" style="fill:#F0F0F0;" width="13.773" height="97.592"/>
				
					<rect x="397.437" y="73.066" transform="matrix(-1 -1.224647e-16 1.224647e-16 -1 805.6051 243.7232)" style="fill:#E6E6E6;" width="10.73" height="97.592"/>
				
					<rect x="389.03" y="73.066" transform="matrix(-1 -1.224647e-16 1.224647e-16 -1 791.8323 243.7232)" style="fill:#F0F0F0;" width="13.773" height="97.592"/>
			</g>
			<g style="opacity:0.4;">
				
					<rect x="300.042" y="73.066" transform="matrix(-1 -1.224647e-16 1.224647e-16 -1 608.0216 243.7232)" style="fill:#F0F0F0;" width="7.937" height="97.592"/>
				
					<rect x="296.951" y="73.066" transform="matrix(-1 -1.224647e-16 1.224647e-16 -1 600.0849 243.7232)" style="fill:#E6E6E6;" width="6.183" height="97.592"/>
				
					<rect x="292.106" y="73.066" transform="matrix(-1 -1.224647e-16 1.224647e-16 -1 592.148 243.7232)" style="fill:#F0F0F0;" width="7.937" height="97.592"/>
				
					<rect x="289.014" y="73.066" transform="matrix(-1 -1.224647e-16 1.224647e-16 -1 584.2113 243.7232)" style="fill:#E6E6E6;" width="6.183" height="97.592"/>
				
					<rect x="284.169" y="73.066" transform="matrix(-1 -1.224647e-16 1.224647e-16 -1 576.2745 243.7232)" style="fill:#F0F0F0;" width="7.937" height="97.592"/>
			</g>
		</g>
		<g>
			<polygon style="fill:#F5F5F5;" points="164.215,151.696 183.283,151.696 181.031,103.356 164.215,103.356 			"/>
			<g>
				<g>
					<polygon style="fill:#F5F5F5;" points="194.046,154.312 198.159,175.785 194.046,175.785 168.835,154.312 					"/>
					<polygon style="fill:#E6E6E6;" points="198.159,154.312 198.159,175.785 172.948,154.312 					"/>
				</g>
				<g>
					<polygon style="fill:#F5F5F5;" points="95.181,154.312 99.294,175.785 95.181,175.785 69.97,154.312 					"/>
					<polygon style="fill:#E6E6E6;" points="99.294,154.312 99.294,175.785 74.083,154.312 					"/>
				</g>
				<g>
					<rect x="189.248" y="151.771" style="fill:#E6E6E6;" width="27.419" height="3.097"/>
					
						<rect x="52.928" y="151.771" transform="matrix(-1 -1.224647e-16 1.224647e-16 -1 242.1755 306.6383)" style="fill:#F5F5F5;" width="136.32" height="3.097"/>
				</g>
			</g>
			<g>
				<polygon style="fill:#E6E6E6;" points="136.209,151.696 177.134,151.696 182.194,93.119 141.269,93.119 				"/>
				<polygon style="fill:#F0F0F0;" points="134.089,151.696 175.014,151.696 180.074,93.119 139.149,93.119 				"/>
				<polygon style="fill:#FFFFFF;" points="171.577,145.211 176.205,99.603 142.588,99.603 137.96,145.211 				"/>
			</g>
			<polygon style="fill:#E0E0E0;" points="117.89,151.696 131.018,151.696 129.469,118.412 117.89,118.412 			"/>
			<g>
				<polygon style="fill:#F0F0F0;" points="98.606,151.696 126.785,151.696 130.269,111.363 102.09,111.363 				"/>
				<polygon style="fill:#F5F5F5;" points="97.146,151.696 125.325,151.696 128.809,111.363 100.631,111.363 				"/>
				<polygon style="fill:#E0E0E0;" points="122.959,147.231 126.146,115.828 102.998,115.828 99.812,147.231 				"/>
			</g>
		</g>
		<g>
			<g>
				<g>
					<path style="fill:#E0E0E0;" d="M262.36,236.439c0.257,3.119-2.064,5.855-5.183,6.112c-3.119,0.257-5.856-2.064-6.112-5.183
						c-0.257-3.119,2.064-5.856,5.183-6.112C259.367,230.999,262.103,233.32,262.36,236.439z"/>
					<path style="fill:#E0E0E0;" d="M272.888,239.403c0.257,3.119-2.064,5.855-5.183,6.112c-3.119,0.257-5.855-2.064-6.112-5.183
						c-0.257-3.119,2.064-5.856,5.183-6.112C269.895,233.963,272.632,236.284,272.888,239.403z"/>
					<path style="fill:#E0E0E0;" d="M280.498,236.018c0.257,3.119-2.064,5.856-5.183,6.112c-3.119,0.257-5.856-2.064-6.112-5.183
						c-0.257-3.119,2.064-5.855,5.183-6.112C277.505,230.578,280.241,232.898,280.498,236.018z"/>
					<path style="fill:#E0E0E0;" d="M288.53,238.116c0.257,3.119-2.064,5.856-5.183,6.112c-3.119,0.257-5.855-2.064-6.112-5.183
						c-0.257-3.119,2.064-5.855,5.183-6.112C285.537,232.677,288.274,234.997,288.53,238.116z"/>
				</g>
				<g>
					<g>
						<g>
							<path style="fill:#F0F0F0;" d="M295.744,239.031c0,0-0.66,15.739-25.947,15.739c-25.287,0-25.947-15.739-25.947-15.739
								H295.744z"/>
						</g>
					</g>
				</g>
			</g>
			<g>
				
					<rect x="59.881" y="254.77" transform="matrix(-1 -1.224647e-16 1.224647e-16 -1 128.9484 637.1672)" style="fill:#E6E6E6;" width="9.186" height="127.627"/>
				
					<rect x="57.423" y="254.77" transform="matrix(-1 -1.224647e-16 1.224647e-16 -1 120.2562 637.1672)" style="fill:#F0F0F0;" width="5.411" height="127.627"/>
				<rect x="55.747" y="254.77" style="fill:#F0F0F0;" width="130.457" height="9.573"/>
				
					<rect x="309.763" y="254.77" transform="matrix(-1 -1.224647e-16 1.224647e-16 -1 628.7129 637.1672)" style="fill:#E6E6E6;" width="9.186" height="127.627"/>
				
					<rect x="308.041" y="254.77" transform="matrix(-1 -1.224647e-16 1.224647e-16 -1 621.4932 637.1672)" style="fill:#F0F0F0;" width="5.411" height="127.627"/>
				<rect x="190.134" y="254.77" style="fill:#E6E6E6;" width="130.457" height="9.573"/>
				
					<rect x="186.986" y="254.77" transform="matrix(-1 -1.224647e-16 1.224647e-16 -1 383.1583 637.1672)" style="fill:#E6E6E6;" width="9.186" height="127.627"/>
				
					<rect x="184.528" y="254.77" transform="matrix(-1 -1.224647e-16 1.224647e-16 -1 374.466 637.1672)" style="fill:#F0F0F0;" width="5.411" height="127.627"/>
			</g>
			<g>
				<polygon style="fill:#E6E6E6;" points="217.144,212.32 149.026,212.32 136.894,252.544 205.012,252.544 				"/>
				<polygon style="fill:#E6E6E6;" points="205.012,252.544 204.736,254.768 136.615,254.768 136.89,252.544 				"/>
				<polygon style="fill:#F0F0F0;" points="215.047,212.32 146.929,212.32 134.797,252.544 202.915,252.544 				"/>
				<polygon style="fill:#FFFFFF;" points="201.578,250.707 212.601,214.158 148.267,214.158 137.243,250.707 				"/>
				<polygon style="fill:#F0F0F0;" points="185.166,252.544 184.891,254.768 109.879,254.768 110.154,252.544 				"/>
			</g>
		</g>
	</g>
</g>
<g id="Background_Simple" style="display:none;">
	<g style="display:inline;">
		<path style="fill:#407BFF;" d="M206.979,278.398c85.027,0.238,171.225,68.67,190.776-44.195
			c9.949-57.431,54.625-79.848,27.63-116.842c-18.533-25.397-82.053-45.143-112.537-44.715
			c-45.922,0.645-65.666,32.174-90.386,65.412c-27.976,37.616-64.098,40.89-96.368,69.531c-23.548,20.899-33.315,74.486-2.5,96.069
			C161.35,330.103,170.748,278.297,206.979,278.398z"/>
		<path style="opacity:0.9;fill:#FFFFFF;" d="M206.979,278.398c85.027,0.238,171.225,68.67,190.776-44.195
			c9.949-57.431,54.625-79.848,27.63-116.842c-18.533-25.397-82.053-45.143-112.537-44.715
			c-45.922,0.645-65.666,32.174-90.386,65.412c-27.976,37.616-64.098,40.89-96.368,69.531c-23.548,20.899-33.315,74.486-2.5,96.069
			C161.35,330.103,170.748,278.297,206.979,278.398z"/>
	</g>
</g>
<g id="Shadow_1_">
	<ellipse id="_x3C_Path_x3E__75_" style="fill:#F5F5F5;" cx="250" cy="416.238" rx="193.889" ry="11.323"/>
</g>
<g id="Smartphone">
	<g>
		<g>
			<path style="fill:#407BFF;" d="M377.552,109.15H262.463c-8.038,0-15.042,6.577-15.563,14.615l-17.86,275.563
				c-0.521,8.039,5.63,14.615,13.668,14.615h115.088c8.038,0,15.042-6.577,15.563-14.615l12.836-198.055
				c1.085-0.38,1.919-1.387,1.996-2.574l2.297-35.435c0.077-1.187-0.626-2.194-1.662-2.575l2.393-36.924
				C391.741,115.728,385.59,109.15,377.552,109.15z"/>
			<path style="fill:#407BFF;" d="M237.584,180.5h2.253c1.427,0,2.67-1.167,2.762-2.594l0.959-14.792
				c0.092-1.427-0.999-2.594-2.426-2.594h-2.253c-1.427,0-2.67,1.167-2.762,2.594l-0.959,14.792
				C235.065,179.333,236.157,180.5,237.584,180.5z"/>
			<path style="fill:#407BFF;" d="M235.872,206.917h2.253c1.427,0,2.67-1.168,2.762-2.594l0.959-14.791
				c0.092-1.427-0.999-2.594-2.426-2.594h-2.253c-1.427,0-2.67,1.168-2.762,2.594l-0.959,14.791
				C233.353,205.749,234.445,206.917,235.872,206.917z"/>
		</g>
		<path style="fill:#263238;" d="M351.68,413.944H236.592c-8.038,0-14.189-6.577-13.668-14.615l17.86-275.563
			c0.521-8.038,7.524-14.615,15.563-14.615h115.088c8.039,0,14.189,6.577,13.668,14.615l-17.86,275.563
			C366.722,407.367,359.719,413.944,351.68,413.944z"/>
		
			<ellipse transform="matrix(0.7185 -0.6956 0.6956 0.7185 -191.8509 316.7445)" style="opacity:0.2;fill:#FFFFFF;" cx="295.341" cy="395.361" rx="10.158" ry="9.52"/>
		<path style="fill:#FFFFFF;" d="M362.085,378.167H231.248c-1.881,0-3.371-1.59-3.25-3.467l15.316-236.32
			c0.111-1.713,1.533-3.046,3.25-3.046h130.837c1.881,0,3.371,1.59,3.25,3.467l-15.316,236.32
			C365.223,376.834,363.802,378.167,362.085,378.167z"/>
		
			<ellipse transform="matrix(0.7185 -0.6956 0.6956 0.7185 -96.0777 282.9908)" style="opacity:0.2;fill:#407BFF;" cx="301.537" cy="260.179" rx="36.876" ry="34.563"/>
		<path style="opacity:0.2;fill:#407BFF;" d="M297.967,315.26c-30.372,0-53.48-24.709-51.511-55.081
			c1.968-30.372,28.279-55.081,58.651-55.081c30.371,0,53.479,24.709,51.51,55.081C354.649,290.551,328.338,315.26,297.967,315.26z
			 M305.042,206.098c-29.82,0-55.654,24.26-57.586,54.081c-1.933,29.82,20.756,54.081,50.576,54.081
			c29.82,0,55.652-24.26,57.585-54.081C357.55,230.359,334.862,206.098,305.042,206.098z"/>
		<path style="fill:#407BFF;" d="M293.009,277.486l-2.978-5.781c-6.498-12.612-21.474-23.885-26.696-27.164l4.94-7.391
			c6.184,3.883,18.556,13.495,26.321,24.909c14.34-16.987,34.622-34.51,61.779-53.397l4.63,6.979
			c-29.018,20.181-49.871,38.633-63.752,56.412L293.009,277.486z"/>
		
			<ellipse transform="matrix(0.7185 -0.6956 0.6956 0.7185 -3.5966 235.3201)" style="opacity:0.2;fill:#FFFFFF;" cx="288.895" cy="122.103" rx="4.115" ry="3.856"/>
		<path style="opacity:0.2;fill:#FFFFFF;" d="M302.915,118.12h33.093c2.191,0,3.867,1.793,3.725,3.983l0,0
			c-0.142,2.191-2.051,3.983-4.242,3.983h-33.093c-2.191,0-3.867-1.793-3.725-3.983l0,0
			C298.815,119.912,300.724,118.12,302.915,118.12z"/>
	</g>
</g>
<g id="Character_1_">
	<g>
		<path style="fill:#B55B52;" d="M179.738,192.045c-1.689,1.724-3.5,3.631-5.163,5.536c-1.691,1.911-3.346,3.852-4.914,5.85
			c-1.573,1.997-3.054,4.043-4.478,6.112l-1.037,1.568l-0.972,1.594c-0.334,0.529-0.635,1.068-0.924,1.611l-0.801,1.472
			c-0.268,0.534-0.463,1.557-0.55,2.628c-0.089,1.086-0.071,2.275,0.003,3.482c0.155,2.422,0.509,4.938,0.961,7.45
			c0.434,2.521,0.977,5.052,1.587,7.573c0.576,2.525,1.243,5.07,1.904,7.553l-3.705,1.387c-2.261-4.92-4.098-9.924-5.619-15.163
			c-0.732-2.625-1.376-5.301-1.764-8.127c-0.188-1.417-0.324-2.868-0.313-4.418c0.024-1.554,0.142-3.196,0.869-5.114
			c0.226-0.557,0.353-0.784,0.509-1.117l0.457-0.949c0.3-0.637,0.611-1.266,0.95-1.872l0.996-1.837l1.055-1.79
			c1.431-2.365,2.953-4.662,4.612-6.834c1.644-2.186,3.337-4.323,5.128-6.375c1.824-2.052,3.606-4.012,5.681-5.983L179.738,192.045z
			"/>
		<g>
			<path style="fill:#407BFF;" d="M180.167,179.989c-5.419,0.246-10.563,9.239-10.563,9.239l7.155,14.616
				c0,0,9.699-8.083,9.823-16.023C186.664,182.658,185.496,179.747,180.167,179.989z"/>
			<path style="opacity:0.7;fill:#FFFFFF;" d="M180.167,179.989c-5.419,0.246-10.563,9.239-10.563,9.239l7.155,14.616
				c0,0,9.699-8.083,9.823-16.023C186.664,182.658,185.496,179.747,180.167,179.989z"/>
			<path style="opacity:0.2;" d="M181.46,190.5c-1.58,2.39-2.34,8.59-2.58,11.35c1.8-1.8,4.32-4.67,5.97-7.91
				C183.81,191.27,182.5,188.93,181.46,190.5z"/>
		</g>
		<path style="fill:#B55B52;" d="M164.327,242.908l6.591,1.958l-4.386,4.441c0,0-4.748-1.464-5.411-4.692L164.327,242.908z"/>
		<polygon style="fill:#B55B52;" points="174.907,249.94 173.797,254.185 166.532,249.307 170.917,244.866 		"/>
		<path style="fill:#263238;" d="M218.27,162.645c-0.206,0.592-0.058,1.191,0.329,1.338c0.387,0.147,0.868-0.215,1.074-0.807
			c0.206-0.592,0.058-1.191-0.329-1.338C218.956,161.692,218.475,162.053,218.27,162.645z"/>
		<path style="fill:#263238;" d="M219.161,161.806l1.566,0.129C220.727,161.935,219.611,162.77,219.161,161.806z"/>
		<path style="fill:#A02724;" d="M218.569,163.41c0,0,0.12,2.93,0.8,4.579c-1.036,0.434-2.25-0.403-2.25-0.403L218.569,163.41z"/>
		<path style="fill:#263238;" d="M220.208,160.344c-0.139-0.024-0.258-0.128-0.296-0.273c-0.41-1.608-1.663-2.099-1.716-2.12
			c-0.191-0.072-0.288-0.285-0.217-0.475c0.071-0.191,0.283-0.289,0.474-0.219c0.068,0.025,1.668,0.633,2.176,2.631
			c0.051,0.198-0.069,0.4-0.267,0.45C220.311,160.352,220.258,160.353,220.208,160.344z"/>
		<path style="fill:#B55B52;" d="M197.728,165.162c0.146,4.724-0.336,13.234-4.039,15.65c0,0,0.489,4.858,8.992,6.505
			c9.35,1.811,5.231-3.75,5.231-3.75c-4.903-2.2-4.149-5.939-2.676-9.302L197.728,165.162z"/>
		<path style="fill:#B55B52;" d="M225.516,197.525c0.848,2.298,1.803,4.776,2.819,7.126c1.01,2.376,2.059,4.733,3.196,7.038
			c1.135,2.308,2.353,4.554,3.61,6.763c0.644,1.093,1.298,2.179,1.998,3.22c0.337,0.535,0.689,1.053,1.059,1.552l0.544,0.761
			l0.272,0.381l0.136,0.19l0.091,0.106c0.436,0.567,1.291,1.273,2.216,1.923c0.938,0.655,1.987,1.279,3.08,1.868
			c2.197,1.172,4.54,2.249,6.931,3.254c2.388,1.021,4.83,1.973,7.3,2.869c2.454,0.928,4.968,1.793,7.432,2.645l-0.926,3.846
			c-5.38-0.882-10.607-2.137-15.854-3.727c-2.613-0.823-5.22-1.732-7.816-2.89c-1.298-0.585-2.597-1.23-3.903-2.008
			c-1.308-0.792-2.62-1.686-3.933-3.134l-0.24-0.268l-0.166-0.208l-0.331-0.415l-0.662-0.831c-0.451-0.551-0.876-1.114-1.28-1.687
			c-0.844-1.13-1.625-2.289-2.394-3.454c-1.518-2.337-2.938-4.726-4.191-7.181c-1.269-2.448-2.477-4.919-3.568-7.44
			c-1.076-2.549-2.091-5.024-2.992-7.759L225.516,197.525z"/>
		<path style="fill:#B55B52;" d="M264.877,237.163l5.902-2.287l-0.291,6.814c0,0-4.776,1.274-6.994-1.141L264.877,237.163z"/>
		<polygon style="fill:#B55B52;" points="275.226,237.218 277.252,241.57 270.488,241.69 270.779,234.876 		"/>
		<polygon style="fill:#B55B52;" points="177.384,407.893 185.192,408.469 187.511,390.539 179.703,389.964 		"/>
		<polygon style="fill:#B55B52;" points="115.521,367.333 120.62,373.389 135.764,363.658 130.665,357.602 		"/>
		<path style="fill:#263238;" d="M123.024,372.607l-4.111-7.902c-0.15-0.288-0.465-0.42-0.758-0.319l-6.537,2.259
			c-0.678,0.234-0.984,1.102-0.627,1.76c1.479,2.731,2.327,3.977,4.135,7.452c1.112,2.138,2.522,5.373,4.058,8.325
			c1.502,2.887,4.452,1.634,4.069,0.271c-1.717-6.111-0.583-7.808-0.036-10.453C123.315,373.524,123.243,373.028,123.024,372.607z"
			/>
		<path style="fill:#263238;" d="M185.679,407.357h-8.776c-0.319,0-0.584,0.222-0.637,0.534l-1.178,6.944
			c-0.122,0.72,0.48,1.402,1.217,1.389c3.061-0.053,4.54-0.232,8.4-0.232c2.374,0,7.279,0.247,10.559,0.247
			c3.207,0,3.537-3.242,2.179-3.536c-6.088-1.317-8.451-3.132-10.469-4.865C186.609,407.525,186.146,407.357,185.679,407.357z"/>
		<g>
			<polygon style="opacity:0.2;" points="187.508,390.544 186.221,400.508 178.437,399.728 179.697,389.968 			"/>
			<polygon style="opacity:0.2;" points="130.659,357.604 135.761,363.662 129.494,367.685 124.198,361.752 			"/>
		</g>
		<g>
			<path style="fill:#407BFF;" d="M177.969,227.553c6.055,1.17,18.898,3.66,31.32,6.07c14.8-43.57,11.258-44.98,11.258-44.98
				s-3.142-1.75-7.108-3.3c-0.152-0.06-0.293-0.11-0.425-0.16c-2.002-0.73-2.425-0.84-5.108-1.62
				c-4.612-1.09-8.909-1.98-14.221-2.75c-0.341-0.05-0.683-0.1-1.014-0.14c-0.964-0.12-1.916-0.22-2.839-0.31
				c-0.622-0.07-1.243-0.11-1.834-0.15c-0.701-0.04-1.383-0.08-2.023-0.11c-3.425-0.17-5.873-0.12-5.873-0.12
				C181.896,207.173,180.587,214.983,177.969,227.553z"/>
			<path style="opacity:0.7;fill:#FFFFFF;" d="M177.969,227.553c6.055,1.17,18.898,3.66,31.32,6.07
				c14.8-43.57,11.258-44.98,11.258-44.98s-3.142-1.75-7.108-3.3c-0.152-0.06-0.293-0.11-0.425-0.16
				c-2.002-0.73-2.425-0.84-5.108-1.62c-4.612-1.09-8.909-1.98-14.221-2.75c-0.341-0.05-0.683-0.1-1.014-0.14
				c-0.964-0.12-1.916-0.22-2.839-0.31c-0.622-0.07-1.243-0.11-1.834-0.15c-0.701-0.04-1.383-0.08-2.023-0.11
				c-3.425-0.17-5.873-0.12-5.873-0.12C181.896,207.173,180.587,214.983,177.969,227.553z"/>
		</g>
		<path style="opacity:0.2;" d="M216.08,198.79l-2.83-0.46c-0.03,3.73,1.42,10.13,2.8,14.2c1.17-3.98,2.08-7.29,2.77-10.061
			L216.08,198.79z"/>
		<g>
			<path style="fill:#407BFF;" d="M219.494,188.085c4.626,1.484,7.995,10.645,9.26,14.597l-8.967,10.564
				c0,0-9.253-13.247-7.83-17.355C213.439,191.613,217.247,187.364,219.494,188.085z"/>
			<path style="opacity:0.7;fill:#FFFFFF;" d="M219.494,188.085c4.626,1.484,7.995,10.645,9.26,14.597l-8.967,10.564
				c0,0-9.253-13.247-7.83-17.355C213.439,191.613,217.247,187.364,219.494,188.085z"/>
		</g>
		<path style="fill:#263238;" d="M222.486,154.268c-0.926,2.731-4.974,3.827-9.042,2.447c-4.068-1.379-6.614-4.711-5.688-7.443
			c0.926-2.731,4.974-3.827,9.042-2.447C220.865,148.205,223.412,151.537,222.486,154.268z"/>
		<path style="fill:#B55B52;" d="M199.007,153.516c-2.078,7.442-3.116,10.543-0.737,15.667c3.58,7.708,13.164,8.914,17.421,2.312
			c3.832-5.943,6.586-17.115,0.467-22.705C210.13,143.282,201.085,146.074,199.007,153.516z"/>
		<path style="fill:#263238;" d="M210.62,144.833c-3.036,1.72-9.368-9.055-17.278,0c-5.663,6.483-2.056,16.008-2.056,16.008
			s-4.502-7.93-8.111-4.064c-4.694,5.029,0.167,22.889,15.667,21.667c15.5-1.222,14.013-13.812,14.013-13.812
			s7.26-7.384,6.896-13.966C219.473,145.656,215.62,142,210.62,144.833z"/>
		<path style="fill:#B55B52;" d="M212.505,159.907c-0.435,1.336-0.299,2.943,0.13,4.213c0.646,1.91,2.114,1.922,2.893,0.601
			c0.702-1.188,1.211-3.615,0.101-5.151C214.536,158.056,213.002,158.38,212.505,159.907z"/>
		<path style="fill:#263238;" d="M201.02,232.02c0,0-3.34,11.58-7.63,26.86c-2.85,10.18-6.13,22-9.12,33.13
			c-1.71,6.37-3.32,12.51-4.71,17.99c-7.86,31.05-47.06,57.74-47.06,57.74l-7.59-8.35c0,0,26.34-22.18,33.96-51.15
			c15.47-58.81,6.77-68.73,19.1-80.68L201.02,232.02z"/>
		<path style="opacity:0.2;" d="M197.62,242.38c-1.16,4.49-2.62,10.16-4.23,16.5c-2.85,10.18-6.13,22-9.12,33.13
			c-1.28-14.2-2.04-40.31,8.45-48.43C194.78,241.98,196.41,241.67,197.62,242.38z"/>
		<g>
			<polygon style="fill:#407BFF;" points="133.133,368.934 123.65,358.498 126.516,355.623 138.145,366.583 			"/>
			<polygon style="opacity:0.7;fill:#FFFFFF;" points="133.133,368.934 123.65,358.498 126.516,355.623 138.145,366.583 			"/>
		</g>
		<path style="fill:#407BFF;" d="M124.431,376.853c-0.093-0.005-0.187-0.023-0.279-0.057c-0.936-0.338-1.524-2.114-1.791-3.142
			c-0.019-0.072,0.007-0.148,0.066-0.194c0.06-0.045,0.14-0.051,0.204-0.013c0.281,0.162,2.742,1.608,2.793,2.611
			c0.011,0.223-0.087,0.416-0.284,0.558C124.904,376.786,124.666,376.865,124.431,376.853z M122.842,374.006
			c0.404,1.359,0.93,2.26,1.435,2.442c0.207,0.076,0.419,0.032,0.646-0.132c0.123-0.088,0.135-0.174,0.131-0.239
			C125.028,375.547,123.811,374.614,122.842,374.006z"/>
		<path style="fill:#263238;" d="M208.819,233.622c0,0,1.95,61.821-2.418,85.106c-4.543,24.22-18.379,79.316-18.379,79.316
			l-11.262-1.454c0,0,7.122-55.657,10.145-79.723c3.296-26.236-1.022-87.688-1.022-87.688L208.819,233.622z"/>
		<g>
			<polygon style="fill:#407BFF;" points="190.417,398.687 174.365,396.615 174.564,392.801 192.026,393.562 			"/>
			<polygon style="opacity:0.7;fill:#FFFFFF;" points="190.417,398.687 174.365,396.615 174.564,392.801 192.026,393.562 			"/>
		</g>
		<path style="fill:#407BFF;" d="M124.811,374.43c-0.872-0.044-1.916-0.364-2.374-0.669c-0.054-0.036-0.085-0.099-0.082-0.164
			c0.004-0.065,0.041-0.124,0.099-0.154c0.082-0.043,2.034-1.049,3.095-0.643c0.289,0.11,0.49,0.311,0.598,0.596
			c0.169,0.445-0.032,0.691-0.167,0.799C125.731,374.393,125.298,374.455,124.811,374.43z M122.944,373.619
			c0.861,0.398,2.384,0.622,2.805,0.287c0.07-0.056,0.139-0.149,0.052-0.378c-0.07-0.185-0.196-0.309-0.384-0.381
			C124.787,372.906,123.612,373.319,122.944,373.619z"/>
		<path style="fill:#407BFF;" d="M188.583,408.723c-0.861,0-1.792-0.148-2.453-0.28c-0.077-0.015-0.136-0.078-0.147-0.156
			c-0.011-0.078,0.028-0.154,0.099-0.19c0.357-0.184,3.522-1.778,4.46-1.245c0.182,0.103,0.285,0.273,0.299,0.493
			c0.024,0.369-0.096,0.671-0.357,0.899C190.074,408.603,189.357,408.723,188.583,408.723z M186.749,408.18
			c1.719,0.286,3.005,0.211,3.491-0.214c0.172-0.15,0.247-0.346,0.231-0.597c-0.006-0.096-0.039-0.154-0.112-0.195
			C189.849,406.885,188.047,407.564,186.749,408.18z"/>
		<path style="fill:#407BFF;" d="M186.166,408.447c-0.038,0-0.077-0.012-0.109-0.035c-0.053-0.039-0.082-0.103-0.075-0.169
			c0.016-0.144,0.385-3.524,2.275-3.325c0.506,0.052,0.651,0.307,0.684,0.513c0.142,0.882-1.747,2.575-2.699,3
			C186.217,408.441,186.191,408.447,186.166,408.447z M188.112,405.28c-1.126,0-1.571,1.855-1.709,2.648
			c0.973-0.581,2.258-1.91,2.173-2.439c-0.007-0.042-0.027-0.17-0.356-0.204C188.183,405.282,188.147,405.28,188.112,405.28z"/>
		<path style="fill:#407BFF;" d="M177.804,225.637l-1.873,2.514c-0.145,0.195,0.076,0.465,0.438,0.536l32.848,6.362
			c0.282,0.055,0.539-0.038,0.586-0.211l0.743-2.733c0.051-0.189-0.166-0.4-0.475-0.46l-31.718-6.143
			C178.12,225.457,177.898,225.511,177.804,225.637z"/>
		<path style="fill:#263238;" d="M181.482,229.988l-0.85-0.165c-0.169-0.033-0.284-0.144-0.255-0.248l0.997-3.545
			c0.029-0.104,0.191-0.162,0.361-0.129l0.85,0.165c0.169,0.033,0.284,0.145,0.255,0.248l-0.997,3.545
			C181.813,229.963,181.651,230.021,181.482,229.988z"/>
		<path style="fill:#263238;" d="M202.933,234.193l-0.849-0.165c-0.169-0.033-0.284-0.144-0.255-0.248l0.997-3.545
			c0.029-0.104,0.191-0.162,0.361-0.129l0.849,0.165c0.169,0.033,0.284,0.144,0.255,0.248l-0.997,3.544
			C203.264,234.168,203.102,234.226,202.933,234.193z"/>
	</g>
</g>
</svg>
